<svg width="74" height="129" viewBox="0 0 74 129" fill="none" xmlns="http://www.w3.org/2000/svg">
<rect x="3.48071" y="10.4422" width="66.1338" height="107.903" fill="#B14936"/>
<rect y="1.16022" width="73.0953" height="9.28194" fill="#F1E8E8"/>
<rect y="118.345" width="73.0953" height="9.28194" fill="#F1E8E8"/>
<path d="M37.0203 104.794C38.0857 104.794 38.9073 104.584 39.4853 104.165C40.052 103.734 40.3353 103.077 40.3353 102.193C40.3353 101.808 40.29 101.428 40.1993 101.054C40.1087 100.68 39.95 100.232 39.7233 99.711L40.9813 99.218C41.2307 99.7733 41.412 100.3 41.5253 100.799C41.6387 101.298 41.6953 101.779 41.6953 102.244C41.6953 103.581 41.276 104.596 40.4373 105.287C39.5987 105.978 38.4597 106.324 37.0203 106.324H34.4703C33.031 106.324 31.892 105.978 31.0533 105.287C30.2147 104.596 29.7953 103.581 29.7953 102.244C29.7953 101.779 29.852 101.298 29.9653 100.799C30.0787 100.289 30.26 99.7733 30.5093 99.252L31.7843 99.728C31.3763 100.646 31.1723 101.468 31.1723 102.193C31.1723 103.077 31.4557 103.734 32.0223 104.165C32.589 104.584 33.405 104.794 34.4703 104.794H37.0203ZM41.5253 90.2709H36.3743V95.3199H41.5253V96.7989H29.9653V95.3199H34.9803V90.2709H29.9653V88.7919H41.5253V90.2709ZM34.4703 77.3235H37.0033C38.4427 77.3235 39.5873 77.6861 40.4373 78.4115C41.276 79.1255 41.6953 80.1568 41.6953 81.5055C41.6953 82.8541 41.276 83.8911 40.4373 84.6165C39.5873 85.3305 38.4427 85.6875 37.0033 85.6875H34.4703C33.0423 85.6875 31.909 85.3305 31.0703 84.6165C30.2203 83.8911 29.7953 82.8541 29.7953 81.5055C29.7953 80.1568 30.2203 79.1255 31.0703 78.4115C31.909 77.6861 33.0423 77.3235 34.4703 77.3235ZM34.4703 78.8535C33.4163 78.8535 32.606 79.0801 32.0393 79.5335C31.4613 79.9755 31.1723 80.6328 31.1723 81.5055C31.1723 82.3668 31.4613 83.0241 32.0393 83.4775C32.606 83.9308 33.4163 84.1575 34.4703 84.1575H37.0033C38.0687 84.1575 38.8903 83.9308 39.4683 83.4775C40.0463 83.0241 40.3353 82.3668 40.3353 81.5055C40.3353 80.6328 40.0463 79.9755 39.4683 79.5335C38.8903 79.0801 38.0687 78.8535 37.0033 78.8535H34.4703ZM37.0203 73.1846C38.0857 73.1846 38.9073 72.9749 39.4853 72.5556C40.052 72.1249 40.3353 71.4676 40.3353 70.5836C40.3353 70.1983 40.29 69.8186 40.1993 69.4446C40.1087 69.0706 39.95 68.6229 39.7233 68.1016L40.9813 67.6086C41.2307 68.1639 41.412 68.6909 41.5253 69.1896C41.6387 69.6883 41.6953 70.1699 41.6953 70.6346C41.6953 71.9719 41.276 72.9863 40.4373 73.6776C39.5987 74.3689 38.4597 74.7146 37.0203 74.7146H34.4703C33.031 74.7146 31.892 74.3689 31.0533 73.6776C30.2147 72.9863 29.7953 71.9719 29.7953 70.6346C29.7953 70.1699 29.852 69.6883 29.9653 69.1896C30.0787 68.6796 30.26 68.1639 30.5093 67.6426L31.7843 68.1186C31.3763 69.0366 31.1723 69.8583 31.1723 70.5836C31.1723 71.4676 31.4557 72.1249 32.0223 72.5556C32.589 72.9749 33.405 73.1846 34.4703 73.1846H37.0203ZM34.4703 57.5012H37.0033C38.4427 57.5012 39.5873 57.8639 40.4373 58.5892C41.276 59.3032 41.6953 60.3345 41.6953 61.6832C41.6953 63.0319 41.276 64.0689 40.4373 64.7942C39.5873 65.5082 38.4427 65.8652 37.0033 65.8652H34.4703C33.0423 65.8652 31.909 65.5082 31.0703 64.7942C30.2203 64.0689 29.7953 63.0319 29.7953 61.6832C29.7953 60.3345 30.2203 59.3032 31.0703 58.5892C31.909 57.8639 33.0423 57.5012 34.4703 57.5012ZM34.4703 59.0312C33.4163 59.0312 32.606 59.2579 32.0393 59.7112C31.4613 60.1532 31.1723 60.8105 31.1723 61.6832C31.1723 62.5445 31.4613 63.2019 32.0393 63.6552C32.606 64.1085 33.4163 64.3352 34.4703 64.3352H37.0033C38.0687 64.3352 38.8903 64.1085 39.4683 63.6552C40.0463 63.2019 40.3353 62.5445 40.3353 61.6832C40.3353 60.8105 40.0463 60.1532 39.4683 59.7112C38.8903 59.2579 38.0687 59.0312 37.0033 59.0312H34.4703ZM40.1483 48.0414H41.5253V54.3654H29.9653V52.8864H40.1483V48.0414ZM41.5253 39.6457L38.8393 40.5127V44.8987L41.5253 45.7657V47.2107L29.9653 43.3687V41.9747L41.5253 38.1157V39.6457ZM35.5073 43.8277L37.4963 44.4737V40.9547L35.5073 41.6007L31.9373 42.7057L35.5073 43.8277ZM31.3593 38.6475H29.9653V30.4365H31.3593V33.8025H41.5253V35.2815H31.3593V38.6475ZM40.1483 21.9571H41.5253V28.4171H29.9653V22.1271H31.3593V26.9381H34.9803V22.6371H36.3743V26.9381H40.1483V21.9571Z" fill="white"/>
</svg>
