<svg width="94" height="122" viewBox="0 0 94 122" fill="none" xmlns="http://www.w3.org/2000/svg">
<rect x="5.80121" y="12.7627" width="83.5374" height="96.3001" fill="#E87474"/>
<rect width="93.9796" height="12.7627" fill="#E87474"/>
<rect y="109.063" width="93.9796" height="12.7627" fill="#E87474"/>
<path d="M39.0008 43.2049V37.1449H33.0608V43.2049H31.3208V29.6049H33.0608V35.5049H39.0008V29.6049H40.7408V43.2049H39.0008ZM54.2331 34.9049V37.8849C54.2331 39.5782 53.8065 40.9249 52.9531 41.9249C52.1131 42.9115 50.8998 43.4049 49.3131 43.4049C47.7265 43.4049 46.5065 42.9115 45.6531 41.9249C44.8131 40.9249 44.3931 39.5782 44.3931 37.8849V34.9049C44.3931 33.2249 44.8131 31.8915 45.6531 30.9049C46.5065 29.9049 47.7265 29.4049 49.3131 29.4049C50.8998 29.4049 52.1131 29.9049 52.9531 30.9049C53.8065 31.8915 54.2331 33.2249 54.2331 34.9049ZM52.4331 34.9049C52.4331 33.6649 52.1665 32.7115 51.6331 32.0449C51.1131 31.3649 50.3398 31.0249 49.3131 31.0249C48.2998 31.0249 47.5265 31.3649 46.9931 32.0449C46.4598 32.7115 46.1931 33.6649 46.1931 34.9049V37.8849C46.1931 39.1382 46.4598 40.1049 46.9931 40.7849C47.5265 41.4649 48.2998 41.8049 49.3131 41.8049C50.3398 41.8049 51.1131 41.4649 51.6331 40.7849C52.1665 40.1049 52.4331 39.1382 52.4331 37.8849V34.9049ZM56.0233 31.2449V29.6049H65.6833V31.2449H61.7233V43.2049H59.9833V31.2449H56.0233ZM25.0496 61.9049C25.0496 63.1582 25.2963 64.1249 25.7896 64.8049C26.2963 65.4715 27.0696 65.8049 28.1096 65.8049C28.563 65.8049 29.0096 65.7515 29.4496 65.6449C29.8896 65.5382 30.4163 65.3515 31.0296 65.0849L31.6096 66.5649C30.9563 66.8582 30.3363 67.0715 29.7496 67.2049C29.163 67.3382 28.5963 67.4049 28.0496 67.4049C26.4763 67.4049 25.283 66.9115 24.4696 65.9249C23.6563 64.9382 23.2496 63.5982 23.2496 61.9049V58.9049C23.2496 57.2115 23.6563 55.8715 24.4696 54.8849C25.283 53.8982 26.4763 53.4049 28.0496 53.4049C28.5963 53.4049 29.163 53.4715 29.7496 53.6049C30.3496 53.7382 30.9563 53.9515 31.5696 54.2449L31.0096 55.7449C29.9296 55.2649 28.963 55.0249 28.1096 55.0249C27.0696 55.0249 26.2963 55.3582 25.7896 56.0249C25.2963 56.6915 25.0496 57.6515 25.0496 58.9049V61.9049ZM42.1356 67.2049V61.1449H36.1956V67.2049H34.4556V53.6049H36.1956V59.5049H42.1356V53.6049H43.8756V67.2049H42.1356ZM49.8479 67.2049H48.1079V53.6049H49.8479V67.2049ZM54.104 67.2049V53.6049H58.344C59.6507 53.6049 60.644 53.9515 61.324 54.6449C62.0173 55.3249 62.364 56.2382 62.364 57.3849V58.4449C62.364 59.5915 62.0173 60.5115 61.324 61.2049C60.644 61.8982 59.6507 62.2449 58.344 62.2449H55.844V67.2049H54.104ZM58.344 55.2449H55.844V60.6249H58.344C59.064 60.6249 59.6107 60.4315 59.984 60.0449C60.3707 59.6582 60.564 59.1249 60.564 58.4449V57.3849C60.564 56.7182 60.3707 56.1982 59.984 55.8249C59.6107 55.4382 59.064 55.2449 58.344 55.2449ZM68.1731 65.8449C69.0131 65.8449 69.6597 65.6649 70.1131 65.3049C70.5664 64.9315 70.7931 64.3915 70.7931 63.6849C70.7931 63.0982 70.6331 62.6049 70.3131 62.2049C70.0064 61.8049 69.4997 61.4982 68.7931 61.2849L67.1731 60.8049C66.1597 60.4982 65.4131 60.0382 64.9331 59.4249C64.4531 58.7982 64.2131 58.0315 64.2131 57.1249C64.2131 56.4315 64.3464 55.8049 64.6131 55.2449C64.8931 54.6849 65.3331 54.2382 65.9331 53.9049C66.5464 53.5715 67.3464 53.4049 68.3331 53.4049C68.9331 53.4049 69.5531 53.4782 70.1931 53.6249C70.8331 53.7582 71.4797 53.9782 72.1331 54.2849L71.5731 55.7849C70.9331 55.5049 70.3531 55.3049 69.8331 55.1849C69.3264 55.0515 68.8397 54.9849 68.3731 54.9849C67.6131 54.9849 67.0197 55.1449 66.5931 55.4649C66.1797 55.7715 65.9731 56.2849 65.9731 57.0049C65.9731 57.5249 66.1131 57.9649 66.3931 58.3249C66.6731 58.6715 67.1731 58.9582 67.8931 59.1849L69.5131 59.6649C71.5397 60.2649 72.5531 61.5582 72.5531 63.5449C72.5531 64.6915 72.2064 65.6249 71.5131 66.3449C70.8197 67.0515 69.7064 67.4049 68.1731 67.4049C67.5464 67.4049 66.8797 67.3315 66.1731 67.1849C65.4797 67.0249 64.7597 66.7782 64.0131 66.4449L64.5531 64.9649C65.2597 65.2849 65.8931 65.5115 66.4531 65.6449C67.0264 65.7782 67.5997 65.8449 68.1731 65.8449Z" fill="white"/>
</svg>
