<svg width="74" height="129" viewBox="0 0 74 129" fill="none" xmlns="http://www.w3.org/2000/svg">
<rect x="3.48071" y="9.28192" width="66.1338" height="107.903" fill="#9AE0C4"/>
<rect width="73.0953" height="9.28194" fill="#F1E8E8"/>
<rect y="117.184" width="73.0953" height="9.28194" fill="#F1E8E8"/>
<path d="M18.3629 80.6465L26.9309 77.1275L18.3629 73.5915V71.9085H29.9229V73.3535H24.9759L20.5219 73.1665L28.5629 76.4815V77.8755L20.4879 81.1225L24.9759 80.9355H29.9229V82.3805H18.3629V80.6465ZM29.9229 66.8068V68.2858H18.3629V66.8068H29.9229ZM29.9229 63.1891H18.3629V61.6421C19.8362 60.6107 21.3209 59.6644 22.8169 58.8031C24.3016 57.9304 25.8542 57.1144 27.4749 56.3551L23.0549 56.5251H18.3629V55.0801H29.9229V56.6271C28.2682 57.4204 26.6589 58.2421 25.0949 59.0921C23.5196 59.9307 21.9839 60.8487 20.4879 61.8461L25.1969 61.7441H29.9229V63.1891ZM19.7569 53.0328H18.3629L18.3629 44.8218H19.7569V48.1878H29.9229V49.6668H19.7569V53.0328ZM45.4179 104.794C46.4832 104.794 47.3049 104.584 47.8829 104.165C48.4496 103.734 48.7329 103.077 48.7329 102.193C48.7329 101.808 48.6876 101.428 48.5969 101.054C48.5062 100.68 48.3476 100.232 48.1209 99.711L49.3789 99.218C49.6282 99.7733 49.8096 100.3 49.9229 100.799C50.0362 101.298 50.0929 101.779 50.0929 102.244C50.0929 103.581 49.6736 104.596 48.8349 105.287C47.9962 105.978 46.8572 106.324 45.4179 106.324H42.8679C41.4286 106.324 40.2896 105.978 39.4509 105.287C38.6122 104.596 38.1929 103.581 38.1929 102.244C38.1929 101.779 38.2496 101.298 38.3629 100.799C38.4762 100.289 38.6576 99.7733 38.9069 99.252L40.1819 99.728C39.7739 100.646 39.5699 101.468 39.5699 102.193C39.5699 103.077 39.8532 103.734 40.4199 104.165C40.9866 104.584 41.8026 104.794 42.8679 104.794H45.4179ZM49.9229 90.2709H44.7719V95.3199H49.9229V96.7989H38.3629V95.3199H43.3779V90.2709H38.3629V88.7919H49.9229V90.2709ZM42.8679 77.3235H45.4009C46.8402 77.3235 47.9849 77.6861 48.8349 78.4115C49.6736 79.1255 50.0929 80.1568 50.0929 81.5055C50.0929 82.8541 49.6736 83.8911 48.8349 84.6165C47.9849 85.3305 46.8402 85.6875 45.4009 85.6875H42.8679C41.4399 85.6875 40.3066 85.3305 39.4679 84.6165C38.6179 83.8911 38.1929 82.8541 38.1929 81.5055C38.1929 80.1568 38.6179 79.1255 39.4679 78.4115C40.3066 77.6861 41.4399 77.3235 42.8679 77.3235ZM42.8679 78.8535C41.8139 78.8535 41.0036 79.0801 40.4369 79.5335C39.8589 79.9755 39.5699 80.6328 39.5699 81.5055C39.5699 82.3668 39.8589 83.0241 40.4369 83.4775C41.0036 83.9308 41.8139 84.1575 42.8679 84.1575H45.4009C46.4662 84.1575 47.2879 83.9308 47.8659 83.4775C48.4439 83.0241 48.7329 82.3668 48.7329 81.5055C48.7329 80.6328 48.4439 79.9755 47.8659 79.5335C47.2879 79.0801 46.4662 78.8535 45.4009 78.8535H42.8679ZM45.4179 73.1846C46.4832 73.1846 47.3049 72.9749 47.8829 72.5556C48.4496 72.1249 48.7329 71.4676 48.7329 70.5836C48.7329 70.1983 48.6876 69.8186 48.5969 69.4446C48.5062 69.0706 48.3476 68.6229 48.1209 68.1016L49.3789 67.6086C49.6282 68.1639 49.8096 68.6909 49.9229 69.1896C50.0362 69.6883 50.0929 70.1699 50.0929 70.6346C50.0929 71.9719 49.6736 72.9863 48.8349 73.6776C47.9962 74.3689 46.8572 74.7146 45.4179 74.7146H42.8679C41.4286 74.7146 40.2896 74.3689 39.4509 73.6776C38.6122 72.9863 38.1929 71.9719 38.1929 70.6346C38.1929 70.1699 38.2496 69.6883 38.3629 69.1896C38.4762 68.6796 38.6576 68.1639 38.9069 67.6426L40.1819 68.1186C39.7739 69.0366 39.5699 69.8583 39.5699 70.5836C39.5699 71.4676 39.8532 72.1249 40.4199 72.5556C40.9866 72.9749 41.8026 73.1846 42.8679 73.1846H45.4179ZM42.8679 57.5012H45.4009C46.8402 57.5012 47.9849 57.8639 48.8349 58.5892C49.6736 59.3032 50.0929 60.3345 50.0929 61.6832C50.0929 63.0319 49.6736 64.0689 48.8349 64.7942C47.9849 65.5082 46.8402 65.8652 45.4009 65.8652H42.8679C41.4399 65.8652 40.3066 65.5082 39.4679 64.7942C38.6179 64.0689 38.1929 63.0319 38.1929 61.6832C38.1929 60.3345 38.6179 59.3032 39.4679 58.5892C40.3066 57.8639 41.4399 57.5012 42.8679 57.5012ZM42.8679 59.0312C41.8139 59.0312 41.0036 59.2579 40.4369 59.7112C39.8589 60.1532 39.5699 60.8105 39.5699 61.6832C39.5699 62.5445 39.8589 63.2019 40.4369 63.6552C41.0036 64.1085 41.8139 64.3352 42.8679 64.3352H45.4009C46.4662 64.3352 47.2879 64.1085 47.8659 63.6552C48.4439 63.2019 48.7329 62.5445 48.7329 61.6832C48.7329 60.8105 48.4439 60.1532 47.8659 59.7112C47.2879 59.2579 46.4662 59.0312 45.4009 59.0312H42.8679ZM48.5459 48.0414H49.9229V54.3654H38.3629V52.8864H48.5459V48.0414ZM49.9229 39.6457L47.2369 40.5127V44.8987L49.9229 45.7657V47.2107L38.3629 43.3687V41.9747L49.9229 38.1157V39.6457ZM43.9049 43.8277L45.8939 44.4737L45.8939 40.9547L43.9049 41.6007L40.3349 42.7057L43.9049 43.8277ZM39.7569 38.6475H38.3629V30.4365H39.7569V33.8025H49.9229V35.2815H39.7569V38.6475ZM48.5459 21.9571H49.9229V28.4171H38.3629V22.1271H39.7569V26.9381H43.3779V22.6371H44.7719V26.9381H48.5459V21.9571Z" fill="white"/>
</svg>
