<svg width="59" height="102" viewBox="0 0 59 102" fill="none" xmlns="http://www.w3.org/2000/svg">
<rect x="-3.05176e-05" y="4.06088" width="58.0121" height="97.1703" rx="10" fill="#FB6E6E"/>
<path d="M56.3118 8.70188C56.3118 9.78796 55.6144 10.8676 54.2468 11.8887C52.8836 12.9064 50.8952 13.8336 48.4156 14.6166C43.4594 16.1817 36.5971 17.1537 29.006 17.1537C21.415 17.1537 14.5527 16.1817 9.59646 14.6166C7.1169 13.8336 5.12848 12.9064 3.76532 11.8887C2.39764 10.8676 1.70029 9.78796 1.70029 8.70188C1.70029 7.61579 2.39764 6.53618 3.76532 5.51506C5.12848 4.49732 7.1169 3.57018 9.59646 2.78716C14.5527 1.22204 21.415 0.250061 29.006 0.250061C36.5971 0.250061 43.4594 1.22204 48.4156 2.78716C50.8952 3.57018 52.8836 4.49732 54.2468 5.51506C55.6144 6.53618 56.3118 7.61579 56.3118 8.70188Z" fill="#D4D1D1" stroke="#BEBCBC" stroke-width="0.5"/>
<path d="M33.1569 8.70188C33.1569 10.2085 32.1638 11.6042 30.491 12.6336C28.8214 13.6611 26.5022 14.3031 23.9299 14.3031C21.3577 14.3031 19.0385 13.6611 17.3689 12.6336C15.696 11.6042 14.703 10.2085 14.703 8.70188C14.703 7.19527 15.696 5.79958 17.3689 4.77013C19.0385 3.74268 21.3577 3.10067 23.9299 3.10067C26.5022 3.10067 28.8214 3.74268 30.491 4.77013C32.1638 5.79958 33.1569 7.19527 33.1569 8.70188Z" fill="#D4D1D1" stroke="#BEBCBC" stroke-width="0.4"/>
<rect x="32.1066" y="4.55095" width="14.103" height="8.30182" rx="1.8" fill="#D4D1D1" stroke="#BEBCBC" stroke-width="0.4"/>
<rect x="33.557" y="6.00124" width="3.95091" height="5.40121" rx="1.8" fill="#D4D1D1" stroke="#BEBCBC" stroke-width="0.4"/>
<rect x="39.3581" y="6.00124" width="5.40121" height="5.40121" rx="1.8" fill="#D4D1D1" stroke="#BEBCBC" stroke-width="0.4"/>
<path d="M10.8645 58.0883C11.7045 58.0883 12.3512 57.9083 12.8045 57.5483C13.2579 57.1749 13.4845 56.6349 13.4845 55.9283C13.4845 55.3416 13.3245 54.8483 13.0045 54.4483C12.6979 54.0483 12.1912 53.7416 11.4845 53.5283L9.86453 53.0483C8.85119 52.7416 8.10453 52.2816 7.62453 51.6683C7.14453 51.0416 6.90453 50.2749 6.90453 49.3683C6.90453 48.6749 7.03786 48.0483 7.30453 47.4883C7.58453 46.9283 8.02453 46.4816 8.62453 46.1483C9.23786 45.8149 10.0379 45.6483 11.0245 45.6483C11.6245 45.6483 12.2445 45.7216 12.8845 45.8683C13.5245 46.0016 14.1712 46.2216 14.8245 46.5283L14.2645 48.0283C13.6245 47.7483 13.0445 47.5483 12.5245 47.4283C12.0179 47.2949 11.5312 47.2283 11.0645 47.2283C10.3045 47.2283 9.71119 47.3883 9.28453 47.7083C8.87119 48.0149 8.66453 48.5283 8.66453 49.2483C8.66453 49.7683 8.80453 50.2083 9.08453 50.5683C9.36453 50.9149 9.86453 51.2016 10.5845 51.4283L12.2045 51.9083C14.2312 52.5083 15.2445 53.8016 15.2445 55.7883C15.2445 56.9349 14.8979 57.8683 14.2045 58.5883C13.5112 59.2949 12.3979 59.6483 10.8645 59.6483C10.2379 59.6483 9.57119 59.5749 8.86453 59.4283C8.17119 59.2683 7.45119 59.0216 6.70453 58.6883L7.24453 57.2083C7.95119 57.5283 8.58453 57.7549 9.14453 57.8883C9.71786 58.0216 10.2912 58.0883 10.8645 58.0883ZM27.4617 51.1483V54.1283C27.4617 55.8216 27.035 57.1683 26.1817 58.1683C25.3417 59.1549 24.1284 59.6483 22.5417 59.6483C20.955 59.6483 19.735 59.1549 18.8817 58.1683C18.0417 57.1683 17.6217 55.8216 17.6217 54.1283V51.1483C17.6217 49.4683 18.0417 48.1349 18.8817 47.1483C19.735 46.1483 20.955 45.6483 22.5417 45.6483C24.1284 45.6483 25.3417 46.1483 26.1817 47.1483C27.035 48.1349 27.4617 49.4683 27.4617 51.1483ZM25.6617 51.1483C25.6617 49.9083 25.395 48.9549 24.8617 48.2883C24.3417 47.6083 23.5684 47.2683 22.5417 47.2683C21.5284 47.2683 20.755 47.6083 20.2217 48.2883C19.6884 48.9549 19.4217 49.9083 19.4217 51.1483V54.1283C19.4217 55.3816 19.6884 56.3483 20.2217 57.0283C20.755 57.7083 21.5284 58.0483 22.5417 58.0483C23.5684 58.0483 24.3417 57.7083 24.8617 57.0283C25.395 56.3483 25.6617 55.3816 25.6617 54.1283V51.1483ZM31.1509 59.4483V45.8483H35.3709C36.9309 45.8483 38.1309 46.3216 38.9709 47.2683C39.8109 48.2016 40.2309 49.4949 40.2309 51.1483V54.1283C40.2309 55.7949 39.8109 57.1016 38.9709 58.0483C38.1309 58.9816 36.9309 59.4483 35.3709 59.4483H31.1509ZM35.3309 47.4883H32.8909V57.8283H35.3309C37.3976 57.8283 38.4309 56.5949 38.4309 54.1283V51.1483C38.4309 48.7083 37.3976 47.4883 35.3309 47.4883ZM50.6947 59.4483L49.6747 56.2883H44.5147L43.4947 59.4483H41.7947L46.3147 45.8483H47.9547L52.4947 59.4483H50.6947ZM45.7747 52.3683L45.0147 54.7083H49.1547L48.3947 52.3683L47.0947 48.1683L45.7747 52.3683Z" fill="white"/>
</svg>
