<svg width="94" height="122" viewBox="0 0 94 122" fill="none" xmlns="http://www.w3.org/2000/svg">
<rect x="5.80124" y="12.7627" width="83.5374" height="96.3001" fill="#F3EB8F"/>
<rect width="93.9796" height="12.7627" fill="#F3EB8F"/>
<rect y="109.063" width="93.9796" height="12.7627" fill="#F3EB8F"/>
<path d="M24.3 35.7C24.3 36.9533 24.5467 37.92 25.04 38.6C25.5467 39.2667 26.32 39.6 27.36 39.6C27.8133 39.6 28.26 39.5467 28.7 39.44C29.14 39.3333 29.6667 39.1467 30.28 38.88L30.86 40.36C30.2067 40.6533 29.5867 40.8667 29 41C28.4133 41.1333 27.8467 41.2 27.3 41.2C25.7267 41.2 24.5333 40.7067 23.72 39.72C22.9067 38.7333 22.5 37.3933 22.5 35.7V32.7C22.5 31.0067 22.9067 29.6667 23.72 28.68C24.5333 27.6933 25.7267 27.2 27.3 27.2C27.8467 27.2 28.4133 27.2667 29 27.4C29.6 27.5333 30.2067 27.7467 30.82 28.04L30.26 29.54C29.18 29.06 28.2133 28.82 27.36 28.82C26.32 28.82 25.5467 29.1533 25.04 29.82C24.5467 30.4867 24.3 31.4467 24.3 32.7V35.7ZM41.3859 41V34.94H35.4459V41H33.7059V27.4H35.4459V33.3H41.3859V27.4H43.1259V41H41.3859ZM49.0983 41H47.3583V27.4H49.0983V41ZM53.3544 41V27.4H57.5944C58.901 27.4 59.8944 27.7467 60.5744 28.44C61.2677 29.12 61.6144 30.0333 61.6144 31.18V32.24C61.6144 33.3867 61.2677 34.3067 60.5744 35C59.8944 35.6933 58.901 36.04 57.5944 36.04H55.0944V41H53.3544ZM57.5944 29.04H55.0944V34.42H57.5944C58.3144 34.42 58.861 34.2267 59.2344 33.84C59.621 33.4533 59.8144 32.92 59.8144 32.24V31.18C59.8144 30.5133 59.621 29.9933 59.2344 29.62C58.861 29.2333 58.3144 29.04 57.5944 29.04ZM67.4234 39.64C68.2634 39.64 68.9101 39.46 69.3634 39.1C69.8168 38.7267 70.0434 38.1867 70.0434 37.48C70.0434 36.8933 69.8834 36.4 69.5634 36C69.2568 35.6 68.7501 35.2933 68.0434 35.08L66.4234 34.6C65.4101 34.2933 64.6634 33.8333 64.1834 33.22C63.7034 32.5933 63.4634 31.8267 63.4634 30.92C63.4634 30.2267 63.5968 29.6 63.8634 29.04C64.1434 28.48 64.5834 28.0333 65.1834 27.7C65.7968 27.3667 66.5968 27.2 67.5834 27.2C68.1834 27.2 68.8034 27.2733 69.4434 27.42C70.0834 27.5533 70.7301 27.7733 71.3834 28.08L70.8234 29.58C70.1834 29.3 69.6034 29.1 69.0834 28.98C68.5768 28.8467 68.0901 28.78 67.6234 28.78C66.8634 28.78 66.2701 28.94 65.8434 29.26C65.4301 29.5667 65.2234 30.08 65.2234 30.8C65.2234 31.32 65.3634 31.76 65.6434 32.12C65.9234 32.4667 66.4234 32.7533 67.1434 32.98L68.7634 33.46C70.7901 34.06 71.8034 35.3533 71.8034 37.34C71.8034 38.4867 71.4568 39.42 70.7634 40.14C70.0701 40.8467 68.9568 41.2 67.4234 41.2C66.7968 41.2 66.1301 41.1267 65.4234 40.98C64.7301 40.82 64.0101 40.5733 63.2634 40.24L63.8034 38.76C64.5101 39.08 65.1434 39.3067 65.7034 39.44C66.2768 39.5733 66.8501 39.64 67.4234 39.64Z" fill="white"/>
</svg>
