<svg width="56" height="56" viewBox="0 0 56 56" fill="none" xmlns="http://www.w3.org/2000/svg">
<path d="M54.1818 28.0909C54.1818 42.6009 42.4191 54.3636 27.9091 54.3636C13.3991 54.3636 1.63635 42.6009 1.63635 28.0909C1.63635 13.5808 13.3991 1.81815 27.9091 1.81815C42.4191 1.81815 54.1818 13.5808 54.1818 28.0909Z" fill="#D9D9D9" stroke="#D3D2D2" stroke-width="2"/>
<path d="M26.6164 36.3636L25.0864 31.6236H17.3464L15.8164 36.3636H13.2664L20.0464 15.9636H22.5064L29.3164 36.3636H26.6164ZM19.2364 25.7436L18.0964 29.2536H24.3064L23.1664 25.7436L21.2164 19.4436L19.2364 25.7436ZM30.5208 18.7836L35.3808 15.9636H37.7508V36.3636H35.2008V18.7236L31.6608 20.7636L30.5208 18.7836Z" fill="white"/>
</svg>
