<svg width="55" height="56" viewBox="0 0 55 56" fill="none" xmlns="http://www.w3.org/2000/svg">
<path d="M53.9999 28.0909C53.9999 42.6009 42.2372 54.3636 27.7272 54.3636C13.2172 54.3636 1.45447 42.6009 1.45447 28.0909C1.45447 13.5808 13.2172 1.81815 27.7272 1.81815C42.2372 1.81815 53.9999 13.5808 53.9999 28.0909Z" fill="#D9D9D9" stroke="#D3D2D2" stroke-width="2"/>
<path d="M24.2527 36.3636L22.7227 31.6236H14.9827L13.4527 36.3636H10.9027L17.6827 15.9636H20.1427L26.9527 36.3636H24.2527ZM16.8727 25.7436L15.7327 29.2536H21.9427L20.8027 25.7436L18.8527 19.4436L16.8727 25.7436ZM40.6372 36.3636H28.9972V34.3836C28.9972 32.8836 29.1772 31.6236 29.5372 30.6036C29.9172 29.5836 30.4172 28.7436 31.0372 28.0836C31.6772 27.4036 32.3872 26.8636 33.1672 26.4636L35.1172 25.4736C36.0372 24.9936 36.7672 24.4936 37.3072 23.9736C37.8672 23.4536 38.1472 22.7036 38.1472 21.7236V21.2136C38.1472 20.0936 37.8272 19.2836 37.1872 18.7836C36.5672 18.2836 35.6472 18.0336 34.4272 18.0336C33.7472 18.0336 33.0272 18.1236 32.2672 18.3036C31.5072 18.4636 30.6672 18.7436 29.7472 19.1436L28.9072 16.9536C29.9072 16.4936 30.8672 16.1636 31.7872 15.9636C32.7272 15.7636 33.6272 15.6636 34.4872 15.6636C36.7072 15.6636 38.2972 16.1836 39.2572 17.2236C40.2172 18.2436 40.6972 19.5736 40.6972 21.2136V21.7236C40.6972 22.8036 40.4872 23.7036 40.0672 24.4236C39.6672 25.1436 39.1272 25.7536 38.4472 26.2536C37.7872 26.7336 37.0772 27.1636 36.3172 27.5436L34.3672 28.5636C33.4272 29.0636 32.7272 29.7536 32.2672 30.6336C31.8272 31.5136 31.5872 32.6336 31.5472 33.9936H40.6372V36.3636Z" fill="white"/>
</svg>
