<svg width="55" height="56" viewBox="0 0 55 56" fill="none" xmlns="http://www.w3.org/2000/svg">
<path d="M53.8182 28.0909C53.8182 42.6009 42.0555 54.3636 27.5454 54.3636C13.0354 54.3636 1.27271 42.6009 1.27271 28.0909C1.27271 13.5808 13.0354 1.81815 27.5454 1.81815C42.0555 1.81815 53.8182 13.5808 53.8182 28.0909Z" fill="#D9D9D9" stroke="#D3D2D2" stroke-width="2"/>
<path d="M24.0709 36.3636L22.5409 31.6236H14.8009L13.2709 36.3636H10.7209L17.5009 15.9636H19.9609L26.7709 36.3636H24.0709ZM16.6909 25.7436L15.5509 29.2536H21.7609L20.6209 25.7436L18.6709 19.4436L16.6909 25.7436ZM40.3654 31.0536C40.3654 32.6936 39.8554 34.0436 38.8354 35.1036C37.8154 36.1436 36.1754 36.6636 33.9154 36.6636C33.0154 36.6636 32.0754 36.5636 31.0954 36.3636C30.1354 36.1436 29.1354 35.8036 28.0954 35.3436L28.8754 33.1836C29.8754 33.5836 30.7654 33.8736 31.5454 34.0536C32.3454 34.2336 33.1154 34.3236 33.8554 34.3236C35.0954 34.3236 36.0554 34.0636 36.7354 33.5436C37.4354 33.0236 37.7854 32.1736 37.7854 30.9936V30.5136C37.7854 29.5136 37.4954 28.7136 36.9154 28.1136C36.3354 27.5136 35.4454 27.2136 34.2454 27.2136H31.2454V24.9336H34.2454C35.3854 24.9336 36.2254 24.6536 36.7654 24.0936C37.3054 23.5136 37.5754 22.7336 37.5754 21.7536V21.3336C37.5754 20.1536 37.2554 19.3136 36.6154 18.8136C35.9754 18.2936 35.0854 18.0336 33.9454 18.0336C33.2454 18.0336 32.5254 18.1236 31.7854 18.3036C31.0454 18.4636 30.2054 18.7436 29.2654 19.1436L28.4254 16.9536C29.4254 16.4936 30.3854 16.1636 31.3054 15.9636C32.2454 15.7636 33.1454 15.6636 34.0054 15.6636C36.1654 15.6636 37.7354 16.1836 38.7154 17.2236C39.6954 18.2636 40.1854 19.6136 40.1854 21.2736V21.6936C40.1854 22.6936 39.9454 23.5736 39.4654 24.3336C38.9854 25.0736 38.3354 25.6536 37.5154 26.0736C38.3954 26.4736 39.0854 27.0636 39.5854 27.8436C40.1054 28.6036 40.3654 29.5136 40.3654 30.5736V31.0536Z" fill="white"/>
</svg>
