<svg width="56" height="55" viewBox="0 0 56 55" fill="none" xmlns="http://www.w3.org/2000/svg">
<path d="M54.1818 27.4545C54.1818 41.9645 42.4191 53.7272 27.9091 53.7272C13.3991 53.7272 1.63635 41.9645 1.63635 27.4545C1.63635 12.9445 13.3991 1.18178 27.9091 1.18178C42.4191 1.18178 54.1818 12.9445 54.1818 27.4545Z" fill="#D9D9D9" stroke="#D3D2D2" stroke-width="2"/>
<path d="M15.8164 35.7273V15.3273H21.8164C23.7764 15.3273 25.2164 15.8073 26.1364 16.7673C27.0764 17.7073 27.5464 18.9773 27.5464 20.5773V21.2373C27.5464 22.1173 27.3464 22.8973 26.9464 23.5773C26.5464 24.2573 25.9664 24.7973 25.2064 25.1973C26.2664 25.5373 27.0664 26.0973 27.6064 26.8773C28.1664 27.6373 28.4464 28.5573 28.4464 29.6373V30.2973C28.4464 31.9373 27.9664 33.2573 27.0064 34.2573C26.0664 35.2373 24.5864 35.7273 22.5664 35.7273H15.8164ZM21.8164 17.7273H18.4264V24.1773H21.8164C22.8164 24.1773 23.5664 23.9273 24.0664 23.4273C24.5864 22.9073 24.8464 22.1973 24.8464 21.2973V20.5773C24.8464 19.6973 24.5864 19.0073 24.0664 18.5073C23.5664 17.9873 22.8164 17.7273 21.8164 17.7273ZM22.5664 26.5773H18.4264V33.3573H22.5664C23.6264 33.3573 24.4164 33.0873 24.9364 32.5473C25.4764 32.0073 25.7464 31.2573 25.7464 30.2973V29.5773C25.7464 28.6573 25.4764 27.9273 24.9364 27.3873C24.4164 26.8473 23.6264 26.5773 22.5664 26.5773ZM30.7552 18.1473L35.6152 15.3273H37.9852V35.7273H35.4352V18.0873L31.8952 20.1273L30.7552 18.1473Z" fill="white"/>
</svg>
