<svg width="55" height="55" viewBox="0 0 55 55" fill="none" xmlns="http://www.w3.org/2000/svg">
<path d="M53.9999 27.4545C53.9999 41.9645 42.2372 53.7272 27.7272 53.7272C13.2172 53.7272 1.45447 41.9645 1.45447 27.4545C1.45447 12.9445 13.2172 1.18178 27.7272 1.18178C42.2372 1.18178 53.9999 12.9445 53.9999 27.4545Z" fill="#D9D9D9" stroke="#D3D2D2" stroke-width="2"/>
<path d="M13.4527 35.7273V15.3273H19.4527C21.4127 15.3273 22.8527 15.8073 23.7727 16.7673C24.7127 17.7073 25.1827 18.9773 25.1827 20.5773V21.2373C25.1827 22.1173 24.9827 22.8973 24.5827 23.5773C24.1827 24.2573 23.6027 24.7973 22.8427 25.1973C23.9027 25.5373 24.7027 26.0973 25.2427 26.8773C25.8027 27.6373 26.0827 28.5573 26.0827 29.6373V30.2973C26.0827 31.9373 25.6027 33.2573 24.6427 34.2573C23.7027 35.2373 22.2227 35.7273 20.2027 35.7273H13.4527ZM19.4527 17.7273H16.0627V24.1773H19.4527C20.4527 24.1773 21.2027 23.9273 21.7027 23.4273C22.2227 22.9073 22.4827 22.1973 22.4827 21.2973V20.5773C22.4827 19.6973 22.2227 19.0073 21.7027 18.5073C21.2027 17.9873 20.4527 17.7273 19.4527 17.7273ZM20.2027 26.5773H16.0627V33.3573H20.2027C21.2627 33.3573 22.0527 33.0873 22.5727 32.5473C23.1127 32.0073 23.3827 31.2573 23.3827 30.2973V29.5773C23.3827 28.6573 23.1127 27.9273 22.5727 27.3873C22.0527 26.8473 21.2627 26.5773 20.2027 26.5773ZM40.8715 35.7273H29.2315V33.7473C29.2315 32.2473 29.4115 30.9873 29.7715 29.9673C30.1515 28.9473 30.6515 28.1073 31.2715 27.4473C31.9115 26.7673 32.6215 26.2273 33.4015 25.8273L35.3515 24.8373C36.2715 24.3573 37.0015 23.8573 37.5415 23.3373C38.1015 22.8173 38.3815 22.0673 38.3815 21.0873V20.5773C38.3815 19.4573 38.0615 18.6473 37.4215 18.1473C36.8015 17.6473 35.8815 17.3973 34.6615 17.3973C33.9815 17.3973 33.2615 17.4873 32.5015 17.6673C31.7415 17.8273 30.9015 18.1073 29.9815 18.5073L29.1415 16.3173C30.1415 15.8573 31.1015 15.5273 32.0215 15.3273C32.9615 15.1273 33.8615 15.0273 34.7215 15.0273C36.9415 15.0273 38.5315 15.5473 39.4915 16.5873C40.4515 17.6073 40.9315 18.9373 40.9315 20.5773V21.0873C40.9315 22.1673 40.7215 23.0673 40.3015 23.7873C39.9015 24.5073 39.3615 25.1173 38.6815 25.6173C38.0215 26.0973 37.3115 26.5273 36.5515 26.9073L34.6015 27.9273C33.6615 28.4273 32.9615 29.1173 32.5015 29.9973C32.0615 30.8773 31.8215 31.9973 31.7815 33.3573H40.8715V35.7273Z" fill="white"/>
</svg>
