<svg width="55" height="55" viewBox="0 0 55 55" fill="none" xmlns="http://www.w3.org/2000/svg">
<path d="M53.8182 27.4545C53.8182 41.9645 42.0555 53.7272 27.5454 53.7272C13.0354 53.7272 1.27271 41.9645 1.27271 27.4545C1.27271 12.9445 13.0354 1.18178 27.5454 1.18178C42.0555 1.18178 53.8182 12.9445 53.8182 27.4545Z" fill="#D9D9D9" stroke="#D3D2D2" stroke-width="2"/>
<path d="M13.2709 35.7273V15.3273H19.2709C21.2309 15.3273 22.6709 15.8073 23.5909 16.7673C24.5309 17.7073 25.0009 18.9773 25.0009 20.5773V21.2373C25.0009 22.1173 24.8009 22.8973 24.4009 23.5773C24.0009 24.2573 23.4209 24.7973 22.6609 25.1973C23.7209 25.5373 24.5209 26.0973 25.0609 26.8773C25.6209 27.6373 25.9009 28.5573 25.9009 29.6373V30.2973C25.9009 31.9373 25.4209 33.2573 24.4609 34.2573C23.5209 35.2373 22.0409 35.7273 20.0209 35.7273H13.2709ZM19.2709 17.7273H15.8809V24.1773H19.2709C20.2709 24.1773 21.0209 23.9273 21.5209 23.4273C22.0409 22.9073 22.3009 22.1973 22.3009 21.2973V20.5773C22.3009 19.6973 22.0409 19.0073 21.5209 18.5073C21.0209 17.9873 20.2709 17.7273 19.2709 17.7273ZM20.0209 26.5773H15.8809V33.3573H20.0209C21.0809 33.3573 21.8709 33.0873 22.3909 32.5473C22.9309 32.0073 23.2009 31.2573 23.2009 30.2973V29.5773C23.2009 28.6573 22.9309 27.9273 22.3909 27.3873C21.8709 26.8473 21.0809 26.5773 20.0209 26.5773ZM40.5998 30.4173C40.5998 32.0573 40.0898 33.4073 39.0698 34.4673C38.0498 35.5073 36.4098 36.0273 34.1498 36.0273C33.2498 36.0273 32.3098 35.9273 31.3298 35.7273C30.3698 35.5073 29.3698 35.1673 28.3298 34.7073L29.1098 32.5473C30.1098 32.9473 30.9998 33.2373 31.7798 33.4173C32.5798 33.5973 33.3498 33.6873 34.0898 33.6873C35.3298 33.6873 36.2898 33.4273 36.9698 32.9073C37.6698 32.3873 38.0198 31.5373 38.0198 30.3573V29.8773C38.0198 28.8773 37.7298 28.0773 37.1498 27.4773C36.5698 26.8773 35.6798 26.5773 34.4798 26.5773H31.4798V24.2973H34.4798C35.6198 24.2973 36.4598 24.0173 36.9998 23.4573C37.5398 22.8773 37.8098 22.0973 37.8098 21.1173V20.6973C37.8098 19.5173 37.4898 18.6773 36.8498 18.1773C36.2098 17.6573 35.3198 17.3973 34.1798 17.3973C33.4798 17.3973 32.7598 17.4873 32.0198 17.6673C31.2798 17.8273 30.4398 18.1073 29.4998 18.5073L28.6598 16.3173C29.6598 15.8573 30.6198 15.5273 31.5398 15.3273C32.4798 15.1273 33.3798 15.0273 34.2398 15.0273C36.3998 15.0273 37.9698 15.5473 38.9498 16.5873C39.9298 17.6273 40.4198 18.9773 40.4198 20.6373V21.0573C40.4198 22.0573 40.1798 22.9373 39.6998 23.6973C39.2198 24.4373 38.5698 25.0173 37.7498 25.4373C38.6298 25.8373 39.3198 26.4273 39.8198 27.2073C40.3398 27.9673 40.5998 28.8773 40.5998 29.9373V30.4173Z" fill="white"/>
</svg>
