<svg width="110" height="38" viewBox="0 0 110 38" fill="none" xmlns="http://www.w3.org/2000/svg">
<rect x="1.18182" y="1.90909" width="107.091" height="34.3636" rx="7" fill="#D9D9D9" stroke="#D3D2D2" stroke-width="2"/>
<path d="M34.3622 27.0909V10.7709H39.1622C40.7302 10.7709 41.8822 11.1549 42.6182 11.9229C43.3702 12.6749 43.7462 13.6909 43.7462 14.9709V15.4989C43.7462 16.2029 43.5862 16.8269 43.2662 17.3709C42.9462 17.9149 42.4822 18.3469 41.8742 18.6669C42.7222 18.9389 43.3622 19.3869 43.7942 20.0109C44.2422 20.6189 44.4662 21.3549 44.4662 22.2189V22.7469C44.4662 24.0589 44.0822 25.1149 43.3142 25.9149C42.5622 26.6989 41.3782 27.0909 39.7622 27.0909H34.3622ZM39.1622 12.6909H36.4502V17.8509H39.1622C39.9622 17.8509 40.5622 17.6509 40.9622 17.2509C41.3782 16.8349 41.5862 16.2669 41.5862 15.5469V14.9709C41.5862 14.2669 41.3782 13.7149 40.9622 13.3149C40.5622 12.8989 39.9622 12.6909 39.1622 12.6909ZM39.7622 19.7709H36.4502V25.1949H39.7622C40.6102 25.1949 41.2422 24.9789 41.6582 24.5469C42.0902 24.1149 42.3062 23.5149 42.3062 22.7469V22.1709C42.3062 21.4349 42.0902 20.8509 41.6582 20.4189C41.2422 19.9869 40.6102 19.7709 39.7622 19.7709ZM48.0652 10.7709H50.2252V21.2349C50.2252 22.5469 50.4972 23.5709 51.0412 24.3069C51.6012 25.0429 52.4652 25.4109 53.6332 25.4109C54.8172 25.4109 55.6812 25.0429 56.2252 24.3069C56.7692 23.5709 57.0412 22.5469 57.0412 21.2349V10.7709H59.2012V21.2349C59.2012 23.1389 58.7372 24.6349 57.8092 25.7229C56.8812 26.7949 55.4892 27.3309 53.6332 27.3309C51.7612 27.3309 50.3612 26.7949 49.4332 25.7229C48.5212 24.6349 48.0652 23.1389 48.0652 21.2349V10.7709ZM73.7557 10.7709L68.7637 20.5629V27.0909H66.6757V20.5629L61.6597 10.7709H63.9157L67.8277 18.4989L71.5957 10.7709H73.7557Z" fill="white"/>
</svg>
