<svg width="56" height="56" viewBox="0 0 56 56" fill="none" xmlns="http://www.w3.org/2000/svg">
<path d="M54.1818 27.8181C54.1818 42.3282 42.4191 54.0909 27.9091 54.0909C13.3991 54.0909 1.63635 42.3282 1.63635 27.8181C1.63635 13.3081 13.3991 1.54541 27.9091 1.54541C42.4191 1.54541 54.1818 13.3081 54.1818 27.8181Z" fill="#D9D9D9" stroke="#D3D2D2" stroke-width="2"/>
<path d="M17.5864 28.1409C17.5864 30.0209 17.9564 31.4709 18.6964 32.4909C19.4564 33.4909 20.6164 33.9909 22.1764 33.9909C22.8564 33.9909 23.5264 33.9109 24.1864 33.7509C24.8464 33.5909 25.6364 33.3109 26.5564 32.9109L27.4264 35.1309C26.4464 35.5709 25.5164 35.8909 24.6364 36.0909C23.7564 36.2909 22.9064 36.3909 22.0864 36.3909C19.7264 36.3909 17.9364 35.6509 16.7164 34.1709C15.4964 32.6909 14.8864 30.6809 14.8864 28.1409V23.6409C14.8864 21.1009 15.4964 19.0909 16.7164 17.6109C17.9364 16.1309 19.7264 15.3909 22.0864 15.3909C22.9064 15.3909 23.7564 15.4909 24.6364 15.6909C25.5364 15.8909 26.4464 16.2109 27.3664 16.6509L26.5264 18.9009C24.9064 18.1809 23.4564 17.8209 22.1764 17.8209C20.6164 17.8209 19.4564 18.3209 18.6964 19.3209C17.9564 20.3209 17.5864 21.7609 17.5864 23.6409V28.1409ZM29.0853 18.5109L33.9453 15.6909H36.3153V36.0909H33.7653V18.4509L30.2253 20.4909L29.0853 18.5109Z" fill="white"/>
</svg>
