<svg width="55" height="56" viewBox="0 0 55 56" fill="none" xmlns="http://www.w3.org/2000/svg">
<path d="M53.9999 27.8181C53.9999 42.3282 42.2372 54.0909 27.7272 54.0909C13.2172 54.0909 1.45447 42.3282 1.45447 27.8181C1.45447 13.3081 13.2172 1.54541 27.7272 1.54541C42.2372 1.54541 53.9999 13.3081 53.9999 27.8181Z" fill="#D9D9D9" stroke="#D3D2D2" stroke-width="2"/>
<path d="M15.2227 28.1409C15.2227 30.0209 15.5927 31.4709 16.3327 32.4909C17.0927 33.4909 18.2527 33.9909 19.8127 33.9909C20.4927 33.9909 21.1627 33.9109 21.8227 33.7509C22.4827 33.5909 23.2727 33.3109 24.1927 32.9109L25.0627 35.1309C24.0827 35.5709 23.1527 35.8909 22.2727 36.0909C21.3927 36.2909 20.5427 36.3909 19.7227 36.3909C17.3627 36.3909 15.5727 35.6509 14.3527 34.1709C13.1327 32.6909 12.5227 30.6809 12.5227 28.1409V23.6409C12.5227 21.1009 13.1327 19.0909 14.3527 17.6109C15.5727 16.1309 17.3627 15.3909 19.7227 15.3909C20.5427 15.3909 21.3927 15.4909 22.2727 15.6909C23.1727 15.8909 24.0827 16.2109 25.0027 16.6509L24.1627 18.9009C22.5427 18.1809 21.0927 17.8209 19.8127 17.8209C18.2527 17.8209 17.0927 18.3209 16.3327 19.3209C15.5927 20.3209 15.2227 21.7609 15.2227 23.6409V28.1409ZM39.2016 36.0909H27.5616V34.1109C27.5616 32.6109 27.7416 31.3509 28.1016 30.3309C28.4816 29.3109 28.9816 28.4709 29.6016 27.8109C30.2416 27.1309 30.9516 26.5909 31.7316 26.1909L33.6816 25.2009C34.6016 24.7209 35.3316 24.2209 35.8716 23.7009C36.4316 23.1809 36.7116 22.4309 36.7116 21.4509V20.9409C36.7116 19.8209 36.3916 19.0109 35.7516 18.5109C35.1316 18.0109 34.2116 17.7609 32.9916 17.7609C32.3116 17.7609 31.5916 17.8509 30.8316 18.0309C30.0716 18.1909 29.2316 18.4709 28.3116 18.8709L27.4716 16.6809C28.4716 16.2209 29.4316 15.8909 30.3516 15.6909C31.2916 15.4909 32.1916 15.3909 33.0516 15.3909C35.2716 15.3909 36.8616 15.9109 37.8216 16.9509C38.7816 17.9709 39.2616 19.3009 39.2616 20.9409V21.4509C39.2616 22.5309 39.0516 23.4309 38.6316 24.1509C38.2316 24.8709 37.6916 25.4809 37.0116 25.9809C36.3516 26.4609 35.6416 26.8909 34.8816 27.2709L32.9316 28.2909C31.9916 28.7909 31.2916 29.4809 30.8316 30.3609C30.3916 31.2409 30.1516 32.3609 30.1116 33.7209H39.2016V36.0909Z" fill="white"/>
</svg>
