<svg width="55" height="56" viewBox="0 0 55 56" fill="none" xmlns="http://www.w3.org/2000/svg">
<path d="M53.8182 27.8181C53.8182 42.3282 42.0555 54.0909 27.5454 54.0909C13.0354 54.0909 1.27271 42.3282 1.27271 27.8181C1.27271 13.3081 13.0354 1.54541 27.5454 1.54541C42.0555 1.54541 53.8182 13.3081 53.8182 27.8181Z" fill="#D9D9D9" stroke="#D3D2D2" stroke-width="2"/>
<path d="M15.0409 28.1409C15.0409 30.0209 15.4109 31.4709 16.1509 32.4909C16.9109 33.4909 18.0709 33.9909 19.6309 33.9909C20.3109 33.9909 20.9809 33.9109 21.6409 33.7509C22.3009 33.5909 23.0909 33.3109 24.0109 32.9109L24.8809 35.1309C23.9009 35.5709 22.9709 35.8909 22.0909 36.0909C21.2109 36.2909 20.3609 36.3909 19.5409 36.3909C17.1809 36.3909 15.3909 35.6509 14.1709 34.1709C12.9509 32.6909 12.3409 30.6809 12.3409 28.1409V23.6409C12.3409 21.1009 12.9509 19.0909 14.1709 17.6109C15.3909 16.1309 17.1809 15.3909 19.5409 15.3909C20.3609 15.3909 21.2109 15.4909 22.0909 15.6909C22.9909 15.8909 23.9009 16.2109 24.8209 16.6509L23.9809 18.9009C22.3609 18.1809 20.9109 17.8209 19.6309 17.8209C18.0709 17.8209 16.9109 18.3209 16.1509 19.3209C15.4109 20.3209 15.0409 21.7609 15.0409 23.6409V28.1409ZM38.9298 30.7809C38.9298 32.4209 38.4198 33.7709 37.3998 34.8309C36.3798 35.8709 34.7398 36.3909 32.4798 36.3909C31.5798 36.3909 30.6398 36.2909 29.6598 36.0909C28.6998 35.8709 27.6998 35.5309 26.6598 35.0709L27.4398 32.9109C28.4398 33.3109 29.3298 33.6009 30.1098 33.7809C30.9098 33.9609 31.6798 34.0509 32.4198 34.0509C33.6598 34.0509 34.6198 33.7909 35.2998 33.2709C35.9998 32.7509 36.3498 31.9009 36.3498 30.7209V30.2409C36.3498 29.2409 36.0598 28.4409 35.4798 27.8409C34.8998 27.2409 34.0098 26.9409 32.8098 26.9409H29.8098V24.6609H32.8098C33.9498 24.6609 34.7898 24.3809 35.3298 23.8209C35.8698 23.2409 36.1398 22.4609 36.1398 21.4809V21.0609C36.1398 19.8809 35.8198 19.0409 35.1798 18.5409C34.5398 18.0209 33.6498 17.7609 32.5098 17.7609C31.8098 17.7609 31.0898 17.8509 30.3498 18.0309C29.6098 18.1909 28.7698 18.4709 27.8298 18.8709L26.9898 16.6809C27.9898 16.2209 28.9498 15.8909 29.8698 15.6909C30.8098 15.4909 31.7098 15.3909 32.5698 15.3909C34.7298 15.3909 36.2998 15.9109 37.2798 16.9509C38.2598 17.9909 38.7498 19.3409 38.7498 21.0009V21.4209C38.7498 22.4209 38.5098 23.3009 38.0298 24.0609C37.5498 24.8009 36.8998 25.3809 36.0798 25.8009C36.9598 26.2009 37.6498 26.7909 38.1498 27.5709C38.6698 28.3309 38.9298 29.2409 38.9298 30.3009V30.7809Z" fill="white"/>
</svg>
