<svg width="95" height="95" viewBox="0 0 95 95" fill="none" xmlns="http://www.w3.org/2000/svg">
<circle cx="47.5" cy="47.5" r="46" fill="#AEB8AE" stroke="#7E8D82" stroke-width="3"/>
<path d="M14.3 49.7C14.3 50.9533 14.5467 51.92 15.04 52.6C15.5467 53.2667 16.32 53.6 17.36 53.6C17.8133 53.6 18.26 53.5467 18.7 53.44C19.14 53.3333 19.6667 53.1467 20.28 52.88L20.86 54.36C20.2067 54.6533 19.5867 54.8667 19 55C18.4133 55.1333 17.8467 55.2 17.3 55.2C15.7267 55.2 14.5333 54.7067 13.72 53.72C12.9067 52.7333 12.5 51.3933 12.5 49.7V46.7C12.5 45.0067 12.9067 43.6667 13.72 42.68C14.5333 41.6933 15.7267 41.2 17.3 41.2C17.8467 41.2 18.4133 41.2667 19 41.4C19.6 41.5333 20.2067 41.7467 20.82 42.04L20.26 43.54C19.18 43.06 18.2133 42.82 17.36 42.82C16.32 42.82 15.5467 43.1533 15.04 43.82C14.5467 44.4867 14.3 45.4467 14.3 46.7V49.7ZM32.7511 46.7V49.68C32.7511 51.3733 32.3244 52.72 31.4711 53.72C30.6311 54.7067 29.4178 55.2 27.8311 55.2C26.2444 55.2 25.0244 54.7067 24.1711 53.72C23.3311 52.72 22.9111 51.3733 22.9111 49.68V46.7C22.9111 45.02 23.3311 43.6867 24.1711 42.7C25.0244 41.7 26.2444 41.2 27.8311 41.2C29.4178 41.2 30.6311 41.7 31.4711 42.7C32.3244 43.6867 32.7511 45.02 32.7511 46.7ZM30.9511 46.7C30.9511 45.46 30.6844 44.5067 30.1511 43.84C29.6311 43.16 28.8578 42.82 27.8311 42.82C26.8178 42.82 26.0444 43.16 25.5111 43.84C24.9778 44.5067 24.7111 45.46 24.7111 46.7V49.68C24.7111 50.9333 24.9778 51.9 25.5111 52.58C26.0444 53.26 26.8178 53.6 27.8311 53.6C28.8578 53.6 29.6311 53.26 30.1511 52.58C30.6844 51.9 30.9511 50.9333 30.9511 49.68V46.7ZM43.8803 53.38V55H36.4403V41.4H38.1803V53.38H43.8803ZM53.9975 53.38V55H46.5575V41.4H48.2975V53.38H53.9975ZM64.2747 53.38V55H56.6747V41.4H64.0747V43.04H58.4147V47.3H63.4747V48.94H58.4147V53.38H64.2747ZM68.4797 49.7C68.4797 50.9533 68.7264 51.92 69.2197 52.6C69.7264 53.2667 70.4997 53.6 71.5397 53.6C71.993 53.6 72.4397 53.5467 72.8797 53.44C73.3197 53.3333 73.8464 53.1467 74.4597 52.88L75.0397 54.36C74.3864 54.6533 73.7664 54.8667 73.1797 55C72.593 55.1333 72.0264 55.2 71.4797 55.2C69.9064 55.2 68.713 54.7067 67.8997 53.72C67.0864 52.7333 66.6797 51.3933 66.6797 49.7V46.7C66.6797 45.0067 67.0864 43.6667 67.8997 42.68C68.713 41.6933 69.9064 41.2 71.4797 41.2C72.0264 41.2 72.593 41.2667 73.1797 41.4C73.7797 41.5333 74.3864 41.7467 74.9997 42.04L74.4397 43.54C73.3597 43.06 72.393 42.82 71.5397 42.82C70.4997 42.82 69.7264 43.1533 69.2197 43.82C68.7264 44.4867 68.4797 45.4467 68.4797 46.7V49.7ZM76.0256 43.04V41.4H85.6856V43.04H81.7256V55H79.9856V43.04H76.0256Z" fill="white"/>
</svg>
