<svg width="311" height="125" viewBox="0 0 311 125" fill="none" xmlns="http://www.w3.org/2000/svg">
<rect x="2.5" y="2.5" width="306" height="120" rx="20.5" fill="#859B88" stroke="#5E8C68" stroke-width="5"/>
<path d="M39.29 33.11C39.29 34.7393 39.6107 35.996 40.252 36.88C40.9107 37.7467 41.916 38.18 43.268 38.18C43.8573 38.18 44.438 38.1107 45.01 37.972C45.582 37.8333 46.2667 37.5907 47.064 37.244L47.818 39.168C46.9687 39.5493 46.1627 39.8267 45.4 40C44.6373 40.1733 43.9007 40.26 43.19 40.26C41.1447 40.26 39.5933 39.6187 38.536 38.336C37.4787 37.0533 36.95 35.3113 36.95 33.11V29.21C36.95 27.0087 37.4787 25.2667 38.536 23.984C39.5933 22.7013 41.1447 22.06 43.19 22.06C43.9007 22.06 44.6373 22.1467 45.4 22.32C46.18 22.4933 46.9687 22.7707 47.766 23.152L47.038 25.102C45.634 24.478 44.3773 24.166 43.268 24.166C41.916 24.166 40.9107 24.5993 40.252 25.466C39.6107 26.3327 39.29 27.5807 39.29 29.21V33.11ZM63.2764 29.21V33.084C63.2764 35.2853 62.7218 37.036 61.6124 38.336C60.5204 39.6187 58.9431 40.26 56.8804 40.26C54.8178 40.26 53.2318 39.6187 52.1224 38.336C51.0304 37.036 50.4844 35.2853 50.4844 33.084V29.21C50.4844 27.026 51.0304 25.2927 52.1224 24.01C53.2318 22.71 54.8178 22.06 56.8804 22.06C58.9431 22.06 60.5204 22.71 61.6124 24.01C62.7218 25.2927 63.2764 27.026 63.2764 29.21ZM60.9364 29.21C60.9364 27.598 60.5898 26.3587 59.8964 25.492C59.2204 24.608 58.2151 24.166 56.8804 24.166C55.5631 24.166 54.5578 24.608 53.8644 25.492C53.1711 26.3587 52.8244 27.598 52.8244 29.21V33.084C52.8244 34.7133 53.1711 35.97 53.8644 36.854C54.5578 37.738 55.5631 38.18 56.8804 38.18C58.2151 38.18 59.2204 37.738 59.8964 36.854C60.5898 35.97 60.9364 34.7133 60.9364 33.084V29.21ZM77.7444 37.894V40H68.0724V22.32H70.3344V37.894H77.7444ZM90.8968 37.894V40H81.2248V22.32H83.4868V37.894H90.8968ZM104.257 37.894V40H94.3771V22.32H103.997V24.452H96.6391V29.99H103.217V32.122H96.6391V37.894H104.257ZM109.724 33.11C109.724 34.7393 110.044 35.996 110.686 36.88C111.344 37.7467 112.35 38.18 113.702 38.18C114.291 38.18 114.872 38.1107 115.444 37.972C116.016 37.8333 116.7 37.5907 117.498 37.244L118.252 39.168C117.402 39.5493 116.596 39.8267 115.834 40C115.071 40.1733 114.334 40.26 113.624 40.26C111.578 40.26 110.027 39.6187 108.97 38.336C107.912 37.0533 107.384 35.3113 107.384 33.11V29.21C107.384 27.0087 107.912 25.2667 108.97 23.984C110.027 22.7013 111.578 22.06 113.624 22.06C114.334 22.06 115.071 22.1467 115.834 22.32C116.614 22.4933 117.402 22.7707 118.2 23.152L117.472 25.102C116.068 24.478 114.811 24.166 113.702 24.166C112.35 24.166 111.344 24.5993 110.686 25.466C110.044 26.3327 109.724 27.5807 109.724 29.21V33.11ZM119.533 24.452V22.32H132.091V24.452H126.943V40H124.681V24.452H119.533ZM145.06 37.894V40H135.18V22.32H144.8V24.452H137.442V29.99H144.02V32.122H137.442V37.894H145.06ZM148.992 40V22.32H154.478C156.506 22.32 158.066 22.9353 159.158 24.166C160.25 25.3793 160.796 27.0607 160.796 29.21V33.084C160.796 35.2507 160.25 36.9493 159.158 38.18C158.066 39.3933 156.506 40 154.478 40H148.992ZM154.426 24.452H151.254V37.894H154.426C157.113 37.894 158.456 36.2907 158.456 33.084V29.21C158.456 26.038 157.113 24.452 154.426 24.452ZM173.471 33.084V40H171.209V22.32H176.747C178.411 22.32 179.694 22.762 180.595 23.646C181.514 24.5127 181.973 25.674 181.973 27.13V28.248C181.973 29.288 181.73 30.1893 181.245 30.952C180.777 31.7147 180.101 32.278 179.217 32.642C179.962 33.838 180.656 35.0513 181.297 36.282C181.938 37.5127 182.528 38.752 183.065 40H180.465C179.477 37.6427 178.324 35.3373 177.007 33.084H173.471ZM176.747 24.4H173.471V31.004H176.747C177.631 31.004 178.333 30.7613 178.853 30.276C179.373 29.7733 179.633 29.0973 179.633 28.248V27.13C179.633 26.2633 179.373 25.596 178.853 25.128C178.333 24.6427 177.631 24.4 176.747 24.4ZM196.704 37.894V40H186.824V22.32H196.444V24.452H189.086V29.99H195.664V32.122H189.086V37.894H196.704ZM211.999 22.32L206.357 40H204.069L198.401 22.32H200.793L203.601 31.29L205.291 36.958L207.007 31.264L209.763 22.32H211.999ZM225.167 37.894V40H215.287V22.32H224.907V24.452H217.549V29.99H224.127V32.122H217.549V37.894H225.167ZM229.1 40V22.32H231.466C233.043 24.5733 234.49 26.844 235.808 29.132C237.142 31.4027 238.39 33.7773 239.552 36.256L239.292 29.496V22.32H241.502V40H239.136C237.922 37.4693 236.666 35.008 235.366 32.616C234.083 30.2067 232.679 27.858 231.154 25.57L231.31 32.772V40H229.1ZM246.687 22.32H249.027V33.656C249.027 35.0773 249.322 36.1867 249.911 36.984C250.518 37.7813 251.454 38.18 252.719 38.18C254.002 38.18 254.938 37.7813 255.527 36.984C256.116 36.1867 256.411 35.0773 256.411 33.656V22.32H258.751V33.656C258.751 35.7187 258.248 37.3393 257.243 38.518C256.238 39.6793 254.73 40.26 252.719 40.26C250.691 40.26 249.174 39.6793 248.169 38.518C247.181 37.3393 246.687 35.7187 246.687 33.656V22.32ZM273.79 37.894V40H263.91V22.32H273.53V24.452H266.172V29.99H272.75V32.122H266.172V37.894H273.79Z" fill="#43E534"/>
</svg>
