<svg width="246" height="77" viewBox="0 0 246 77" fill="none" xmlns="http://www.w3.org/2000/svg">
<rect x="1.5" y="1.5" width="243" height="74" rx="22.5" fill="#D9D9D9" stroke="#BBD0CA" stroke-width="3"/>
<path d="M66.125 40.375C66.125 41.9417 66.4333 43.15 67.05 44C67.6833 44.8333 68.65 45.25 69.95 45.25C70.5167 45.25 71.075 45.1833 71.625 45.05C72.175 44.9167 72.8333 44.6833 73.6 44.35L74.325 46.2C73.5083 46.5667 72.7333 46.8333 72 47C71.2667 47.1667 70.5583 47.25 69.875 47.25C67.9083 47.25 66.4167 46.6333 65.4 45.4C64.3833 44.1667 63.875 42.4917 63.875 40.375V36.625C63.875 34.5083 64.3833 32.8333 65.4 31.6C66.4167 30.3667 67.9083 29.75 69.875 29.75C70.5583 29.75 71.2667 29.8333 72 30C72.75 30.1667 73.5083 30.4333 74.275 30.8L73.575 32.675C72.225 32.075 71.0167 31.775 69.95 31.775C68.65 31.775 67.6833 32.1917 67.05 33.025C66.4333 33.8583 66.125 35.0583 66.125 36.625V40.375ZM77.4836 30H79.7336V40.9C79.7336 42.2667 80.0169 43.3333 80.5836 44.1C81.1669 44.8667 82.0669 45.25 83.2836 45.25C84.5169 45.25 85.4169 44.8667 85.9836 44.1C86.5503 43.3333 86.8336 42.2667 86.8336 40.9V30H89.0836V40.9C89.0836 42.8833 88.6003 44.4417 87.6336 45.575C86.6669 46.6917 85.2169 47.25 83.2836 47.25C81.3336 47.25 79.8753 46.6917 78.9086 45.575C77.9586 44.4417 77.4836 42.8833 77.4836 40.9V30ZM97.5195 45.3C98.5695 45.3 99.3779 45.075 99.9445 44.625C100.511 44.1583 100.795 43.4833 100.795 42.6C100.795 41.8667 100.595 41.25 100.195 40.75C99.8112 40.25 99.1779 39.8667 98.2945 39.6L96.2695 39C95.0029 38.6167 94.0695 38.0417 93.4695 37.275C92.8695 36.4917 92.5695 35.5333 92.5695 34.4C92.5695 33.5333 92.7362 32.75 93.0695 32.05C93.4195 31.35 93.9695 30.7917 94.7195 30.375C95.4862 29.9583 96.4862 29.75 97.7195 29.75C98.4695 29.75 99.2445 29.8417 100.045 30.025C100.845 30.1917 101.653 30.4667 102.47 30.85L101.77 32.725C100.97 32.375 100.245 32.125 99.5945 31.975C98.9612 31.8083 98.3529 31.725 97.7695 31.725C96.8195 31.725 96.0779 31.925 95.5445 32.325C95.0279 32.7083 94.7695 33.35 94.7695 34.25C94.7695 34.9 94.9445 35.45 95.2945 35.9C95.6445 36.3333 96.2695 36.6917 97.1695 36.975L99.1945 37.575C101.728 38.325 102.995 39.9417 102.995 42.425C102.995 43.8583 102.561 45.025 101.695 45.925C100.828 46.8083 99.4362 47.25 97.5195 47.25C96.7362 47.25 95.9029 47.1583 95.0195 46.975C94.1529 46.775 93.2529 46.4667 92.3195 46.05L92.9945 44.2C93.8779 44.6 94.6695 44.8833 95.3695 45.05C96.0862 45.2167 96.8029 45.3 97.5195 45.3ZM104.366 32.05V30H116.441V32.05H111.491V47H109.316V32.05H104.366ZM130.937 36.625V40.35C130.937 42.4667 130.404 44.15 129.337 45.4C128.287 46.6333 126.77 47.25 124.787 47.25C122.804 47.25 121.279 46.6333 120.212 45.4C119.162 44.15 118.637 42.4667 118.637 40.35V36.625C118.637 34.525 119.162 32.8583 120.212 31.625C121.279 30.375 122.804 29.75 124.787 29.75C126.77 29.75 128.287 30.375 129.337 31.625C130.404 32.8583 130.937 34.525 130.937 36.625ZM128.687 36.625C128.687 35.075 128.354 33.8833 127.687 33.05C127.037 32.2 126.07 31.775 124.787 31.775C123.52 31.775 122.554 32.2 121.887 33.05C121.22 33.8833 120.887 35.075 120.887 36.625V40.35C120.887 41.9167 121.22 43.125 121.887 43.975C122.554 44.825 123.52 45.25 124.787 45.25C126.07 45.25 127.037 44.825 127.687 43.975C128.354 43.125 128.687 41.9167 128.687 40.35V36.625ZM138.098 30L143.273 42.6L148.473 30H150.948V47H148.823V39.725L149.098 33.175L144.223 45H142.173L137.398 33.125L137.673 39.725V47H135.548V30H138.098ZM165.776 44.975V47H156.276V30H165.526V32.05H158.451V37.375H164.776V39.425H158.451V44.975H165.776ZM171.732 40.35V47H169.557V30H174.882C176.482 30 177.716 30.425 178.582 31.275C179.466 32.1083 179.907 33.225 179.907 34.625V35.7C179.907 36.7 179.674 37.5667 179.207 38.3C178.757 39.0333 178.107 39.575 177.257 39.925C177.974 41.075 178.641 42.2417 179.257 43.425C179.874 44.6083 180.441 45.8 180.957 47H178.457C177.507 44.7333 176.399 42.5167 175.132 40.35H171.732ZM174.882 32H171.732V38.35H174.882C175.732 38.35 176.407 38.1167 176.907 37.65C177.407 37.1667 177.657 36.5167 177.657 35.7V34.625C177.657 33.7917 177.407 33.15 176.907 32.7C176.407 32.2333 175.732 32 174.882 32Z" fill="#6A9C6F"/>
</svg>
