<svg width="100" height="100" viewBox="0 0 100 100" fill="none" xmlns="http://www.w3.org/2000/svg">
<path d="M34.25 59V51.425H26.825V59H24.65V42H26.825V49.375H34.25V42H36.425V59H34.25ZM51.2154 56.975V59H41.7154V42H50.9654V44.05H43.8904V49.375H50.2154V51.425H43.8904V56.975H51.2154ZM64.2967 56.975V59H54.9967V42H57.1717V56.975H64.2967ZM67.6432 59V42H72.9432C74.5765 42 75.8182 42.4333 76.6682 43.3C77.5348 44.15 77.9682 45.2917 77.9682 46.725V48.05C77.9682 49.4833 77.5348 50.6333 76.6682 51.5C75.8182 52.3667 74.5765 52.8 72.9432 52.8H69.8182V59H67.6432ZM72.9432 44.05H69.8182V50.775H72.9432C73.8432 50.775 74.5265 50.5333 74.9932 50.05C75.4765 49.5667 75.7182 48.9 75.7182 48.05V46.725C75.7182 45.8917 75.4765 45.2417 74.9932 44.775C74.5265 44.2917 73.8432 44.05 72.9432 44.05Z" fill="#AD8669"/>
<circle opacity="0.3" cx="50" cy="50" r="48.5" fill="#FFBA7D" stroke="#EA9B70" stroke-width="3"/>
</svg>
