<svg width="300" height="426" viewBox="0 0 300 426" fill="none" xmlns="http://www.w3.org/2000/svg">
<rect width="300" height="425.454" rx="19" fill="#DAF2F0"/>
<rect x="32.7272" y="32.7272" width="234.545" height="87.2727" rx="15" fill="#A2E3DE"/>
<ellipse cx="70.9091" cy="169.091" rx="27.2727" ry="27.2727" fill="#D9D9D9"/>
<ellipse cx="234.545" cy="321.818" rx="27.2727" ry="27.2727" fill="#D9D9D9"/>
<ellipse cx="152.727" cy="321.818" rx="27.2727" ry="27.2727" fill="#D9D9D9"/>
<ellipse cx="70.9091" cy="321.818" rx="27.2727" ry="27.2727" fill="#D9D9D9"/>
<ellipse cx="234.545" cy="245.454" rx="27.2727" ry="27.2727" fill="#D9D9D9"/>
<ellipse cx="152.727" cy="245.454" rx="27.2727" ry="27.2727" fill="#D9D9D9"/>
<ellipse cx="70.9091" cy="245.454" rx="27.2727" ry="27.2727" fill="#D9D9D9"/>
<ellipse cx="234.545" cy="169.091" rx="27.2727" ry="27.2727" fill="#D9D9D9"/>
<ellipse cx="152.727" cy="169.091" rx="27.2727" ry="27.2727" fill="#D9D9D9"/>
<rect x="98.1818" y="370.909" width="109.091" height="36.3636" rx="8" fill="#D9D9D9"/>
<path d="M69.6164 177.364L68.0864 172.624H60.3464L58.8164 177.364H56.2664L63.0464 156.964H65.5064L72.3164 177.364H69.6164ZM62.2364 166.744L61.0964 170.254H67.3064L66.1664 166.744L64.2164 160.444L62.2364 166.744ZM73.5208 159.784L78.3808 156.964H80.7508V177.364H78.2008V159.724L74.6608 161.764L73.5208 159.784Z" fill="white"/>
<path d="M222.041 322.141C222.041 324.021 222.411 325.471 223.151 326.491C223.911 327.491 225.071 327.991 226.631 327.991C227.311 327.991 227.981 327.911 228.641 327.751C229.301 327.591 230.091 327.311 231.011 326.911L231.881 329.131C230.901 329.571 229.971 329.891 229.091 330.091C228.211 330.291 227.361 330.391 226.541 330.391C224.181 330.391 222.391 329.651 221.171 328.171C219.951 326.691 219.341 324.681 219.341 322.141V317.641C219.341 315.101 219.951 313.091 221.171 311.611C222.391 310.131 224.181 309.391 226.541 309.391C227.361 309.391 228.211 309.491 229.091 309.691C229.991 309.891 230.901 310.211 231.821 310.651L230.981 312.901C229.361 312.181 227.911 311.821 226.631 311.821C225.071 311.821 223.911 312.321 223.151 313.321C222.411 314.321 222.041 315.761 222.041 317.641V322.141ZM245.93 324.781C245.93 326.421 245.42 327.771 244.4 328.831C243.38 329.871 241.74 330.391 239.48 330.391C238.58 330.391 237.64 330.291 236.66 330.091C235.7 329.871 234.7 329.531 233.66 329.071L234.44 326.911C235.44 327.311 236.33 327.601 237.11 327.781C237.91 327.961 238.68 328.051 239.42 328.051C240.66 328.051 241.62 327.791 242.3 327.271C243 326.751 243.35 325.901 243.35 324.721V324.241C243.35 323.241 243.06 322.441 242.48 321.841C241.9 321.241 241.01 320.941 239.81 320.941H236.81V318.661H239.81C240.95 318.661 241.79 318.381 242.33 317.821C242.87 317.241 243.14 316.461 243.14 315.481V315.061C243.14 313.881 242.82 313.041 242.18 312.541C241.54 312.021 240.65 311.761 239.51 311.761C238.81 311.761 238.09 311.851 237.35 312.031C236.61 312.191 235.77 312.471 234.83 312.871L233.99 310.681C234.99 310.221 235.95 309.891 236.87 309.691C237.81 309.491 238.71 309.391 239.57 309.391C241.73 309.391 243.3 309.911 244.28 310.951C245.26 311.991 245.75 313.341 245.75 315.001V315.421C245.75 316.421 245.51 317.301 245.03 318.061C244.55 318.801 243.9 319.381 243.08 319.801C243.96 320.201 244.65 320.791 245.15 321.571C245.67 322.331 245.93 323.241 245.93 324.301V324.781Z" fill="white"/>
<path d="M140.223 322.141C140.223 324.021 140.593 325.471 141.333 326.491C142.093 327.491 143.253 327.991 144.813 327.991C145.493 327.991 146.163 327.911 146.823 327.751C147.483 327.591 148.273 327.311 149.193 326.911L150.063 329.131C149.083 329.571 148.153 329.891 147.273 330.091C146.393 330.291 145.543 330.391 144.723 330.391C142.363 330.391 140.573 329.651 139.353 328.171C138.133 326.691 137.523 324.681 137.523 322.141V317.641C137.523 315.101 138.133 313.091 139.353 311.611C140.573 310.131 142.363 309.391 144.723 309.391C145.543 309.391 146.393 309.491 147.273 309.691C148.173 309.891 149.083 310.211 150.003 310.651L149.163 312.901C147.543 312.181 146.093 311.821 144.813 311.821C143.253 311.821 142.093 312.321 141.333 313.321C140.593 314.321 140.223 315.761 140.223 317.641V322.141ZM164.202 330.091H152.562V328.111C152.562 326.611 152.742 325.351 153.102 324.331C153.482 323.311 153.982 322.471 154.602 321.811C155.242 321.131 155.952 320.591 156.732 320.191L158.682 319.201C159.602 318.721 160.332 318.221 160.872 317.701C161.432 317.181 161.712 316.431 161.712 315.451V314.941C161.712 313.821 161.392 313.011 160.752 312.511C160.132 312.011 159.212 311.761 157.992 311.761C157.312 311.761 156.592 311.851 155.832 312.031C155.072 312.191 154.232 312.471 153.312 312.871L152.472 310.681C153.472 310.221 154.432 309.891 155.352 309.691C156.292 309.491 157.192 309.391 158.052 309.391C160.272 309.391 161.862 309.911 162.822 310.951C163.782 311.971 164.262 313.301 164.262 314.941V315.451C164.262 316.531 164.052 317.431 163.632 318.151C163.232 318.871 162.692 319.481 162.012 319.981C161.352 320.461 160.642 320.891 159.882 321.271L157.932 322.291C156.992 322.791 156.292 323.481 155.832 324.361C155.392 325.241 155.152 326.361 155.112 327.721H164.202V330.091Z" fill="white"/>
<path d="M60.5864 322.141C60.5864 324.021 60.9564 325.471 61.6964 326.491C62.4564 327.491 63.6164 327.991 65.1764 327.991C65.8564 327.991 66.5264 327.911 67.1864 327.751C67.8464 327.591 68.6364 327.311 69.5564 326.911L70.4264 329.131C69.4464 329.571 68.5164 329.891 67.6364 330.091C66.7564 330.291 65.9064 330.391 65.0864 330.391C62.7264 330.391 60.9364 329.651 59.7164 328.171C58.4964 326.691 57.8864 324.681 57.8864 322.141V317.641C57.8864 315.101 58.4964 313.091 59.7164 311.611C60.9364 310.131 62.7264 309.391 65.0864 309.391C65.9064 309.391 66.7564 309.491 67.6364 309.691C68.5364 309.891 69.4464 310.211 70.3664 310.651L69.5264 312.901C67.9064 312.181 66.4564 311.821 65.1764 311.821C63.6164 311.821 62.4564 312.321 61.6964 313.321C60.9564 314.321 60.5864 315.761 60.5864 317.641V322.141ZM72.0853 312.511L76.9453 309.691H79.3153V330.091H76.7653V312.451L73.2253 314.491L72.0853 312.511Z" fill="white"/>
<path d="M220.271 253.727V233.327H226.271C228.231 233.327 229.671 233.807 230.591 234.767C231.531 235.707 232.001 236.977 232.001 238.577V239.237C232.001 240.117 231.801 240.897 231.401 241.577C231.001 242.257 230.421 242.797 229.661 243.197C230.721 243.537 231.521 244.097 232.061 244.877C232.621 245.637 232.901 246.557 232.901 247.637V248.297C232.901 249.937 232.421 251.257 231.461 252.257C230.521 253.237 229.041 253.727 227.021 253.727H220.271ZM226.271 235.727H222.881V242.177H226.271C227.271 242.177 228.021 241.927 228.521 241.427C229.041 240.907 229.301 240.197 229.301 239.297V238.577C229.301 237.697 229.041 237.007 228.521 236.507C228.021 235.987 227.271 235.727 226.271 235.727ZM227.021 244.577H222.881V251.357H227.021C228.081 251.357 228.871 251.087 229.391 250.547C229.931 250.007 230.201 249.257 230.201 248.297V247.577C230.201 246.657 229.931 245.927 229.391 245.387C228.871 244.847 228.081 244.577 227.021 244.577ZM247.6 248.417C247.6 250.057 247.09 251.407 246.07 252.467C245.05 253.507 243.41 254.027 241.15 254.027C240.25 254.027 239.31 253.927 238.33 253.727C237.37 253.507 236.37 253.167 235.33 252.707L236.11 250.547C237.11 250.947 238 251.237 238.78 251.417C239.58 251.597 240.35 251.687 241.09 251.687C242.33 251.687 243.29 251.427 243.97 250.907C244.67 250.387 245.02 249.537 245.02 248.357V247.877C245.02 246.877 244.73 246.077 244.15 245.477C243.57 244.877 242.68 244.577 241.48 244.577H238.48V242.297H241.48C242.62 242.297 243.46 242.017 244 241.457C244.54 240.877 244.81 240.097 244.81 239.117V238.697C244.81 237.517 244.49 236.677 243.85 236.177C243.21 235.657 242.32 235.397 241.18 235.397C240.48 235.397 239.76 235.487 239.02 235.667C238.28 235.827 237.44 236.107 236.5 236.507L235.66 234.317C236.66 233.857 237.62 233.527 238.54 233.327C239.48 233.127 240.38 233.027 241.24 233.027C243.4 233.027 244.97 233.547 245.95 234.587C246.93 235.627 247.42 236.977 247.42 238.637V239.057C247.42 240.057 247.18 240.937 246.7 241.697C246.22 242.437 245.57 243.017 244.75 243.437C245.63 243.837 246.32 244.427 246.82 245.207C247.34 245.967 247.6 246.877 247.6 247.937V248.417Z" fill="white"/>
<path d="M138.453 253.727V233.327H144.453C146.413 233.327 147.853 233.807 148.773 234.767C149.713 235.707 150.183 236.977 150.183 238.577V239.237C150.183 240.117 149.983 240.897 149.583 241.577C149.183 242.257 148.603 242.797 147.843 243.197C148.903 243.537 149.703 244.097 150.243 244.877C150.803 245.637 151.083 246.557 151.083 247.637V248.297C151.083 249.937 150.603 251.257 149.643 252.257C148.703 253.237 147.223 253.727 145.203 253.727H138.453ZM144.453 235.727H141.063V242.177H144.453C145.453 242.177 146.203 241.927 146.703 241.427C147.223 240.907 147.483 240.197 147.483 239.297V238.577C147.483 237.697 147.223 237.007 146.703 236.507C146.203 235.987 145.453 235.727 144.453 235.727ZM145.203 244.577H141.063V251.357H145.203C146.263 251.357 147.053 251.087 147.573 250.547C148.113 250.007 148.383 249.257 148.383 248.297V247.577C148.383 246.657 148.113 245.927 147.573 245.387C147.053 244.847 146.263 244.577 145.203 244.577ZM165.872 253.727H154.232V251.747C154.232 250.247 154.412 248.987 154.772 247.967C155.152 246.947 155.652 246.107 156.272 245.447C156.912 244.767 157.622 244.227 158.402 243.827L160.352 242.837C161.272 242.357 162.002 241.857 162.542 241.337C163.102 240.817 163.382 240.067 163.382 239.087V238.577C163.382 237.457 163.062 236.647 162.422 236.147C161.802 235.647 160.882 235.397 159.662 235.397C158.982 235.397 158.262 235.487 157.502 235.667C156.742 235.827 155.902 236.107 154.982 236.507L154.142 234.317C155.142 233.857 156.102 233.527 157.022 233.327C157.962 233.127 158.862 233.027 159.722 233.027C161.942 233.027 163.532 233.547 164.492 234.587C165.452 235.607 165.932 236.937 165.932 238.577V239.087C165.932 240.167 165.722 241.067 165.302 241.787C164.902 242.507 164.362 243.117 163.682 243.617C163.022 244.097 162.312 244.527 161.552 244.907L159.602 245.927C158.662 246.427 157.962 247.117 157.502 247.997C157.062 248.877 156.822 249.997 156.782 251.357H165.872V253.727Z" fill="white"/>
<path d="M231.071 177.364L229.541 172.624H221.801L220.271 177.364H217.721L224.501 156.964H226.961L233.771 177.364H231.071ZM223.691 166.744L222.551 170.254H228.761L227.621 166.744L225.671 160.444L223.691 166.744ZM247.365 172.054C247.365 173.694 246.855 175.044 245.835 176.104C244.815 177.144 243.175 177.664 240.915 177.664C240.015 177.664 239.075 177.564 238.095 177.364C237.135 177.144 236.135 176.804 235.095 176.344L235.875 174.184C236.875 174.584 237.765 174.874 238.545 175.054C239.345 175.234 240.115 175.324 240.855 175.324C242.095 175.324 243.055 175.064 243.735 174.544C244.435 174.024 244.785 173.174 244.785 171.994V171.514C244.785 170.514 244.495 169.714 243.915 169.114C243.335 168.514 242.445 168.214 241.245 168.214H238.245V165.934H241.245C242.385 165.934 243.225 165.654 243.765 165.094C244.305 164.514 244.575 163.734 244.575 162.754V162.334C244.575 161.154 244.255 160.314 243.615 159.814C242.975 159.294 242.085 159.034 240.945 159.034C240.245 159.034 239.525 159.124 238.785 159.304C238.045 159.464 237.205 159.744 236.265 160.144L235.425 157.954C236.425 157.494 237.385 157.164 238.305 156.964C239.245 156.764 240.145 156.664 241.005 156.664C243.165 156.664 244.735 157.184 245.715 158.224C246.695 159.264 247.185 160.614 247.185 162.274V162.694C247.185 163.694 246.945 164.574 246.465 165.334C245.985 166.074 245.335 166.654 244.515 167.074C245.395 167.474 246.085 168.064 246.585 168.844C247.105 169.604 247.365 170.514 247.365 171.574V172.054Z" fill="white"/>
<path d="M149.253 177.364L147.723 172.624H139.983L138.453 177.364H135.903L142.683 156.964H145.143L151.953 177.364H149.253ZM141.873 166.744L140.733 170.254H146.943L145.803 166.744L143.853 160.444L141.873 166.744ZM165.637 177.364H153.997V175.384C153.997 173.884 154.177 172.624 154.537 171.604C154.917 170.584 155.417 169.744 156.037 169.084C156.677 168.404 157.387 167.864 158.167 167.464L160.117 166.474C161.037 165.994 161.767 165.494 162.307 164.974C162.867 164.454 163.147 163.704 163.147 162.724V162.214C163.147 161.094 162.827 160.284 162.187 159.784C161.567 159.284 160.647 159.034 159.427 159.034C158.747 159.034 158.027 159.124 157.267 159.304C156.507 159.464 155.667 159.744 154.747 160.144L153.907 157.954C154.907 157.494 155.867 157.164 156.787 156.964C157.727 156.764 158.627 156.664 159.487 156.664C161.707 156.664 163.297 157.184 164.257 158.224C165.217 159.244 165.697 160.574 165.697 162.214V162.724C165.697 163.804 165.487 164.704 165.067 165.424C164.667 166.144 164.127 166.754 163.447 167.254C162.787 167.734 162.077 168.164 161.317 168.544L159.367 169.564C158.427 170.064 157.727 170.754 157.267 171.634C156.827 172.514 156.587 173.634 156.547 174.994H165.637V177.364Z" fill="white"/>
<path d="M58.8164 253.727V233.327H64.8164C66.7764 233.327 68.2164 233.807 69.1364 234.767C70.0764 235.707 70.5464 236.977 70.5464 238.577V239.237C70.5464 240.117 70.3464 240.897 69.9464 241.577C69.5464 242.257 68.9664 242.797 68.2064 243.197C69.2664 243.537 70.0664 244.097 70.6064 244.877C71.1664 245.637 71.4464 246.557 71.4464 247.637V248.297C71.4464 249.937 70.9664 251.257 70.0064 252.257C69.0664 253.237 67.5864 253.727 65.5664 253.727H58.8164ZM64.8164 235.727H61.4264V242.177H64.8164C65.8164 242.177 66.5664 241.927 67.0664 241.427C67.5864 240.907 67.8464 240.197 67.8464 239.297V238.577C67.8464 237.697 67.5864 237.007 67.0664 236.507C66.5664 235.987 65.8164 235.727 64.8164 235.727ZM65.5664 244.577H61.4264V251.357H65.5664C66.6264 251.357 67.4164 251.087 67.9364 250.547C68.4764 250.007 68.7464 249.257 68.7464 248.297V247.577C68.7464 246.657 68.4764 245.927 67.9364 245.387C67.4164 244.847 66.6264 244.577 65.5664 244.577ZM73.7552 236.147L78.6152 233.327H80.9852V253.727H78.4352V236.087L74.8952 238.127L73.7552 236.147Z" fill="white"/>
<path d="M132.362 397.091V380.771H137.162C138.73 380.771 139.882 381.155 140.618 381.923C141.37 382.675 141.746 383.691 141.746 384.971V385.499C141.746 386.203 141.586 386.827 141.266 387.371C140.946 387.915 140.482 388.347 139.874 388.667C140.722 388.939 141.362 389.387 141.794 390.011C142.242 390.619 142.466 391.355 142.466 392.219V392.747C142.466 394.059 142.082 395.115 141.314 395.915C140.562 396.699 139.378 397.091 137.762 397.091H132.362ZM137.162 382.691H134.45V387.851H137.162C137.962 387.851 138.562 387.651 138.962 387.251C139.378 386.835 139.586 386.267 139.586 385.547V384.971C139.586 384.267 139.378 383.715 138.962 383.315C138.562 382.899 137.962 382.691 137.162 382.691ZM137.762 389.771H134.45V395.195H137.762C138.61 395.195 139.242 394.979 139.658 394.547C140.09 394.115 140.306 393.515 140.306 392.747V392.171C140.306 391.435 140.09 390.851 139.658 390.419C139.242 389.987 138.61 389.771 137.762 389.771ZM146.065 380.771H148.225V391.235C148.225 392.547 148.497 393.571 149.041 394.307C149.601 395.043 150.465 395.411 151.633 395.411C152.817 395.411 153.681 395.043 154.225 394.307C154.769 393.571 155.041 392.547 155.041 391.235V380.771H157.201V391.235C157.201 393.139 156.737 394.635 155.809 395.723C154.881 396.795 153.489 397.331 151.633 397.331C149.761 397.331 148.361 396.795 147.433 395.723C146.521 394.635 146.065 393.139 146.065 391.235V380.771ZM171.756 380.771L166.764 390.563V397.091H164.676V390.563L159.66 380.771H161.916L165.828 388.499L169.596 380.771H171.756Z" fill="white"/>
</svg>
