<svg width="100" height="100" viewBox="0 0 100 100" fill="none" xmlns="http://www.w3.org/2000/svg">
<circle opacity="0.3" cx="50" cy="50" r="48.5" fill="#72FFA3" stroke="#53D462" stroke-width="3"/>
<path d="M20.2 42L25.375 54.6L30.575 42H33.05V59H30.925V51.725L31.2 45.175L26.325 57H24.275L19.5 45.125L19.775 51.725V59H17.65V42H20.2ZM49.9525 48.625V52.35C49.9525 54.4667 49.4192 56.15 48.3525 57.4C47.3025 58.6333 45.7859 59.25 43.8025 59.25C41.8192 59.25 40.2942 58.6333 39.2275 57.4C38.1775 56.15 37.6525 54.4667 37.6525 52.35V48.625C37.6525 46.525 38.1775 44.8583 39.2275 43.625C40.2942 42.375 41.8192 41.75 43.8025 41.75C45.7859 41.75 47.3025 42.375 48.3525 43.625C49.4192 44.8583 49.9525 46.525 49.9525 48.625ZM47.7025 48.625C47.7025 47.075 47.3692 45.8833 46.7025 45.05C46.0525 44.2 45.0859 43.775 43.8025 43.775C42.5359 43.775 41.5692 44.2 40.9025 45.05C40.2359 45.8833 39.9025 47.075 39.9025 48.625V52.35C39.9025 53.9167 40.2359 55.125 40.9025 55.975C41.5692 56.825 42.5359 57.25 43.8025 57.25C45.0859 57.25 46.0525 56.825 46.7025 55.975C47.3692 55.125 47.7025 53.9167 47.7025 52.35V48.625ZM54.5641 59V42H59.8391C61.7891 42 63.2891 42.5917 64.3391 43.775C65.3891 44.9417 65.9141 46.5583 65.9141 48.625V52.35C65.9141 54.4333 65.3891 56.0667 64.3391 57.25C63.2891 58.4167 61.7891 59 59.8391 59H54.5641ZM59.7891 44.05H56.7391V56.975H59.7891C62.3724 56.975 63.6641 55.4333 63.6641 52.35V48.625C63.6641 45.575 62.3724 44.05 59.7891 44.05ZM79.982 56.975V59H70.482V42H79.732V44.05H72.657V49.375H78.982V51.425H72.657V56.975H79.982Z" fill="#7AA370"/>
</svg>
