<svg width="100" height="100" viewBox="0 0 100 100" fill="none" xmlns="http://www.w3.org/2000/svg">
<circle opacity="0.3" cx="50" cy="50" r="48.5" fill="#F68EFF" stroke="#E969DA" stroke-width="3"/>
<path d="M15.65 59V42H20.95C22.5833 42 23.825 42.4333 24.675 43.3C25.5417 44.15 25.975 45.2917 25.975 46.725V48.05C25.975 49.4833 25.5417 50.6333 24.675 51.5C23.825 52.3667 22.5833 52.8 20.95 52.8H17.825V59H15.65ZM20.95 44.05H17.825V50.775H20.95C21.85 50.775 22.5333 50.5333 23 50.05C23.4833 49.5667 23.725 48.9 23.725 48.05V46.725C23.725 45.8917 23.4833 45.2417 23 44.775C22.5333 44.2917 21.85 44.05 20.95 44.05ZM31.9363 52.35V59H29.7613V42H35.0863C36.6863 42 37.9197 42.425 38.7863 43.275C39.6697 44.1083 40.1113 45.225 40.1113 46.625V47.7C40.1113 48.7 39.878 49.5667 39.4113 50.3C38.9613 51.0333 38.3113 51.575 37.4613 51.925C38.178 53.075 38.8447 54.2417 39.4613 55.425C40.078 56.6083 40.6447 57.8 41.1613 59H38.6613C37.7113 56.7333 36.603 54.5167 35.3363 52.35H31.9363ZM35.0863 44H31.9363V50.35H35.0863C35.9363 50.35 36.6113 50.1167 37.1113 49.65C37.6113 49.1667 37.8613 48.5167 37.8613 47.7V46.625C37.8613 45.7917 37.6113 45.15 37.1113 44.7C36.6113 44.2333 35.9363 44 35.0863 44ZM46.951 59H44.776V42H46.951V59ZM53.7461 52.375C53.7461 53.9417 54.0544 55.15 54.6711 56C55.3044 56.8333 56.2711 57.25 57.5711 57.25C58.1378 57.25 58.6961 57.1833 59.2461 57.05C59.7961 56.9167 60.4544 56.6833 61.2211 56.35L61.9461 58.2C61.1294 58.5667 60.3544 58.8333 59.6211 59C58.8878 59.1667 58.1794 59.25 57.4961 59.25C55.5294 59.25 54.0378 58.6333 53.0211 57.4C52.0044 56.1667 51.4961 54.4917 51.4961 52.375V48.625C51.4961 46.5083 52.0044 44.8333 53.0211 43.6C54.0378 42.3667 55.5294 41.75 57.4961 41.75C58.1794 41.75 58.8878 41.8333 59.6211 42C60.3711 42.1667 61.1294 42.4333 61.8961 42.8L61.1961 44.675C59.8461 44.075 58.6378 43.775 57.5711 43.775C56.2711 43.775 55.3044 44.1917 54.6711 45.025C54.0544 45.8583 53.7461 47.0583 53.7461 48.625V52.375ZM75.0035 56.975V59H65.5035V42H74.7535V44.05H67.6785V49.375H74.0035V51.425H67.6785V56.975H75.0035ZM82.2598 57.3C83.3098 57.3 84.1181 57.075 84.6848 56.625C85.2514 56.1583 85.5348 55.4833 85.5348 54.6C85.5348 53.8667 85.3348 53.25 84.9348 52.75C84.5514 52.25 83.9181 51.8667 83.0348 51.6L81.0098 51C79.7431 50.6167 78.8098 50.0417 78.2098 49.275C77.6098 48.4917 77.3098 47.5333 77.3098 46.4C77.3098 45.5333 77.4764 44.75 77.8098 44.05C78.1598 43.35 78.7098 42.7917 79.4598 42.375C80.2264 41.9583 81.2264 41.75 82.4598 41.75C83.2098 41.75 83.9848 41.8417 84.7848 42.025C85.5848 42.1917 86.3931 42.4667 87.2098 42.85L86.5098 44.725C85.7098 44.375 84.9848 44.125 84.3348 43.975C83.7014 43.8083 83.0931 43.725 82.5098 43.725C81.5598 43.725 80.8181 43.925 80.2848 44.325C79.7681 44.7083 79.5098 45.35 79.5098 46.25C79.5098 46.9 79.6848 47.45 80.0348 47.9C80.3848 48.3333 81.0098 48.6917 81.9098 48.975L83.9348 49.575C86.4681 50.325 87.7348 51.9417 87.7348 54.425C87.7348 55.8583 87.3014 57.025 86.4348 57.925C85.5681 58.8083 84.1764 59.25 82.2598 59.25C81.4764 59.25 80.6431 59.1583 79.7598 58.975C78.8931 58.775 77.9931 58.4667 77.0598 58.05L77.7348 56.2C78.6181 56.6 79.4098 56.8833 80.1098 57.05C80.8264 57.2167 81.5431 57.3 82.2598 57.3Z" fill="#D08ACD"/>
</svg>
