<svg width="311" height="125" viewBox="0 0 311 125" fill="none" xmlns="http://www.w3.org/2000/svg">
<rect x="2.5" y="2.5" width="306" height="120" rx="20.5" fill="#859B88" stroke="#5E8C68" stroke-width="5"/>
<path d="M107.404 34.552V42H104.968V22.96H110.932C112.724 22.96 114.105 23.436 115.076 24.388C116.065 25.3213 116.56 26.572 116.56 28.14V29.344C116.56 30.464 116.299 31.4347 115.776 32.256C115.272 33.0773 114.544 33.684 113.592 34.076C114.395 35.364 115.141 36.6707 115.832 37.996C116.523 39.3213 117.157 40.656 117.736 42H114.936C113.872 39.4613 112.631 36.9787 111.212 34.552H107.404ZM110.932 25.2H107.404V32.312H110.932C111.884 32.312 112.64 32.0507 113.2 31.528C113.76 30.9867 114.04 30.2587 114.04 29.344V28.14C114.04 27.2067 113.76 26.488 113.2 25.984C112.64 25.4613 111.884 25.2 110.932 25.2ZM132.424 39.732V42H121.784V22.96H132.144V25.256H124.22V31.22H131.304V33.516H124.22V39.732H132.424ZM148.895 22.96L142.819 42H140.355L134.251 22.96H136.827L139.851 32.62L141.671 38.724L143.519 32.592L146.487 22.96H148.895ZM163.077 39.732V42H152.437V22.96H162.797V25.256H154.873V31.22H161.957V33.516H154.873V39.732H163.077ZM167.312 42V22.96H169.86C171.558 25.3867 173.117 27.832 174.536 30.296C175.973 32.7413 177.317 35.2987 178.568 37.968L178.288 30.688V22.96H180.668V42H178.12C176.813 39.2747 175.46 36.624 174.06 34.048C172.678 31.4533 171.166 28.924 169.524 26.46L169.692 34.216V42H167.312ZM186.252 22.96H188.772V35.168C188.772 36.6987 189.089 37.8933 189.724 38.752C190.377 39.6107 191.385 40.04 192.748 40.04C194.129 40.04 195.137 39.6107 195.772 38.752C196.406 37.8933 196.724 36.6987 196.724 35.168V22.96H199.244V35.168C199.244 37.3893 198.702 39.1347 197.62 40.404C196.537 41.6547 194.913 42.28 192.748 42.28C190.564 42.28 188.93 41.6547 187.848 40.404C186.784 39.1347 186.252 37.3893 186.252 35.168V22.96ZM215.44 39.732V42H204.8V22.96H215.16V25.256H207.236V31.22H214.32V33.516H207.236V39.732H215.44Z" fill="#43E534"/>
</svg>
