<svg width="360" height="459" viewBox="0 0 360 459" fill="none" xmlns="http://www.w3.org/2000/svg">
<rect x="284.259" y="190.86" width="58.0121" height="97.1703" rx="10" fill="#94B2FB"/>
<path d="M340.571 195.501C340.571 196.587 339.874 197.666 338.506 198.688C337.143 199.705 335.155 200.632 332.675 201.415C327.719 202.981 320.856 203.953 313.265 203.953C305.674 203.953 298.812 202.981 293.856 201.415C291.376 200.632 289.388 199.705 288.025 198.688C286.657 197.666 285.96 196.587 285.96 195.501C285.96 194.415 286.657 193.335 288.025 192.314C289.388 191.296 291.376 190.369 293.856 189.586C298.812 188.021 305.674 187.049 313.265 187.049C320.856 187.049 327.719 188.021 332.675 189.586C335.155 190.369 337.143 191.296 338.506 192.314C339.874 193.335 340.571 194.415 340.571 195.501Z" fill="#D4D1D1" stroke="#BEBCBC" stroke-width="0.5"/>
<path d="M317.416 195.501C317.416 197.007 316.423 198.403 314.75 199.432C313.081 200.46 310.762 201.102 308.189 201.102C305.617 201.102 303.298 200.46 301.628 199.432C299.955 198.403 298.962 197.007 298.962 195.501C298.962 193.994 299.955 192.598 301.628 191.569C303.298 190.542 305.617 189.9 308.189 189.9C310.762 189.9 313.081 190.542 314.75 191.569C316.423 192.598 317.416 193.994 317.416 195.501Z" fill="#D4D1D1" stroke="#BEBCBC" stroke-width="0.4"/>
<rect x="316.366" y="191.35" width="14.103" height="8.30182" rx="1.8" fill="#D4D1D1" stroke="#BEBCBC" stroke-width="0.4"/>
<rect x="317.816" y="192.8" width="3.95091" height="5.40121" rx="1.8" fill="#D4D1D1" stroke="#BEBCBC" stroke-width="0.4"/>
<rect x="323.618" y="192.8" width="5.40121" height="5.40121" rx="1.8" fill="#D4D1D1" stroke="#BEBCBC" stroke-width="0.4"/>
<path d="M297.515 243.221C297.515 244.336 297.222 245.267 296.635 246.015C296.048 246.748 295.117 247.21 293.841 247.401V250.173H292.081V247.445C291.465 247.416 290.82 247.32 290.145 247.159C289.485 246.983 288.81 246.734 288.121 246.411L288.715 244.783C289.492 245.135 290.189 245.384 290.805 245.531C291.436 245.678 292.066 245.751 292.697 245.751C293.621 245.751 294.332 245.553 294.831 245.157C295.33 244.746 295.579 244.152 295.579 243.375C295.579 242.73 295.403 242.187 295.051 241.747C294.714 241.307 294.156 240.97 293.379 240.735L291.597 240.207C290.482 239.87 289.661 239.364 289.133 238.689C288.605 238 288.341 237.156 288.341 236.159C288.341 235.47 288.466 234.839 288.715 234.267C288.964 233.68 289.36 233.196 289.903 232.815C290.46 232.434 291.186 232.199 292.081 232.111V229.361H293.841V232.111C294.354 232.17 294.882 232.28 295.425 232.441C295.968 232.588 296.51 232.786 297.053 233.035L296.437 234.685C295.733 234.377 295.095 234.157 294.523 234.025C293.966 233.878 293.43 233.805 292.917 233.805C292.081 233.805 291.428 233.981 290.959 234.333C290.504 234.67 290.277 235.235 290.277 236.027C290.277 236.599 290.431 237.083 290.739 237.479C291.047 237.86 291.597 238.176 292.389 238.425L294.171 238.953C296.4 239.613 297.515 241.036 297.515 243.221ZM308.006 247.247H299.47V245.795C299.47 244.695 299.602 243.771 299.866 243.023C300.145 242.275 300.511 241.659 300.966 241.175C301.435 240.676 301.956 240.28 302.528 239.987L303.958 239.261C304.633 238.909 305.168 238.542 305.564 238.161C305.975 237.78 306.18 237.23 306.18 236.511V236.137C306.18 235.316 305.945 234.722 305.476 234.355C305.021 233.988 304.347 233.805 303.452 233.805C302.953 233.805 302.425 233.871 301.868 234.003C301.311 234.12 300.695 234.326 300.02 234.619L299.404 233.013C300.137 232.676 300.841 232.434 301.516 232.287C302.205 232.14 302.865 232.067 303.496 232.067C305.124 232.067 306.29 232.448 306.994 233.211C307.698 233.959 308.05 234.934 308.05 236.137V236.511C308.05 237.303 307.896 237.963 307.588 238.491C307.295 239.019 306.899 239.466 306.4 239.833C305.916 240.185 305.395 240.5 304.838 240.779L303.408 241.527C302.719 241.894 302.205 242.4 301.868 243.045C301.545 243.69 301.369 244.512 301.34 245.509H308.006V247.247ZM312.409 247.247H310.385V245.245H312.409V247.247ZM324.924 238.117V241.395C324.924 243.39 324.476 244.9 323.582 245.927C322.687 246.954 321.44 247.467 319.842 247.467C318.243 247.467 316.996 246.954 316.102 245.927C315.222 244.9 314.782 243.39 314.782 241.395V238.117C314.782 236.137 315.229 234.634 316.124 233.607C317.018 232.58 318.258 232.067 319.842 232.067C321.44 232.067 322.687 232.58 323.582 233.607C324.476 234.634 324.924 236.137 324.924 238.117ZM322.988 238.117C322.988 236.592 322.709 235.492 322.152 234.817C321.609 234.142 320.839 233.805 319.842 233.805C318.859 233.805 318.089 234.142 317.532 234.817C316.989 235.492 316.718 236.592 316.718 238.117V241.395C316.718 242.906 316.989 244.013 317.532 244.717C318.089 245.406 318.859 245.751 319.842 245.751C320.839 245.751 321.609 245.406 322.152 244.717C322.709 244.013 322.988 242.906 322.988 241.395V238.117ZM338.416 238.117V241.395C338.416 243.39 337.969 244.9 337.074 245.927C336.179 246.954 334.933 247.467 333.334 247.467C331.735 247.467 330.489 246.954 329.594 245.927C328.714 244.9 328.274 243.39 328.274 241.395V238.117C328.274 236.137 328.721 234.634 329.616 233.607C330.511 232.58 331.75 232.067 333.334 232.067C334.933 232.067 336.179 232.58 337.074 233.607C337.969 234.634 338.416 236.137 338.416 238.117ZM336.48 238.117C336.48 236.592 336.201 235.492 335.644 234.817C335.101 234.142 334.331 233.805 333.334 233.805C332.351 233.805 331.581 234.142 331.024 234.817C330.481 235.492 330.21 236.592 330.21 238.117V241.395C330.21 242.906 330.481 244.013 331.024 244.717C331.581 245.406 332.351 245.751 333.334 245.751C334.331 245.751 335.101 245.406 335.644 244.717C336.201 244.013 336.48 242.906 336.48 241.395V238.117Z" fill="black"/>
<rect x="271.497" y="12.7627" width="83.5374" height="96.3001" fill="#F9BE50"/>
<rect x="265.696" width="93.9796" height="12.7627" fill="#F9BE50"/>
<rect x="265.696" y="109.063" width="93.9796" height="12.7627" fill="#F9BE50"/>
<path d="M301.022 40.1789C301.022 41.2935 300.729 42.2249 300.142 42.9729C299.556 43.7062 298.624 44.1682 297.348 44.3589V47.1309H295.588V44.4029C294.972 44.3735 294.327 44.2782 293.652 44.1169C292.992 43.9409 292.318 43.6915 291.628 43.3689L292.222 41.7409C293 42.0929 293.696 42.3422 294.312 42.4889C294.943 42.6355 295.574 42.7089 296.204 42.7089C297.128 42.7089 297.84 42.5109 298.338 42.1149C298.837 41.7042 299.086 41.1102 299.086 40.3329C299.086 39.6875 298.91 39.1449 298.558 38.7049C298.221 38.2649 297.664 37.9275 296.886 37.6929L295.104 37.1649C293.99 36.8275 293.168 36.3215 292.64 35.6469C292.112 34.9575 291.848 34.1142 291.848 33.1169C291.848 32.4275 291.973 31.7969 292.222 31.2249C292.472 30.6382 292.868 30.1542 293.41 29.7729C293.968 29.3915 294.694 29.1569 295.588 29.0689V26.3189H297.348V29.0689C297.862 29.1275 298.39 29.2375 298.932 29.3989C299.475 29.5455 300.018 29.7435 300.56 29.9929L299.944 31.6429C299.24 31.3349 298.602 31.1149 298.03 30.9829C297.473 30.8362 296.938 30.7629 296.424 30.7629C295.588 30.7629 294.936 30.9389 294.466 31.2909C294.012 31.6282 293.784 32.1929 293.784 32.9849C293.784 33.5569 293.938 34.0409 294.246 34.4369C294.554 34.8182 295.104 35.1335 295.896 35.3829L297.678 35.9109C299.908 36.5709 301.022 37.9935 301.022 40.1789ZM302.361 31.3129L305.925 29.2449H307.663V44.2049H305.793V31.2689L303.197 32.7649L302.361 31.3129ZM312.608 44.2049H310.584V42.2029H312.608V44.2049ZM323.287 44.2049H314.751V42.7529C314.751 41.6529 314.883 40.7289 315.147 39.9809C315.425 39.2329 315.792 38.6169 316.247 38.1329C316.716 37.6342 317.237 37.2382 317.809 36.9449L319.239 36.2189C319.913 35.8669 320.449 35.5002 320.845 35.1189C321.255 34.7375 321.461 34.1875 321.461 33.4689V33.0949C321.461 32.2735 321.226 31.6795 320.757 31.3129C320.302 30.9462 319.627 30.7629 318.733 30.7629C318.234 30.7629 317.706 30.8289 317.149 30.9609C316.591 31.0782 315.975 31.2835 315.301 31.5769L314.685 29.9709C315.418 29.6335 316.122 29.3915 316.797 29.2449C317.486 29.0982 318.146 29.0249 318.777 29.0249C320.405 29.0249 321.571 29.4062 322.275 30.1689C322.979 30.9169 323.331 31.8922 323.331 33.0949V33.4689C323.331 34.2609 323.177 34.9209 322.869 35.4489C322.575 35.9769 322.179 36.4242 321.681 36.7909C321.197 37.1429 320.676 37.4582 320.119 37.7369L318.689 38.4849C317.999 38.8515 317.486 39.3575 317.149 40.0029C316.826 40.6482 316.65 41.4695 316.621 42.4669H323.287V44.2049ZM326.062 36.4169L326.502 29.2449H333.938V31.0049H328.196L327.932 35.2949C328.578 35.0749 329.274 34.9649 330.022 34.9649C331.401 34.9649 332.501 35.3315 333.322 36.0649C334.144 36.7982 334.554 37.8835 334.554 39.3209V39.9809C334.554 41.2862 334.173 42.3569 333.41 43.1929C332.648 44.0142 331.423 44.4249 329.736 44.4249C329.076 44.4249 328.387 44.3515 327.668 44.2049C326.964 44.0435 326.231 43.7942 325.468 43.4569L326.062 41.8729C326.781 42.1809 327.434 42.4009 328.02 42.5329C328.607 42.6502 329.172 42.7089 329.714 42.7089C330.624 42.7089 331.335 42.5035 331.848 42.0929C332.362 41.6675 332.618 40.9635 332.618 39.9809V39.3209C332.618 38.5142 332.384 37.8689 331.914 37.3849C331.46 36.9009 330.763 36.6589 329.824 36.6589C329.384 36.6589 328.952 36.7175 328.526 36.8349C328.101 36.9375 327.654 37.0915 327.184 37.2969L326.062 36.4169Z" fill="black"/>
<rect x="5.80124" y="12.7627" width="83.5374" height="96.3001" fill="#F3EB8F"/>
<rect width="93.9796" height="12.7627" fill="#F3EB8F"/>
<rect y="109.063" width="93.9796" height="12.7627" fill="#F3EB8F"/>
<path d="M33.4658 38.4244C33.4658 39.539 33.1724 40.4704 32.5858 41.2184C31.9991 41.9517 31.0678 42.4137 29.7918 42.6044V45.3764H28.0318V42.6484C27.4158 42.619 26.7704 42.5237 26.0958 42.3624C25.4358 42.1864 24.7611 41.937 24.0718 41.6144L24.6658 39.9864C25.4431 40.3384 26.1398 40.5877 26.7558 40.7344C27.3864 40.881 28.0171 40.9544 28.6478 40.9544C29.5718 40.9544 30.2831 40.7564 30.7818 40.3604C31.2804 39.9497 31.5298 39.3557 31.5298 38.5784C31.5298 37.933 31.3538 37.3904 31.0018 36.9504C30.6644 36.5104 30.1071 36.173 29.3298 35.9384L27.5478 35.4104C26.4331 35.073 25.6118 34.567 25.0838 33.8924C24.5558 33.203 24.2918 32.3597 24.2918 31.3624C24.2918 30.673 24.4164 30.0424 24.6658 29.4704C24.9151 28.8837 25.3111 28.3997 25.8538 28.0184C26.4111 27.637 27.1371 27.4024 28.0318 27.3144V24.5644H29.7918V27.3144C30.3051 27.373 30.8331 27.483 31.3758 27.6444C31.9184 27.791 32.4611 27.989 33.0038 28.2384L32.3878 29.8884C31.6838 29.5804 31.0458 29.3604 30.4738 29.2284C29.9164 29.0817 29.3811 29.0084 28.8678 29.0084C28.0318 29.0084 27.3791 29.1844 26.9098 29.5364C26.4551 29.8737 26.2278 30.4384 26.2278 31.2304C26.2278 31.8024 26.3818 32.2864 26.6898 32.6824C26.9978 33.0637 27.5478 33.379 28.3398 33.6284L30.1218 34.1564C32.3511 34.8164 33.4658 36.239 33.4658 38.4244ZM34.8047 29.5584L38.3687 27.4904H40.1067V42.4504H38.2367V29.5144L35.6407 31.0104L34.8047 29.5584ZM45.0517 42.4504H43.0277V40.4484H45.0517V42.4504ZM57.5659 33.3204V36.5984C57.5659 38.593 57.1186 40.1037 56.2239 41.1304C55.3292 42.157 54.0826 42.6704 52.4839 42.6704C50.8852 42.6704 49.6386 42.157 48.7439 41.1304C47.8639 40.1037 47.4239 38.593 47.4239 36.5984V33.3204C47.4239 31.3404 47.8712 29.837 48.7659 28.8104C49.6606 27.7837 50.8999 27.2704 52.4839 27.2704C54.0826 27.2704 55.3292 27.7837 56.2239 28.8104C57.1186 29.837 57.5659 31.3404 57.5659 33.3204ZM55.6299 33.3204C55.6299 31.795 55.3512 30.695 54.7939 30.0204C54.2512 29.3457 53.4812 29.0084 52.4839 29.0084C51.5012 29.0084 50.7312 29.3457 50.1739 30.0204C49.6312 30.695 49.3599 31.795 49.3599 33.3204V36.5984C49.3599 38.109 49.6312 39.2164 50.1739 39.9204C50.7312 40.6097 51.5012 40.9544 52.4839 40.9544C53.4812 40.9544 54.2512 40.6097 54.7939 39.9204C55.3512 39.2164 55.6299 38.109 55.6299 36.5984V33.3204ZM71.0581 33.3204V36.5984C71.0581 38.593 70.6107 40.1037 69.7161 41.1304C68.8214 42.157 67.5747 42.6704 65.9761 42.6704C64.3774 42.6704 63.1307 42.157 62.2361 41.1304C61.3561 40.1037 60.9161 38.593 60.9161 36.5984V33.3204C60.9161 31.3404 61.3634 29.837 62.2581 28.8104C63.1527 27.7837 64.3921 27.2704 65.9761 27.2704C67.5747 27.2704 68.8214 27.7837 69.7161 28.8104C70.6107 29.837 71.0581 31.3404 71.0581 33.3204ZM69.1221 33.3204C69.1221 31.795 68.8434 30.695 68.2861 30.0204C67.7434 29.3457 66.9734 29.0084 65.9761 29.0084C64.9934 29.0084 64.2234 29.3457 63.6661 30.0204C63.1234 30.695 62.8521 31.795 62.8521 33.3204V36.5984C62.8521 38.109 63.1234 39.2164 63.6661 39.9204C64.2234 40.6097 64.9934 40.9544 65.9761 40.9544C66.9734 40.9544 67.7434 40.6097 68.2861 39.9204C68.8434 39.2164 69.1221 38.109 69.1221 36.5984V33.3204Z" fill="#060606"/>
<rect x="140.389" y="12.7627" width="83.5374" height="96.3001" fill="#E87474"/>
<rect x="134.588" width="93.9796" height="12.7627" fill="#E87474"/>
<rect x="134.588" y="109.063" width="93.9796" height="12.7627" fill="#E87474"/>
<path d="M168.594 40.1789C168.594 41.2935 168.3 42.2249 167.714 42.9729C167.127 43.7062 166.196 44.1682 164.92 44.3589V47.1309H163.16V44.4029C162.544 44.3735 161.898 44.2782 161.224 44.1169C160.564 43.9409 159.889 43.6915 159.2 43.3689L159.794 41.7409C160.571 42.0929 161.268 42.3422 161.884 42.4889C162.514 42.6355 163.145 42.7089 163.776 42.7089C164.7 42.7089 165.411 42.5109 165.91 42.1149C166.408 41.7042 166.658 41.1102 166.658 40.3329C166.658 39.6875 166.482 39.1449 166.13 38.7049C165.792 38.2649 165.235 37.9275 164.458 37.6929L162.676 37.1649C161.561 36.8275 160.74 36.3215 160.212 35.6469C159.684 34.9575 159.42 34.1142 159.42 33.1169C159.42 32.4275 159.544 31.7969 159.794 31.2249C160.043 30.6382 160.439 30.1542 160.982 29.7729C161.539 29.3915 162.265 29.1569 163.16 29.0689V26.3189H164.92V29.0689C165.433 29.1275 165.961 29.2375 166.504 29.3989C167.046 29.5455 167.589 29.7435 168.132 29.9929L167.516 31.6429C166.812 31.3349 166.174 31.1149 165.602 30.9829C165.044 30.8362 164.509 30.7629 163.996 30.7629C163.16 30.7629 162.507 30.9389 162.038 31.2909C161.583 31.6282 161.356 32.1929 161.356 32.9849C161.356 33.5569 161.51 34.0409 161.818 34.4369C162.126 34.8182 162.676 35.1335 163.468 35.3829L165.25 35.9109C167.479 36.5709 168.594 37.9935 168.594 40.1789ZM169.932 31.3129L173.496 29.2449H175.234V44.2049H173.364V31.2689L170.768 32.7649L169.932 31.3129ZM180.179 44.2049H178.155V42.2029H180.179V44.2049ZM182.784 36.4169L183.224 29.2449H190.66V31.0049H184.918L184.654 35.2949C185.299 35.0749 185.996 34.9649 186.744 34.9649C188.123 34.9649 189.223 35.3315 190.044 36.0649C190.865 36.7982 191.276 37.8835 191.276 39.3209V39.9809C191.276 41.2862 190.895 42.3569 190.132 43.1929C189.369 44.0142 188.145 44.4249 186.458 44.4249C185.798 44.4249 185.109 44.3515 184.39 44.2049C183.686 44.0435 182.953 43.7942 182.19 43.4569L182.784 41.8729C183.503 42.1809 184.155 42.4009 184.742 42.5329C185.329 42.6502 185.893 42.7089 186.436 42.7089C187.345 42.7089 188.057 42.5035 188.57 42.0929C189.083 41.6675 189.34 40.9635 189.34 39.9809V39.3209C189.34 38.5142 189.105 37.8689 188.636 37.3849C188.181 36.9009 187.485 36.6589 186.546 36.6589C186.106 36.6589 185.673 36.7175 185.248 36.8349C184.823 36.9375 184.375 37.0915 183.906 37.2969L182.784 36.4169ZM204.252 35.0749V38.3529C204.252 40.3475 203.805 41.8582 202.91 42.8849C202.016 43.9115 200.769 44.4249 199.17 44.4249C197.572 44.4249 196.325 43.9115 195.43 42.8849C194.55 41.8582 194.11 40.3475 194.11 38.3529V35.0749C194.11 33.0949 194.558 31.5915 195.452 30.5649C196.347 29.5382 197.586 29.0249 199.17 29.0249C200.769 29.0249 202.016 29.5382 202.91 30.5649C203.805 31.5915 204.252 33.0949 204.252 35.0749ZM202.316 35.0749C202.316 33.5495 202.038 32.4495 201.48 31.7749C200.938 31.1002 200.168 30.7629 199.17 30.7629C198.188 30.7629 197.418 31.1002 196.86 31.7749C196.318 32.4495 196.046 33.5495 196.046 35.0749V38.3529C196.046 39.8635 196.318 40.9709 196.86 41.6749C197.418 42.3642 198.188 42.7089 199.17 42.7089C200.168 42.7089 200.938 42.3642 201.48 41.6749C202.038 40.9709 202.316 39.8635 202.316 38.3529V35.0749Z" fill="black"/>
<rect x="17.4037" y="190.86" width="58.0121" height="97.1703" rx="10" fill="#FB6E6E"/>
<path d="M73.7155 195.501C73.7155 196.587 73.0181 197.666 71.6504 198.688C70.2873 199.705 68.2989 200.632 65.8193 201.415C60.8631 202.981 54.0007 203.953 46.4097 203.953C38.8187 203.953 31.9563 202.981 27.0001 201.415C24.5206 200.632 22.5322 199.705 21.169 198.688C19.8013 197.666 19.104 196.587 19.104 195.501C19.104 194.415 19.8013 193.335 21.169 192.314C22.5322 191.296 24.5206 190.369 27.0001 189.586C31.9563 188.021 38.8187 187.049 46.4097 187.049C54.0007 187.049 60.8631 188.021 65.8193 189.586C68.2989 190.369 70.2873 191.296 71.6504 192.314C73.0181 193.335 73.7155 194.415 73.7155 195.501Z" fill="#D4D1D1" stroke="#BEBCBC" stroke-width="0.5"/>
<path d="M50.5606 195.501C50.5606 197.007 49.5675 198.403 47.8947 199.432C46.2251 200.46 43.9059 201.102 41.3336 201.102C38.7613 201.102 36.4422 200.46 34.7726 199.432C33.0997 198.403 32.1066 197.007 32.1066 195.501C32.1066 193.994 33.0997 192.598 34.7726 191.569C36.4422 190.542 38.7613 189.9 41.3336 189.9C43.9059 189.9 46.2251 190.542 47.8947 191.569C49.5675 192.598 50.5606 193.994 50.5606 195.501Z" fill="#D4D1D1" stroke="#BEBCBC" stroke-width="0.4"/>
<rect x="49.5103" y="191.35" width="14.103" height="8.30182" rx="1.8" fill="#D4D1D1" stroke="#BEBCBC" stroke-width="0.4"/>
<rect x="50.9607" y="192.8" width="3.95091" height="5.40121" rx="1.8" fill="#D4D1D1" stroke="#BEBCBC" stroke-width="0.4"/>
<rect x="56.7618" y="192.8" width="5.40121" height="5.40121" rx="1.8" fill="#D4D1D1" stroke="#BEBCBC" stroke-width="0.4"/>
<path d="M33.2803 243.221C33.2803 244.336 32.987 245.267 32.4003 246.015C31.8136 246.748 30.8823 247.21 29.6063 247.401V250.173H27.8463V247.445C27.2303 247.416 26.585 247.32 25.9103 247.159C25.2503 246.983 24.5756 246.734 23.8863 246.411L24.4803 244.783C25.2576 245.135 25.9543 245.384 26.5703 245.531C27.201 245.678 27.8316 245.751 28.4623 245.751C29.3863 245.751 30.0976 245.553 30.5963 245.157C31.095 244.746 31.3443 244.152 31.3443 243.375C31.3443 242.73 31.1683 242.187 30.8163 241.747C30.479 241.307 29.9216 240.97 29.1443 240.735L27.3623 240.207C26.2476 239.87 25.4263 239.364 24.8983 238.689C24.3703 238 24.1063 237.156 24.1063 236.159C24.1063 235.47 24.231 234.839 24.4803 234.267C24.7296 233.68 25.1256 233.196 25.6683 232.815C26.2256 232.434 26.9516 232.199 27.8463 232.111V229.361H29.6063V232.111C30.1196 232.17 30.6476 232.28 31.1903 232.441C31.733 232.588 32.2756 232.786 32.8183 233.035L32.2023 234.685C31.4983 234.377 30.8603 234.157 30.2883 234.025C29.731 233.878 29.1956 233.805 28.6823 233.805C27.8463 233.805 27.1936 233.981 26.7243 234.333C26.2696 234.67 26.0423 235.235 26.0423 236.027C26.0423 236.599 26.1963 237.083 26.5043 237.479C26.8123 237.86 27.3623 238.176 28.1543 238.425L29.9363 238.953C32.1656 239.613 33.2803 241.036 33.2803 243.221ZM34.6192 234.355L38.1832 232.287H39.9212V247.247H38.0512V234.311L35.4552 235.807L34.6192 234.355ZM44.8662 247.247H42.8422V245.245H44.8662V247.247ZM47.4707 239.459L47.9107 232.287H55.3467V234.047H49.6047L49.3407 238.337C49.986 238.117 50.6827 238.007 51.4307 238.007C52.8093 238.007 53.9093 238.374 54.7307 239.107C55.552 239.84 55.9627 240.926 55.9627 242.363V243.023C55.9627 244.328 55.5813 245.399 54.8187 246.235C54.056 247.056 52.8313 247.467 51.1447 247.467C50.4847 247.467 49.7953 247.394 49.0767 247.247C48.3727 247.086 47.6393 246.836 46.8767 246.499L47.4707 244.915C48.1893 245.223 48.842 245.443 49.4287 245.575C50.0153 245.692 50.58 245.751 51.1227 245.751C52.032 245.751 52.7433 245.546 53.2567 245.135C53.77 244.71 54.0267 244.006 54.0267 243.023V242.363C54.0267 241.556 53.792 240.911 53.3227 240.427C52.868 239.943 52.1713 239.701 51.2327 239.701C50.7927 239.701 50.36 239.76 49.9347 239.877C49.5093 239.98 49.062 240.134 48.5927 240.339L47.4707 239.459ZM68.939 238.117V241.395C68.939 243.39 68.4917 244.9 67.597 245.927C66.7024 246.954 65.4557 247.467 63.8571 247.467C62.2584 247.467 61.0117 246.954 60.117 245.927C59.237 244.9 58.797 243.39 58.797 241.395V238.117C58.797 236.137 59.2444 234.634 60.139 233.607C61.0337 232.58 62.273 232.067 63.8571 232.067C65.4557 232.067 66.7024 232.58 67.597 233.607C68.4917 234.634 68.939 236.137 68.939 238.117ZM67.0031 238.117C67.0031 236.592 66.7244 235.492 66.167 234.817C65.6244 234.142 64.8544 233.805 63.8571 233.805C62.8744 233.805 62.1044 234.142 61.547 234.817C61.0044 235.492 60.733 236.592 60.733 238.117V241.395C60.733 242.906 61.0044 244.013 61.547 244.717C62.1044 245.406 62.8744 245.751 63.8571 245.751C64.8544 245.751 65.6244 245.406 66.167 244.717C66.7244 244.013 67.0031 242.906 67.0031 241.395V238.117Z" fill="black"/>
<rect x="153.152" y="190.86" width="58.0121" height="97.1703" rx="10" fill="#89DD86"/>
<path d="M209.464 195.501C209.464 196.587 208.766 197.666 207.399 198.688C206.036 199.705 204.047 200.632 201.568 201.415C196.611 202.981 189.749 203.953 182.158 203.953C174.567 203.953 167.705 202.981 162.748 201.415C160.269 200.632 158.28 199.705 156.917 198.688C155.55 197.666 154.852 196.587 154.852 195.501C154.852 194.415 155.55 193.335 156.917 192.314C158.28 191.296 160.269 190.369 162.748 189.586C167.705 188.021 174.567 187.049 182.158 187.049C189.749 187.049 196.611 188.021 201.568 189.586C204.047 190.369 206.036 191.296 207.399 192.314C208.766 193.335 209.464 194.415 209.464 195.501Z" fill="#D4D1D1" stroke="#BEBCBC" stroke-width="0.5"/>
<path d="M186.309 195.501C186.309 197.007 185.316 198.403 183.643 199.432C181.973 200.46 179.654 201.102 177.082 201.102C174.51 201.102 172.191 200.46 170.521 199.432C168.848 198.403 167.855 197.007 167.855 195.501C167.855 193.994 168.848 192.598 170.521 191.569C172.191 190.542 174.51 189.9 177.082 189.9C179.654 189.9 181.973 190.542 183.643 191.569C185.316 192.598 186.309 193.994 186.309 195.501Z" fill="#D4D1D1" stroke="#BEBCBC" stroke-width="0.4"/>
<rect x="185.259" y="191.35" width="14.103" height="8.30182" rx="1.8" fill="#D4D1D1" stroke="#BEBCBC" stroke-width="0.4"/>
<rect x="186.709" y="192.8" width="3.95091" height="5.40121" rx="1.8" fill="#D4D1D1" stroke="#BEBCBC" stroke-width="0.4"/>
<rect x="192.51" y="192.8" width="5.40121" height="5.40121" rx="1.8" fill="#D4D1D1" stroke="#BEBCBC" stroke-width="0.4"/>
<path d="M171.22 243.221C171.22 244.336 170.927 245.267 170.34 246.015C169.753 246.749 168.822 247.211 167.546 247.401V250.173H165.786V247.445C165.17 247.416 164.525 247.321 163.85 247.159C163.19 246.983 162.515 246.734 161.826 246.411L162.42 244.783C163.197 245.135 163.894 245.385 164.51 245.531C165.141 245.678 165.771 245.751 166.402 245.751C167.326 245.751 168.037 245.553 168.536 245.157C169.035 244.747 169.284 244.153 169.284 243.375C169.284 242.73 169.108 242.187 168.756 241.747C168.419 241.307 167.861 240.97 167.084 240.735L165.302 240.207C164.187 239.87 163.366 239.364 162.838 238.689C162.31 238 162.046 237.157 162.046 236.159C162.046 235.47 162.171 234.839 162.42 234.267C162.669 233.681 163.065 233.197 163.608 232.815C164.165 232.434 164.891 232.199 165.786 232.111V229.361H167.546V232.111C168.059 232.17 168.587 232.28 169.13 232.441C169.673 232.588 170.215 232.786 170.758 233.035L170.142 234.685C169.438 234.377 168.8 234.157 168.228 234.025C167.671 233.879 167.135 233.805 166.622 233.805C165.786 233.805 165.133 233.981 164.664 234.333C164.209 234.671 163.982 235.235 163.982 236.027C163.982 236.599 164.136 237.083 164.444 237.479C164.752 237.861 165.302 238.176 166.094 238.425L167.876 238.953C170.105 239.613 171.22 241.036 171.22 243.221ZM172.559 234.355L176.123 232.287H177.861V247.247H175.991V234.311L173.395 235.807L172.559 234.355ZM182.806 247.247H180.782V245.245H182.806V247.247ZM192.26 233.827C191.16 236.071 190.229 238.315 189.466 240.559C188.703 242.789 188.124 245.018 187.728 247.247H185.77C186.166 245.047 186.738 242.847 187.486 240.647C188.234 238.447 189.143 236.247 190.214 234.047H183.306V232.287H192.26V233.827ZM194.52 239.459L194.96 232.287H202.396V234.047H196.654L196.39 238.337C197.035 238.117 197.732 238.007 198.48 238.007C199.858 238.007 200.958 238.374 201.78 239.107C202.601 239.841 203.012 240.926 203.012 242.363V243.023C203.012 244.329 202.63 245.399 201.868 246.235C201.105 247.057 199.88 247.467 198.194 247.467C197.534 247.467 196.844 247.394 196.126 247.247C195.422 247.086 194.688 246.837 193.926 246.499L194.52 244.915C195.238 245.223 195.891 245.443 196.478 245.575C197.064 245.693 197.629 245.751 198.172 245.751C199.081 245.751 199.792 245.546 200.306 245.135C200.819 244.71 201.076 244.006 201.076 243.023V242.363C201.076 241.557 200.841 240.911 200.372 240.427C199.917 239.943 199.22 239.701 198.282 239.701C197.842 239.701 197.409 239.76 196.984 239.877C196.558 239.98 196.111 240.134 195.642 240.339L194.52 239.459Z" fill="black"/>
<rect x="12.7627" y="341.111" width="66.1338" height="107.903" fill="#B14936"/>
<rect x="9.28195" y="331.829" width="73.0953" height="9.28194" fill="#F1E8E8"/>
<rect x="9.28195" y="449.014" width="73.0953" height="9.28194" fill="#F1E8E8"/>
<path d="M32.6025 395.974C32.6025 397.089 32.3092 398.02 31.7225 398.768C31.1359 399.501 30.2045 399.963 28.9285 400.154V402.926H27.1685V400.198C26.5525 400.169 25.9072 400.073 25.2325 399.912C24.5725 399.736 23.8979 399.487 23.2085 399.164L23.8025 397.536C24.5799 397.888 25.2765 398.137 25.8925 398.284C26.5232 398.431 27.1539 398.504 27.7845 398.504C28.7085 398.504 29.4199 398.306 29.9185 397.91C30.4172 397.499 30.6665 396.905 30.6665 396.128C30.6665 395.483 30.4905 394.94 30.1385 394.5C29.8012 394.06 29.2439 393.723 28.4665 393.488L26.6845 392.96C25.5699 392.623 24.7485 392.117 24.2205 391.442C23.6925 390.753 23.4285 389.909 23.4285 388.912C23.4285 388.223 23.5532 387.592 23.8025 387.02C24.0519 386.433 24.4479 385.949 24.9905 385.568C25.5479 385.187 26.2739 384.952 27.1685 384.864V382.114H28.9285V384.864C29.4419 384.923 29.9699 385.033 30.5125 385.194C31.0552 385.341 31.5979 385.539 32.1405 385.788L31.5245 387.438C30.8205 387.13 30.1825 386.91 29.6105 386.778C29.0532 386.631 28.5179 386.558 28.0045 386.558C27.1685 386.558 26.5159 386.734 26.0465 387.086C25.5919 387.423 25.3645 387.988 25.3645 388.78C25.3645 389.352 25.5185 389.836 25.8265 390.232C26.1345 390.613 26.6845 390.929 27.4765 391.178L29.2585 391.706C31.4879 392.366 32.6025 393.789 32.6025 395.974ZM43.0934 400H34.5574V398.548C34.5574 397.448 34.6894 396.524 34.9534 395.776C35.2321 395.028 35.5988 394.412 36.0534 393.928C36.5228 393.429 37.0434 393.033 37.6154 392.74L39.0454 392.014C39.7201 391.662 40.2554 391.295 40.6514 390.914C41.0621 390.533 41.2674 389.983 41.2674 389.264V388.89C41.2674 388.069 41.0328 387.475 40.5634 387.108C40.1088 386.741 39.4341 386.558 38.5394 386.558C38.0408 386.558 37.5128 386.624 36.9554 386.756C36.3981 386.873 35.7821 387.079 35.1074 387.372L34.4914 385.766C35.2248 385.429 35.9288 385.187 36.6034 385.04C37.2928 384.893 37.9528 384.82 38.5834 384.82C40.2114 384.82 41.3774 385.201 42.0814 385.964C42.7854 386.712 43.1374 387.687 43.1374 388.89V389.264C43.1374 390.056 42.9834 390.716 42.6754 391.244C42.3821 391.772 41.9861 392.219 41.4874 392.586C41.0034 392.938 40.4828 393.253 39.9254 393.532L38.4954 394.28C37.8061 394.647 37.2928 395.153 36.9554 395.798C36.6328 396.443 36.4568 397.265 36.4274 398.262H43.0934V400ZM47.497 400H45.473V397.998H47.497V400ZM58.1755 400H49.6395V398.548C49.6395 397.448 49.7715 396.524 50.0355 395.776C50.3141 395.028 50.6808 394.412 51.1355 393.928C51.6048 393.429 52.1255 393.033 52.6975 392.74L54.1275 392.014C54.8021 391.662 55.3375 391.295 55.7335 390.914C56.1441 390.533 56.3495 389.983 56.3495 389.264V388.89C56.3495 388.069 56.1148 387.475 55.6455 387.108C55.1908 386.741 54.5161 386.558 53.6215 386.558C53.1228 386.558 52.5948 386.624 52.0375 386.756C51.4801 386.873 50.8641 387.079 50.1895 387.372L49.5735 385.766C50.3068 385.429 51.0108 385.187 51.6855 385.04C52.3748 384.893 53.0348 384.82 53.6655 384.82C55.2935 384.82 56.4595 385.201 57.1635 385.964C57.8675 386.712 58.2195 387.687 58.2195 388.89V389.264C58.2195 390.056 58.0655 390.716 57.7575 391.244C57.4641 391.772 57.0681 392.219 56.5695 392.586C56.0855 392.938 55.5648 393.253 55.0075 393.532L53.5775 394.28C52.8881 394.647 52.3748 395.153 52.0375 395.798C51.7148 396.443 51.5388 397.265 51.5095 398.262H58.1755V400ZM60.9511 392.212L61.3911 385.04H68.8271V386.8H63.0851L62.8211 391.09C63.4664 390.87 64.1631 390.76 64.9111 390.76C66.2897 390.76 67.3897 391.127 68.2111 391.86C69.0324 392.593 69.4431 393.679 69.4431 395.116V395.776C69.4431 397.081 69.0617 398.152 68.2991 398.988C67.5364 399.809 66.3117 400.22 64.6251 400.22C63.9651 400.22 63.2757 400.147 62.5571 400C61.8531 399.839 61.1197 399.589 60.3571 399.252L60.9511 397.668C61.6697 397.976 62.3224 398.196 62.9091 398.328C63.4957 398.445 64.0604 398.504 64.6031 398.504C65.5124 398.504 66.2237 398.299 66.7371 397.888C67.2504 397.463 67.5071 396.759 67.5071 395.776V395.116C67.5071 394.309 67.2724 393.664 66.8031 393.18C66.3484 392.696 65.6517 392.454 64.7131 392.454C64.2731 392.454 63.8404 392.513 63.4151 392.63C62.9897 392.733 62.5424 392.887 62.0731 393.092L60.9511 392.212Z" fill="black"/>
<rect x="281.939" y="341.111" width="66.1338" height="107.903" fill="#9AE0C4"/>
<rect x="278.458" y="331.829" width="73.0953" height="9.28194" fill="#F1E8E8"/>
<rect x="278.458" y="449.014" width="73.0953" height="9.28194" fill="#F1E8E8"/>
<path d="M298.814 395.974C298.814 397.089 298.521 398.02 297.934 398.768C297.348 399.501 296.416 399.963 295.14 400.154V402.926H293.38V400.198C292.764 400.169 292.119 400.073 291.444 399.912C290.784 399.736 290.11 399.487 289.42 399.164L290.014 397.536C290.792 397.888 291.488 398.137 292.104 398.284C292.735 398.431 293.366 398.504 293.996 398.504C294.92 398.504 295.632 398.306 296.13 397.91C296.629 397.499 296.878 396.905 296.878 396.128C296.878 395.483 296.702 394.94 296.35 394.5C296.013 394.06 295.456 393.723 294.678 393.488L292.896 392.96C291.782 392.623 290.96 392.117 290.432 391.442C289.904 390.753 289.64 389.909 289.64 388.912C289.64 388.223 289.765 387.592 290.014 387.02C290.264 386.433 290.66 385.949 291.202 385.568C291.76 385.187 292.486 384.952 293.38 384.864V382.114H295.14V384.864C295.654 384.923 296.182 385.033 296.724 385.194C297.267 385.341 297.81 385.539 298.352 385.788L297.736 387.438C297.032 387.13 296.394 386.91 295.822 386.778C295.265 386.631 294.73 386.558 294.216 386.558C293.38 386.558 292.728 386.734 292.258 387.086C291.804 387.423 291.576 387.988 291.576 388.78C291.576 389.352 291.73 389.836 292.038 390.232C292.346 390.613 292.896 390.929 293.688 391.178L295.47 391.706C297.7 392.366 298.814 393.789 298.814 395.974ZM309.305 400H300.769V398.548C300.769 397.448 300.901 396.524 301.165 395.776C301.444 395.028 301.811 394.412 302.265 393.928C302.735 393.429 303.255 393.033 303.827 392.74L305.257 392.014C305.932 391.662 306.467 391.295 306.863 390.914C307.274 390.533 307.479 389.983 307.479 389.264V388.89C307.479 388.069 307.245 387.475 306.775 387.108C306.321 386.741 305.646 386.558 304.751 386.558C304.253 386.558 303.725 386.624 303.167 386.756C302.61 386.873 301.994 387.079 301.319 387.372L300.703 385.766C301.437 385.429 302.141 385.187 302.815 385.04C303.505 384.893 304.165 384.82 304.795 384.82C306.423 384.82 307.589 385.201 308.293 385.964C308.997 386.712 309.349 387.687 309.349 388.89V389.264C309.349 390.056 309.195 390.716 308.887 391.244C308.594 391.772 308.198 392.219 307.699 392.586C307.215 392.938 306.695 393.253 306.137 393.532L304.707 394.28C304.018 394.647 303.505 395.153 303.167 395.798C302.845 396.443 302.669 397.265 302.639 398.262H309.305V400ZM313.709 400H311.685V397.998H313.709V400ZM326.223 390.87V394.148C326.223 396.143 325.776 397.653 324.881 398.68C323.987 399.707 322.74 400.22 321.141 400.22C319.543 400.22 318.296 399.707 317.401 398.68C316.521 397.653 316.081 396.143 316.081 394.148V390.87C316.081 388.89 316.529 387.387 317.423 386.36C318.318 385.333 319.557 384.82 321.141 384.82C322.74 384.82 323.987 385.333 324.881 386.36C325.776 387.387 326.223 388.89 326.223 390.87ZM324.287 390.87C324.287 389.345 324.009 388.245 323.451 387.57C322.909 386.895 322.139 386.558 321.141 386.558C320.159 386.558 319.389 386.895 318.831 387.57C318.289 388.245 318.017 389.345 318.017 390.87V394.148C318.017 395.659 318.289 396.766 318.831 397.47C319.389 398.159 320.159 398.504 321.141 398.504C322.139 398.504 322.909 398.159 323.451 397.47C324.009 396.766 324.287 395.659 324.287 394.148V390.87ZM339.715 390.87V394.148C339.715 396.143 339.268 397.653 338.373 398.68C337.479 399.707 336.232 400.22 334.633 400.22C333.035 400.22 331.788 399.707 330.893 398.68C330.013 397.653 329.573 396.143 329.573 394.148V390.87C329.573 388.89 330.021 387.387 330.915 386.36C331.81 385.333 333.049 384.82 334.633 384.82C336.232 384.82 337.479 385.333 338.373 386.36C339.268 387.387 339.715 388.89 339.715 390.87ZM337.779 390.87C337.779 389.345 337.501 388.245 336.943 387.57C336.401 386.895 335.631 386.558 334.633 386.558C333.651 386.558 332.881 386.895 332.323 387.57C331.781 388.245 331.509 389.345 331.509 390.87V394.148C331.509 395.659 331.781 396.766 332.323 397.47C332.881 398.159 333.651 398.504 334.633 398.504C335.631 398.504 336.401 398.159 336.943 397.47C337.501 396.766 337.779 395.659 337.779 394.148V390.87Z" fill="black"/>
<rect x="148.511" y="341.111" width="66.1338" height="107.903" fill="#A76CEB"/>
<rect x="145.03" y="331.829" width="73.0953" height="9.28194" fill="#F1E8E8"/>
<rect x="145.03" y="449.014" width="73.0953" height="9.28194" fill="#F1E8E8"/>
<path d="M166.781 396.974C166.781 398.089 166.488 399.02 165.901 399.768C165.315 400.501 164.383 400.963 163.107 401.154V403.926H161.347V401.198C160.731 401.169 160.086 401.073 159.411 400.912C158.751 400.736 158.077 400.487 157.387 400.164L157.981 398.536C158.759 398.888 159.455 399.137 160.071 399.284C160.702 399.431 161.333 399.504 161.963 399.504C162.887 399.504 163.599 399.306 164.097 398.91C164.596 398.499 164.845 397.905 164.845 397.128C164.845 396.483 164.669 395.94 164.317 395.5C163.98 395.06 163.423 394.723 162.645 394.488L160.863 393.96C159.749 393.623 158.927 393.117 158.399 392.442C157.871 391.753 157.607 390.909 157.607 389.912C157.607 389.223 157.732 388.592 157.981 388.02C158.231 387.433 158.627 386.949 159.169 386.568C159.727 386.187 160.453 385.952 161.347 385.864V383.114H163.107V385.864C163.621 385.923 164.149 386.033 164.691 386.194C165.234 386.341 165.777 386.539 166.319 386.788L165.703 388.438C164.999 388.13 164.361 387.91 163.789 387.778C163.232 387.631 162.697 387.558 162.183 387.558C161.347 387.558 160.695 387.734 160.225 388.086C159.771 388.423 159.543 388.988 159.543 389.78C159.543 390.352 159.697 390.836 160.005 391.232C160.313 391.613 160.863 391.929 161.655 392.178L163.437 392.706C165.667 393.366 166.781 394.789 166.781 396.974ZM177.272 401H168.736V399.548C168.736 398.448 168.868 397.524 169.132 396.776C169.411 396.028 169.777 395.412 170.232 394.928C170.701 394.429 171.222 394.033 171.794 393.74L173.224 393.014C173.899 392.662 174.434 392.295 174.83 391.914C175.241 391.533 175.446 390.983 175.446 390.264V389.89C175.446 389.069 175.211 388.475 174.742 388.108C174.287 387.741 173.613 387.558 172.718 387.558C172.219 387.558 171.691 387.624 171.134 387.756C170.577 387.873 169.961 388.079 169.286 388.372L168.67 386.766C169.403 386.429 170.107 386.187 170.782 386.04C171.471 385.893 172.131 385.82 172.762 385.82C174.39 385.82 175.556 386.201 176.26 386.964C176.964 387.712 177.316 388.687 177.316 389.89V390.264C177.316 391.056 177.162 391.716 176.854 392.244C176.561 392.772 176.165 393.219 175.666 393.586C175.182 393.938 174.661 394.253 174.104 394.532L172.674 395.28C171.985 395.647 171.471 396.153 171.134 396.798C170.811 397.443 170.635 398.265 170.606 399.262H177.272V401ZM181.676 401H179.652V398.998H181.676V401ZM184.28 393.212L184.72 386.04H192.156V387.8H186.414L186.15 392.09C186.796 391.87 187.492 391.76 188.24 391.76C189.619 391.76 190.719 392.127 191.54 392.86C192.362 393.593 192.772 394.679 192.772 396.116V396.776C192.772 398.081 192.391 399.152 191.628 399.988C190.866 400.809 189.641 401.22 187.954 401.22C187.294 401.22 186.605 401.147 185.886 401C185.182 400.839 184.449 400.589 183.686 400.252L184.28 398.668C184.999 398.976 185.652 399.196 186.238 399.328C186.825 399.445 187.39 399.504 187.932 399.504C188.842 399.504 189.553 399.299 190.066 398.888C190.58 398.463 190.836 397.759 190.836 396.776V396.116C190.836 395.309 190.602 394.664 190.132 394.18C189.678 393.696 188.981 393.454 188.042 393.454C187.602 393.454 187.17 393.513 186.744 393.63C186.319 393.733 185.872 393.887 185.402 394.092L184.28 393.212ZM205.749 391.87V395.148C205.749 397.143 205.301 398.653 204.407 399.68C203.512 400.707 202.265 401.22 200.667 401.22C199.068 401.22 197.821 400.707 196.927 399.68C196.047 398.653 195.607 397.143 195.607 395.148V391.87C195.607 389.89 196.054 388.387 196.949 387.36C197.843 386.333 199.083 385.82 200.667 385.82C202.265 385.82 203.512 386.333 204.407 387.36C205.301 388.387 205.749 389.89 205.749 391.87ZM203.813 391.87C203.813 390.345 203.534 389.245 202.977 388.57C202.434 387.895 201.664 387.558 200.667 387.558C199.684 387.558 198.914 387.895 198.357 388.57C197.814 389.245 197.543 390.345 197.543 391.87V395.148C197.543 396.659 197.814 397.766 198.357 398.47C198.914 399.159 199.684 399.504 200.667 399.504C201.664 399.504 202.434 399.159 202.977 398.47C203.534 397.766 203.813 396.659 203.813 395.148V391.87Z" fill="black"/>
</svg>
