<svg width="311" height="125" viewBox="0 0 311 125" fill="none" xmlns="http://www.w3.org/2000/svg">
<rect x="2.5" y="2.5" width="306" height="120" rx="20.5" fill="#859B88" stroke="#5E8C68" stroke-width="5"/>
<path d="M18.392 24.32H20.732V35.656C20.732 37.0773 21.0267 38.1867 21.616 38.984C22.2227 39.7813 23.1587 40.18 24.424 40.18C25.7067 40.18 26.6427 39.7813 27.232 38.984C27.8213 38.1867 28.116 37.0773 28.116 35.656V24.32H30.456V35.656C30.456 37.7187 29.9533 39.3393 28.948 40.518C27.9427 41.6793 26.4347 42.26 24.424 42.26C22.396 42.26 20.8793 41.6793 19.874 40.518C18.886 39.3393 18.392 37.7187 18.392 35.656V24.32ZM35.6154 42V24.32H37.9814C39.5587 26.5733 41.006 28.844 42.3234 31.132C43.658 33.4027 44.906 35.7773 46.0674 38.256L45.8074 31.496V24.32H48.0174V42H45.6514C44.438 39.4693 43.1814 37.008 41.8814 34.616C40.5987 32.2067 39.1947 29.858 37.6694 27.57L37.8254 34.772V42H35.6154ZM55.1005 35.11C55.1005 36.7393 55.4212 37.996 56.0625 38.88C56.7212 39.7467 57.7265 40.18 59.0785 40.18C59.6679 40.18 60.2485 40.1107 60.8205 39.972C61.3925 39.8333 62.0772 39.5907 62.8745 39.244L63.6285 41.168C62.7792 41.5493 61.9732 41.8267 61.2105 42C60.4479 42.1733 59.7112 42.26 59.0005 42.26C56.9552 42.26 55.4039 41.6187 54.3465 40.336C53.2892 39.0533 52.7605 37.3113 52.7605 35.11V31.21C52.7605 29.0087 53.2892 27.2667 54.3465 25.984C55.4039 24.7013 56.9552 24.06 59.0005 24.06C59.7112 24.06 60.4479 24.1467 61.2105 24.32C61.9905 24.4933 62.7792 24.7707 63.5765 25.152L62.8485 27.102C61.4445 26.478 60.1879 26.166 59.0785 26.166C57.7265 26.166 56.7212 26.5993 56.0625 27.466C55.4212 28.3327 55.1005 29.5807 55.1005 31.21V35.11ZM79.087 31.21V35.084C79.087 37.2853 78.5323 39.036 77.423 40.336C76.331 41.6187 74.7536 42.26 72.691 42.26C70.6283 42.26 69.0423 41.6187 67.933 40.336C66.841 39.036 66.295 37.2853 66.295 35.084V31.21C66.295 29.026 66.841 27.2927 67.933 26.01C69.0423 24.71 70.6283 24.06 72.691 24.06C74.7536 24.06 76.331 24.71 77.423 26.01C78.5323 27.2927 79.087 29.026 79.087 31.21ZM76.747 31.21C76.747 29.598 76.4003 28.3587 75.707 27.492C75.031 26.608 74.0256 26.166 72.691 26.166C71.3736 26.166 70.3683 26.608 69.675 27.492C68.9816 28.3587 68.635 29.598 68.635 31.21V35.084C68.635 36.7133 68.9816 37.97 69.675 38.854C70.3683 39.738 71.3736 40.18 72.691 40.18C74.0256 40.18 75.031 39.738 75.707 38.854C76.4003 37.97 76.747 36.7133 76.747 35.084V31.21ZM93.555 39.894V42H83.883V24.32H86.145V39.894H93.555ZM106.707 39.894V42H97.0353V24.32H99.2973V39.894H106.707ZM120.068 39.894V42H110.188V24.32H119.808V26.452H112.45V31.99H119.028V34.122H112.45V39.894H120.068ZM125.534 35.11C125.534 36.7393 125.855 37.996 126.496 38.88C127.155 39.7467 128.16 40.18 129.512 40.18C130.101 40.18 130.682 40.1107 131.254 39.972C131.826 39.8333 132.511 39.5907 133.308 39.244L134.062 41.168C133.213 41.5493 132.407 41.8267 131.644 42C130.881 42.1733 130.145 42.26 129.434 42.26C127.389 42.26 125.837 41.6187 124.78 40.336C123.723 39.0533 123.194 37.3113 123.194 35.11V31.21C123.194 29.0087 123.723 27.2667 124.78 25.984C125.837 24.7013 127.389 24.06 129.434 24.06C130.145 24.06 130.881 24.1467 131.644 24.32C132.424 24.4933 133.213 24.7707 134.01 25.152L133.282 27.102C131.878 26.478 130.621 26.166 129.512 26.166C128.16 26.166 127.155 26.5993 126.496 27.466C125.855 28.3327 125.534 29.5807 125.534 31.21V35.11ZM135.344 26.452V24.32H147.902V26.452H142.754V42H140.492V26.452H135.344ZM160.87 39.894V42H150.99V24.32H160.61V26.452H153.252V31.99H159.83V34.122H153.252V39.894H160.87ZM164.803 42V24.32H170.289C172.317 24.32 173.877 24.9353 174.969 26.166C176.061 27.3793 176.607 29.0607 176.607 31.21V35.084C176.607 37.2507 176.061 38.9493 174.969 40.18C173.877 41.3933 172.317 42 170.289 42H164.803ZM170.237 26.452H167.065V39.894H170.237C172.924 39.894 174.267 38.2907 174.267 35.084V31.21C174.267 28.038 172.924 26.452 170.237 26.452ZM189.282 35.084V42H187.02V24.32H192.558C194.222 24.32 195.504 24.762 196.406 25.646C197.324 26.5127 197.784 27.674 197.784 29.13V30.248C197.784 31.288 197.541 32.1893 197.056 32.952C196.588 33.7147 195.912 34.278 195.028 34.642C195.773 35.838 196.466 37.0513 197.108 38.282C197.749 39.5127 198.338 40.752 198.876 42H196.276C195.288 39.6427 194.135 37.3373 192.818 35.084H189.282ZM192.558 26.4H189.282V33.004H192.558C193.442 33.004 194.144 32.7613 194.664 32.276C195.184 31.7733 195.444 31.0973 195.444 30.248V29.13C195.444 28.2633 195.184 27.596 194.664 27.128C194.144 26.6427 193.442 26.4 192.558 26.4ZM212.515 39.894V42H202.635V24.32H212.255V26.452H204.897V31.99H211.475V34.122H204.897V39.894H212.515ZM227.809 24.32L222.167 42H219.879L214.211 24.32H216.603L219.411 33.29L221.101 38.958L222.817 33.264L225.573 24.32H227.809ZM240.978 39.894V42H231.098V24.32H240.718V26.452H233.36V31.99H239.938V34.122H233.36V39.894H240.978ZM244.91 42V24.32H247.276C248.854 26.5733 250.301 28.844 251.618 31.132C252.953 33.4027 254.201 35.7773 255.362 38.256L255.102 31.496V24.32H257.312V42H254.946C253.733 39.4693 252.476 37.008 251.176 34.616C249.894 32.2067 248.49 29.858 246.964 27.57L247.12 34.772V42H244.91ZM262.497 24.32H264.837V35.656C264.837 37.0773 265.132 38.1867 265.721 38.984C266.328 39.7813 267.264 40.18 268.529 40.18C269.812 40.18 270.748 39.7813 271.337 38.984C271.927 38.1867 272.221 37.0773 272.221 35.656V24.32H274.561V35.656C274.561 37.7187 274.059 39.3393 273.053 40.518C272.048 41.6793 270.54 42.26 268.529 42.26C266.501 42.26 264.985 41.6793 263.979 40.518C262.991 39.3393 262.497 37.7187 262.497 35.656V24.32ZM289.601 39.894V42H279.721V24.32H289.341V26.452H281.983V31.99H288.561V34.122H281.983V39.894H289.601Z" fill="#43E534"/>
</svg>
