<svg width="657" height="894" viewBox="0 0 657 894" fill="none" xmlns="http://www.w3.org/2000/svg">
<rect x="521.628" y="801.247" width="64.9736" height="62.6531" rx="8" fill="#7E7E7E"/>
<rect x="521.628" y="801.247" width="64.9736" height="62.6531" rx="8" fill="#7E7E7E"/>
<rect x="521.628" y="801.247" width="64.9736" height="62.6531" rx="8" fill="#7E7E7E"/>
<g filter="url(#filter0_d_6_235)">
<rect x="489.141" y="823.291" width="64.9736" height="62.6531" rx="8" fill="#7E7E7E"/>
<rect x="489.141" y="823.291" width="64.9736" height="62.6531" rx="8" fill="#7E7E7E"/>
<rect x="489.141" y="823.291" width="64.9736" height="62.6531" rx="8" fill="#7E7E7E"/>
</g>
<g filter="url(#filter1_d_6_235)">
<rect x="69.1338" y="823.291" width="64.9736" height="62.6531" rx="8" fill="#7E7E7E"/>
<rect x="69.1338" y="823.291" width="64.9736" height="62.6531" rx="8" fill="#7E7E7E"/>
<rect x="69.1338" y="823.291" width="64.9736" height="62.6531" rx="8" fill="#7E7E7E"/>
</g>
<g filter="url(#filter2_d_6_235)">
<rect x="41.288" y="4.16025" width="611.448" height="794.766" rx="30" fill="#E4B6EC"/>
</g>
<g filter="url(#filter3_d_6_235)">
<rect x="4.16025" y="36.6471" width="611.448" height="794.766" rx="30" fill="#E4B6EC"/>
</g>
<rect x="69.1338" y="103.941" width="443.212" height="589.403" rx="30" fill="#ECDFDF"/>
<rect x="80.7362" y="724.671" width="421.168" height="74.2555" rx="12" fill="#A89B9B"/>
<rect x="572" y="814" width="84.4666" height="30.2319" rx="13" transform="rotate(-42 572 814)" fill="#E4B6EC"/>
<rect x="2" y="55.1759" width="82.4591" height="37.1277" rx="13" transform="rotate(-42 2 55.1759)" fill="#E4B6EC"/>
<path d="M250.24 774V746.8H258.72C261.333 746.8 263.32 747.493 264.68 748.88C266.067 750.24 266.76 752.067 266.76 754.36V756.48C266.76 758.773 266.067 760.613 264.68 762C263.32 763.387 261.333 764.08 258.72 764.08H253.72V774H250.24ZM258.72 750.08H253.72V760.84H258.72C260.16 760.84 261.253 760.453 262 759.68C262.773 758.907 263.16 757.84 263.16 756.48V754.36C263.16 753.027 262.773 751.987 262 751.24C261.253 750.467 260.16 750.08 258.72 750.08ZM271.75 746.8H275.35V764.24C275.35 766.427 275.804 768.133 276.71 769.36C277.644 770.587 279.084 771.2 281.03 771.2C283.004 771.2 284.444 770.587 285.35 769.36C286.257 768.133 286.71 766.427 286.71 764.24V746.8H290.31V764.24C290.31 767.413 289.537 769.907 287.99 771.72C286.444 773.507 284.124 774.4 281.03 774.4C277.91 774.4 275.577 773.507 274.03 771.72C272.51 769.907 271.75 767.413 271.75 764.24V746.8ZM303.808 771.28C305.488 771.28 306.781 770.92 307.688 770.2C308.594 769.453 309.048 768.373 309.048 766.96C309.048 765.787 308.728 764.8 308.088 764C307.474 763.2 306.461 762.587 305.048 762.16L301.808 761.2C299.781 760.587 298.288 759.667 297.328 758.44C296.368 757.187 295.888 755.653 295.888 753.84C295.888 752.453 296.154 751.2 296.688 750.08C297.248 748.96 298.128 748.067 299.328 747.4C300.554 746.733 302.154 746.4 304.128 746.4C305.328 746.4 306.568 746.547 307.848 746.84C309.128 747.107 310.421 747.547 311.728 748.16L310.608 751.16C309.328 750.6 308.168 750.2 307.128 749.96C306.114 749.693 305.141 749.56 304.208 749.56C302.688 749.56 301.501 749.88 300.648 750.52C299.821 751.133 299.408 752.16 299.408 753.6C299.408 754.64 299.688 755.52 300.248 756.24C300.808 756.933 301.808 757.507 303.248 757.96L306.488 758.92C310.541 760.12 312.568 762.707 312.568 766.68C312.568 768.973 311.874 770.84 310.488 772.28C309.101 773.693 306.874 774.4 303.808 774.4C302.554 774.4 301.221 774.253 299.808 773.96C298.421 773.64 296.981 773.147 295.488 772.48L296.568 769.52C297.981 770.16 299.248 770.613 300.368 770.88C301.514 771.147 302.661 771.28 303.808 771.28ZM333.842 774V761.88H321.962V774H318.482V746.8H321.962V758.6H333.842V746.8H337.322V774H333.842Z" fill="#877E7E"/>
<rect x="216.128" y="347.592" width="7.49695" height="84.6977" fill="#CDC3C3"/>
<rect x="100.46" y="432.29" width="389.841" height="8.1217" fill="#CDC3C3"/>
<rect x="359.641" y="347.592" width="7.49695" height="84.6977" fill="#CDC3C3"/>
<rect x="99.3001" y="268.695" width="389.841" height="8.1217" fill="#CDC3C3"/>
<rect x="214.967" y="183.998" width="7.49695" height="84.6977" fill="#CDC3C3"/>
<rect x="358.48" y="183.998" width="7.49695" height="84.6977" fill="#CDC3C3"/>
<rect x="99.3001" y="602.845" width="389.841" height="8.1217" fill="#CDC3C3"/>
<rect x="358.48" y="518.147" width="7.49695" height="84.6977" fill="#CDC3C3"/>
<rect x="214.967" y="518.147" width="7.49695" height="84.6977" fill="#CDC3C3"/>
<rect x="69.1338" y="103.941" width="443.212" height="589.403" rx="30" fill="url(#paint0_linear_6_235)" fill-opacity="0.15"/>
<rect x="394.002" y="335.409" width="58.0121" height="97.1703" rx="10" fill="#94B2FB"/>
<path d="M450.313 340.05C450.313 341.136 449.616 342.216 448.248 343.237C446.885 344.255 444.897 345.182 442.417 345.965C437.461 347.53 430.599 348.502 423.008 348.502C415.417 348.502 408.554 347.53 403.598 345.965C401.119 345.182 399.13 344.255 397.767 343.237C396.399 342.216 395.702 341.136 395.702 340.05C395.702 338.964 396.399 337.885 397.767 336.863C399.13 335.846 401.119 334.919 403.598 334.136C408.554 332.57 415.417 331.598 423.008 331.598C430.599 331.598 437.461 332.57 442.417 334.136C444.897 334.919 446.885 335.846 448.248 336.863C449.616 337.885 450.313 338.964 450.313 340.05Z" fill="#D4D1D1" stroke="#BEBCBC" stroke-width="0.5"/>
<path d="M427.159 340.05C427.159 341.557 426.165 342.953 424.493 343.982C422.823 345.009 420.504 345.651 417.932 345.651C415.359 345.651 413.04 345.009 411.371 343.982C409.698 342.953 408.705 341.557 408.705 340.05C408.705 338.544 409.698 337.148 411.371 336.119C413.04 335.091 415.359 334.449 417.932 334.449C420.504 334.449 422.823 335.091 424.493 336.119C426.165 337.148 427.159 338.544 427.159 340.05Z" fill="#D4D1D1" stroke="#BEBCBC" stroke-width="0.4"/>
<rect x="426.108" y="335.899" width="14.103" height="8.30182" rx="1.8" fill="#D4D1D1" stroke="#BEBCBC" stroke-width="0.4"/>
<rect x="427.559" y="337.35" width="3.95091" height="5.40121" rx="1.8" fill="#D4D1D1" stroke="#BEBCBC" stroke-width="0.4"/>
<rect x="433.36" y="337.35" width="5.40121" height="5.40121" rx="1.8" fill="#D4D1D1" stroke="#BEBCBC" stroke-width="0.4"/>
<path d="M404.866 389.437C405.706 389.437 406.353 389.257 406.806 388.897C407.26 388.523 407.486 387.983 407.486 387.277C407.486 386.69 407.326 386.197 407.006 385.797C406.7 385.397 406.193 385.09 405.486 384.877L403.866 384.397C402.853 384.09 402.106 383.63 401.626 383.017C401.146 382.39 400.906 381.623 400.906 380.717C400.906 380.023 401.04 379.397 401.306 378.837C401.586 378.277 402.026 377.83 402.626 377.497C403.24 377.163 404.04 376.997 405.026 376.997C405.626 376.997 406.246 377.07 406.886 377.217C407.526 377.35 408.173 377.57 408.826 377.877L408.266 379.377C407.626 379.097 407.046 378.897 406.526 378.777C406.02 378.643 405.533 378.577 405.066 378.577C404.306 378.577 403.713 378.737 403.286 379.057C402.873 379.363 402.666 379.877 402.666 380.597C402.666 381.117 402.806 381.557 403.086 381.917C403.366 382.263 403.866 382.55 404.586 382.777L406.206 383.257C408.233 383.857 409.246 385.15 409.246 387.137C409.246 388.283 408.9 389.217 408.206 389.937C407.513 390.643 406.4 390.997 404.866 390.997C404.24 390.997 403.573 390.923 402.866 390.777C402.173 390.617 401.453 390.37 400.706 390.037L401.246 388.557C401.953 388.877 402.586 389.103 403.146 389.237C403.72 389.37 404.293 389.437 404.866 389.437ZM421.463 382.497V385.477C421.463 387.17 421.037 388.517 420.183 389.517C419.343 390.503 418.13 390.997 416.543 390.997C414.957 390.997 413.737 390.503 412.883 389.517C412.043 388.517 411.623 387.17 411.623 385.477V382.497C411.623 380.817 412.043 379.483 412.883 378.497C413.737 377.497 414.957 376.997 416.543 376.997C418.13 376.997 419.343 377.497 420.183 378.497C421.037 379.483 421.463 380.817 421.463 382.497ZM419.663 382.497C419.663 381.257 419.397 380.303 418.863 379.637C418.343 378.957 417.57 378.617 416.543 378.617C415.53 378.617 414.757 378.957 414.223 379.637C413.69 380.303 413.423 381.257 413.423 382.497V385.477C413.423 386.73 413.69 387.697 414.223 388.377C414.757 389.057 415.53 389.397 416.543 389.397C417.57 389.397 418.343 389.057 418.863 388.377C419.397 387.697 419.663 386.73 419.663 385.477V382.497ZM425.153 390.797V377.197H429.373C430.933 377.197 432.133 377.67 432.973 378.617C433.813 379.55 434.233 380.843 434.233 382.497V385.477C434.233 387.143 433.813 388.45 432.973 389.397C432.133 390.33 430.933 390.797 429.373 390.797H425.153ZM429.333 378.837H426.893V389.177H429.333C431.399 389.177 432.433 387.943 432.433 385.477V382.497C432.433 380.057 431.399 378.837 429.333 378.837ZM444.696 390.797L443.676 387.637H438.516L437.496 390.797H435.796L440.316 377.197H441.956L446.496 390.797H444.696ZM439.776 383.717L439.016 386.057H443.156L442.396 383.717L441.096 379.517L439.776 383.717Z" fill="white"/>
<rect x="381.239" y="157.312" width="83.5374" height="96.3001" fill="#F9BE50"/>
<rect x="375.438" y="144.55" width="93.9796" height="12.7627" fill="#F9BE50"/>
<rect x="375.438" y="253.612" width="93.9796" height="12.7627" fill="#F9BE50"/>
<path d="M398.485 182.454C398.485 183.708 398.732 184.674 399.225 185.354C399.732 186.021 400.505 186.354 401.545 186.354C401.999 186.354 402.445 186.301 402.885 186.194C403.325 186.088 403.852 185.901 404.465 185.634L405.045 187.114C404.392 187.408 403.772 187.621 403.185 187.754C402.599 187.888 402.032 187.954 401.485 187.954C399.912 187.954 398.719 187.461 397.905 186.474C397.092 185.488 396.685 184.148 396.685 182.454V179.454C396.685 177.761 397.092 176.421 397.905 175.434C398.719 174.448 399.912 173.954 401.485 173.954C402.032 173.954 402.599 174.021 403.185 174.154C403.785 174.288 404.392 174.501 405.005 174.794L404.445 176.294C403.365 175.814 402.399 175.574 401.545 175.574C400.505 175.574 399.732 175.908 399.225 176.574C398.732 177.241 398.485 178.201 398.485 179.454V182.454ZM415.571 187.754V181.694H409.631V187.754H407.891V174.154H409.631V180.054H415.571V174.154H417.311V187.754H415.571ZM429.144 186.134V187.754H421.544V174.154H428.944V175.794H423.284V180.054H428.344V181.694H423.284V186.134H429.144ZM439.769 186.134V187.754H432.169V174.154H439.569V175.794H433.909V180.054H438.969V181.694H433.909V186.134H439.769ZM450.074 186.134V187.754H441.494V186.354L447.794 175.794H441.694V174.154H449.874V175.574L443.554 186.134H450.074ZM400.487 206.454C400.487 207.708 400.734 208.674 401.227 209.354C401.734 210.021 402.507 210.354 403.547 210.354C404.001 210.354 404.447 210.301 404.887 210.194C405.327 210.088 405.854 209.901 406.467 209.634L407.047 211.114C406.394 211.408 405.774 211.621 405.187 211.754C404.601 211.888 404.034 211.954 403.487 211.954C401.914 211.954 400.721 211.461 399.907 210.474C399.094 209.488 398.687 208.148 398.687 206.454V203.454C398.687 201.761 399.094 200.421 399.907 199.434C400.721 198.448 401.914 197.954 403.487 197.954C404.034 197.954 404.601 198.021 405.187 198.154C405.787 198.288 406.394 198.501 407.007 198.794L406.447 200.294C405.367 199.814 404.401 199.574 403.547 199.574C402.507 199.574 401.734 199.908 401.227 200.574C400.734 201.241 400.487 202.201 400.487 203.454V206.454ZM417.573 211.754V205.694H411.633V211.754H409.893V198.154H411.633V204.054H417.573V198.154H419.313V211.754H417.573ZM425.286 211.754H423.546V198.154H425.286V211.754ZM429.542 211.754V198.154H433.782C435.088 198.154 436.082 198.501 436.762 199.194C437.455 199.874 437.802 200.788 437.802 201.934V202.994C437.802 204.141 437.455 205.061 436.762 205.754C436.082 206.448 435.088 206.794 433.782 206.794H431.282V211.754H429.542ZM433.782 199.794H431.282V205.174H433.782C434.502 205.174 435.048 204.981 435.422 204.594C435.808 204.208 436.002 203.674 436.002 202.994V201.934C436.002 201.268 435.808 200.748 435.422 200.374C435.048 199.988 434.502 199.794 433.782 199.794ZM443.611 210.394C444.451 210.394 445.097 210.214 445.551 209.854C446.004 209.481 446.231 208.941 446.231 208.234C446.231 207.648 446.071 207.154 445.751 206.754C445.444 206.354 444.937 206.048 444.231 205.834L442.611 205.354C441.597 205.048 440.851 204.588 440.371 203.974C439.891 203.348 439.651 202.581 439.651 201.674C439.651 200.981 439.784 200.354 440.051 199.794C440.331 199.234 440.771 198.788 441.371 198.454C441.984 198.121 442.784 197.954 443.771 197.954C444.371 197.954 444.991 198.028 445.631 198.174C446.271 198.308 446.917 198.528 447.571 198.834L447.011 200.334C446.371 200.054 445.791 199.854 445.271 199.734C444.764 199.601 444.277 199.534 443.811 199.534C443.051 199.534 442.457 199.694 442.031 200.014C441.617 200.321 441.411 200.834 441.411 201.554C441.411 202.074 441.551 202.514 441.831 202.874C442.111 203.221 442.611 203.508 443.331 203.734L444.951 204.214C446.977 204.814 447.991 206.108 447.991 208.094C447.991 209.241 447.644 210.174 446.951 210.894C446.257 211.601 445.144 211.954 443.611 211.954C442.984 211.954 442.317 211.881 441.611 211.734C440.917 211.574 440.197 211.328 439.451 210.994L439.991 209.514C440.697 209.834 441.331 210.061 441.891 210.194C442.464 210.328 443.037 210.394 443.611 210.394Z" fill="white"/>
<rect x="115.543" y="157.312" width="83.5374" height="96.3001" fill="#F3EB8F"/>
<rect x="109.742" y="144.55" width="93.9796" height="12.7627" fill="#F3EB8F"/>
<rect x="109.742" y="253.612" width="93.9796" height="12.7627" fill="#F3EB8F"/>
<path d="M136.3 180.7C136.3 181.953 136.547 182.92 137.04 183.6C137.547 184.267 138.32 184.6 139.36 184.6C139.813 184.6 140.26 184.547 140.7 184.44C141.14 184.333 141.667 184.147 142.28 183.88L142.86 185.36C142.207 185.653 141.587 185.867 141 186C140.413 186.133 139.847 186.2 139.3 186.2C137.727 186.2 136.533 185.707 135.72 184.72C134.907 183.733 134.5 182.393 134.5 180.7V177.7C134.5 176.007 134.907 174.667 135.72 173.68C136.533 172.693 137.727 172.2 139.3 172.2C139.847 172.2 140.413 172.267 141 172.4C141.6 172.533 142.207 172.747 142.82 173.04L142.26 174.54C141.18 174.06 140.213 173.82 139.36 173.82C138.32 173.82 137.547 174.153 137.04 174.82C136.547 175.487 136.3 176.447 136.3 177.7V180.7ZM153.386 186V179.94H147.446V186H145.706V172.4H147.446V178.3H153.386V172.4H155.126V186H153.386ZM161.098 186H159.358V172.4H161.098V186ZM165.354 186V172.4H169.594C170.901 172.4 171.894 172.747 172.574 173.44C173.268 174.12 173.614 175.033 173.614 176.18V177.24C173.614 178.387 173.268 179.307 172.574 180C171.894 180.693 170.901 181.04 169.594 181.04H167.094V186H165.354ZM169.594 174.04H167.094V179.42H169.594C170.314 179.42 170.861 179.227 171.234 178.84C171.621 178.453 171.814 177.92 171.814 177.24V176.18C171.814 175.513 171.621 174.993 171.234 174.62C170.861 174.233 170.314 174.04 169.594 174.04ZM179.423 184.64C180.263 184.64 180.91 184.46 181.363 184.1C181.817 183.727 182.043 183.187 182.043 182.48C182.043 181.893 181.883 181.4 181.563 181C181.257 180.6 180.75 180.293 180.043 180.08L178.423 179.6C177.41 179.293 176.663 178.833 176.183 178.22C175.703 177.593 175.463 176.827 175.463 175.92C175.463 175.227 175.597 174.6 175.863 174.04C176.143 173.48 176.583 173.033 177.183 172.7C177.797 172.367 178.597 172.2 179.583 172.2C180.183 172.2 180.803 172.273 181.443 172.42C182.083 172.553 182.73 172.773 183.383 173.08L182.823 174.58C182.183 174.3 181.603 174.1 181.083 173.98C180.577 173.847 180.09 173.78 179.623 173.78C178.863 173.78 178.27 173.94 177.843 174.26C177.43 174.567 177.223 175.08 177.223 175.8C177.223 176.32 177.363 176.76 177.643 177.12C177.923 177.467 178.423 177.753 179.143 177.98L180.763 178.46C182.79 179.06 183.803 180.353 183.803 182.34C183.803 183.487 183.457 184.42 182.763 185.14C182.07 185.847 180.957 186.2 179.423 186.2C178.797 186.2 178.13 186.127 177.423 185.98C176.73 185.82 176.01 185.573 175.263 185.24L175.803 183.76C176.51 184.08 177.143 184.307 177.703 184.44C178.277 184.573 178.85 184.64 179.423 184.64Z" fill="white"/>
<rect x="250.132" y="157.312" width="83.5374" height="96.3001" fill="#E87474"/>
<rect x="244.33" y="144.55" width="93.9796" height="12.7627" fill="#E87474"/>
<rect x="244.33" y="253.612" width="93.9796" height="12.7627" fill="#E87474"/>
<path d="M283.331 187.754V181.694H277.391V187.754H275.651V174.154H277.391V180.054H283.331V174.154H285.071V187.754H283.331ZM298.563 179.454V182.434C298.563 184.128 298.137 185.474 297.283 186.474C296.443 187.461 295.23 187.954 293.643 187.954C292.057 187.954 290.837 187.461 289.983 186.474C289.143 185.474 288.723 184.128 288.723 182.434V179.454C288.723 177.774 289.143 176.441 289.983 175.454C290.837 174.454 292.057 173.954 293.643 173.954C295.23 173.954 296.443 174.454 297.283 175.454C298.137 176.441 298.563 177.774 298.563 179.454ZM296.763 179.454C296.763 178.214 296.497 177.261 295.963 176.594C295.443 175.914 294.67 175.574 293.643 175.574C292.63 175.574 291.857 175.914 291.323 176.594C290.79 177.261 290.523 178.214 290.523 179.454V182.434C290.523 183.688 290.79 184.654 291.323 185.334C291.857 186.014 292.63 186.354 293.643 186.354C294.67 186.354 295.443 186.014 295.963 185.334C296.497 184.654 296.763 183.688 296.763 182.434V179.454ZM300.354 175.794V174.154H310.014V175.794H306.054V187.754H304.314V175.794H300.354ZM269.38 206.454C269.38 207.708 269.627 208.674 270.12 209.354C270.627 210.021 271.4 210.354 272.44 210.354C272.893 210.354 273.34 210.301 273.78 210.194C274.22 210.088 274.747 209.901 275.36 209.634L275.94 211.114C275.287 211.408 274.667 211.621 274.08 211.754C273.493 211.888 272.927 211.954 272.38 211.954C270.807 211.954 269.613 211.461 268.8 210.474C267.987 209.488 267.58 208.148 267.58 206.454V203.454C267.58 201.761 267.987 200.421 268.8 199.434C269.613 198.448 270.807 197.954 272.38 197.954C272.927 197.954 273.493 198.021 274.08 198.154C274.68 198.288 275.287 198.501 275.9 198.794L275.34 200.294C274.26 199.814 273.293 199.574 272.44 199.574C271.4 199.574 270.627 199.908 270.12 200.574C269.627 201.241 269.38 202.201 269.38 203.454V206.454ZM286.466 211.754V205.694H280.526V211.754H278.786V198.154H280.526V204.054H286.466V198.154H288.206V211.754H286.466ZM294.178 211.754H292.438V198.154H294.178V211.754ZM298.434 211.754V198.154H302.674C303.981 198.154 304.974 198.501 305.654 199.194C306.348 199.874 306.694 200.788 306.694 201.934V202.994C306.694 204.141 306.348 205.061 305.654 205.754C304.974 206.448 303.981 206.794 302.674 206.794H300.174V211.754H298.434ZM302.674 199.794H300.174V205.174H302.674C303.394 205.174 303.941 204.981 304.314 204.594C304.701 204.208 304.894 203.674 304.894 202.994V201.934C304.894 201.268 304.701 200.748 304.314 200.374C303.941 199.988 303.394 199.794 302.674 199.794ZM312.503 210.394C313.343 210.394 313.99 210.214 314.443 209.854C314.897 209.481 315.123 208.941 315.123 208.234C315.123 207.648 314.963 207.154 314.643 206.754C314.337 206.354 313.83 206.048 313.123 205.834L311.503 205.354C310.49 205.048 309.743 204.588 309.263 203.974C308.783 203.348 308.543 202.581 308.543 201.674C308.543 200.981 308.677 200.354 308.943 199.794C309.223 199.234 309.663 198.788 310.263 198.454C310.877 198.121 311.677 197.954 312.663 197.954C313.263 197.954 313.883 198.028 314.523 198.174C315.163 198.308 315.81 198.528 316.463 198.834L315.903 200.334C315.263 200.054 314.683 199.854 314.163 199.734C313.657 199.601 313.17 199.534 312.703 199.534C311.943 199.534 311.35 199.694 310.923 200.014C310.51 200.321 310.303 200.834 310.303 201.554C310.303 202.074 310.443 202.514 310.723 202.874C311.003 203.221 311.503 203.508 312.223 203.734L313.843 204.214C315.87 204.814 316.883 206.108 316.883 208.094C316.883 209.241 316.537 210.174 315.843 210.894C315.15 211.601 314.037 211.954 312.503 211.954C311.877 211.954 311.21 211.881 310.503 211.734C309.81 211.574 309.09 211.328 308.343 210.994L308.883 209.514C309.59 209.834 310.223 210.061 310.783 210.194C311.357 210.328 311.93 210.394 312.503 210.394Z" fill="white"/>
<rect x="127.146" y="335.409" width="58.0121" height="97.1703" rx="10" fill="#FB6E6E"/>
<path d="M183.458 340.05C183.458 341.136 182.76 342.216 181.393 343.237C180.03 344.255 178.041 345.182 175.562 345.965C170.605 347.53 163.743 348.502 156.152 348.502C148.561 348.502 141.699 347.53 136.742 345.965C134.263 345.182 132.274 344.255 130.911 343.237C129.544 342.216 128.846 341.136 128.846 340.05C128.846 338.964 129.544 337.885 130.911 336.863C132.274 335.846 134.263 334.919 136.742 334.136C141.699 332.57 148.561 331.598 156.152 331.598C163.743 331.598 170.605 332.57 175.562 334.136C178.041 334.919 180.03 335.846 181.393 336.863C182.76 337.885 183.458 338.964 183.458 340.05Z" fill="#D4D1D1" stroke="#BEBCBC" stroke-width="0.5"/>
<path d="M160.303 340.05C160.303 341.557 159.31 342.953 157.637 343.982C155.967 345.009 153.648 345.651 151.076 345.651C148.504 345.651 146.184 345.009 144.515 343.982C142.842 342.953 141.849 341.557 141.849 340.05C141.849 338.544 142.842 337.148 144.515 336.119C146.184 335.091 148.504 334.449 151.076 334.449C153.648 334.449 155.967 335.091 157.637 336.119C159.31 337.148 160.303 338.544 160.303 340.05Z" fill="#D4D1D1" stroke="#BEBCBC" stroke-width="0.4"/>
<rect x="159.253" y="335.899" width="14.103" height="8.30182" rx="1.8" fill="#D4D1D1" stroke="#BEBCBC" stroke-width="0.4"/>
<rect x="160.703" y="337.35" width="3.95091" height="5.40121" rx="1.8" fill="#D4D1D1" stroke="#BEBCBC" stroke-width="0.4"/>
<rect x="166.504" y="337.35" width="5.40121" height="5.40121" rx="1.8" fill="#D4D1D1" stroke="#BEBCBC" stroke-width="0.4"/>
<path d="M138.01 389.437C138.85 389.437 139.497 389.257 139.95 388.897C140.404 388.523 140.63 387.983 140.63 387.277C140.63 386.69 140.47 386.197 140.15 385.797C139.844 385.397 139.337 385.09 138.63 384.877L137.01 384.397C135.997 384.09 135.25 383.63 134.77 383.017C134.29 382.39 134.05 381.623 134.05 380.717C134.05 380.023 134.184 379.397 134.45 378.837C134.73 378.277 135.17 377.83 135.77 377.497C136.384 377.163 137.184 376.997 138.17 376.997C138.77 376.997 139.39 377.07 140.03 377.217C140.67 377.35 141.317 377.57 141.97 377.877L141.41 379.377C140.77 379.097 140.19 378.897 139.67 378.777C139.164 378.643 138.677 378.577 138.21 378.577C137.45 378.577 136.857 378.737 136.43 379.057C136.017 379.363 135.81 379.877 135.81 380.597C135.81 381.117 135.95 381.557 136.23 381.917C136.51 382.263 137.01 382.55 137.73 382.777L139.35 383.257C141.377 383.857 142.39 385.15 142.39 387.137C142.39 388.283 142.044 389.217 141.35 389.937C140.657 390.643 139.544 390.997 138.01 390.997C137.384 390.997 136.717 390.923 136.01 390.777C135.317 390.617 134.597 390.37 133.85 390.037L134.39 388.557C135.097 388.877 135.73 389.103 136.29 389.237C136.864 389.37 137.437 389.437 138.01 389.437ZM154.608 382.497V385.477C154.608 387.17 154.181 388.517 153.328 389.517C152.488 390.503 151.274 390.997 149.688 390.997C148.101 390.997 146.881 390.503 146.028 389.517C145.188 388.517 144.768 387.17 144.768 385.477V382.497C144.768 380.817 145.188 379.483 146.028 378.497C146.881 377.497 148.101 376.997 149.688 376.997C151.274 376.997 152.488 377.497 153.328 378.497C154.181 379.483 154.608 380.817 154.608 382.497ZM152.808 382.497C152.808 381.257 152.541 380.303 152.008 379.637C151.488 378.957 150.714 378.617 149.688 378.617C148.674 378.617 147.901 378.957 147.368 379.637C146.834 380.303 146.568 381.257 146.568 382.497V385.477C146.568 386.73 146.834 387.697 147.368 388.377C147.901 389.057 148.674 389.397 149.688 389.397C150.714 389.397 151.488 389.057 152.008 388.377C152.541 387.697 152.808 386.73 152.808 385.477V382.497ZM158.297 390.797V377.197H162.517C164.077 377.197 165.277 377.67 166.117 378.617C166.957 379.55 167.377 380.843 167.377 382.497V385.477C167.377 387.143 166.957 388.45 166.117 389.397C165.277 390.33 164.077 390.797 162.517 390.797H158.297ZM162.477 378.837H160.037V389.177H162.477C164.544 389.177 165.577 387.943 165.577 385.477V382.497C165.577 380.057 164.544 378.837 162.477 378.837ZM177.841 390.797L176.821 387.637H171.661L170.641 390.797H168.941L173.461 377.197H175.101L179.641 390.797H177.841ZM172.921 383.717L172.161 386.057H176.301L175.541 383.717L174.241 379.517L172.921 383.717Z" fill="white"/>
<rect x="262.894" y="335.409" width="58.0121" height="97.1703" rx="10" fill="#89DD86"/>
<path d="M319.206 340.05C319.206 341.136 318.509 342.216 317.141 343.237C315.778 344.255 313.789 345.182 311.31 345.965C306.354 347.53 299.491 348.502 291.9 348.502C284.309 348.502 277.447 347.53 272.491 345.965C270.011 345.182 268.023 344.255 266.66 343.237C265.292 342.216 264.595 341.136 264.595 340.05C264.595 338.964 265.292 337.885 266.66 336.864C268.023 335.846 270.011 334.919 272.491 334.136C277.447 332.57 284.309 331.599 291.9 331.599C299.491 331.599 306.354 332.57 311.31 334.136C313.789 334.919 315.778 335.846 317.141 336.864C318.509 337.885 319.206 338.964 319.206 340.05Z" fill="#D4D1D1" stroke="#BEBCBC" stroke-width="0.5"/>
<path d="M296.051 340.05C296.051 341.557 295.058 342.953 293.385 343.982C291.716 345.01 289.396 345.652 286.824 345.652C284.252 345.652 281.933 345.01 280.263 343.982C278.59 342.953 277.597 341.557 277.597 340.05C277.597 338.544 278.59 337.148 280.263 336.119C281.933 335.091 284.252 334.449 286.824 334.449C289.396 334.449 291.716 335.091 293.385 336.119C295.058 337.148 296.051 338.544 296.051 340.05Z" fill="#D4D1D1" stroke="#BEBCBC" stroke-width="0.4"/>
<rect x="295.001" y="335.899" width="14.103" height="8.30182" rx="1.8" fill="#D4D1D1" stroke="#BEBCBC" stroke-width="0.4"/>
<rect x="296.451" y="337.35" width="3.95091" height="5.40121" rx="1.8" fill="#D4D1D1" stroke="#BEBCBC" stroke-width="0.4"/>
<rect x="302.252" y="337.35" width="5.40121" height="5.40121" rx="1.8" fill="#D4D1D1" stroke="#BEBCBC" stroke-width="0.4"/>
<path d="M273.759 389.437C274.599 389.437 275.245 389.257 275.699 388.897C276.152 388.523 276.379 387.983 276.379 387.277C276.379 386.69 276.219 386.197 275.899 385.797C275.592 385.397 275.085 385.09 274.379 384.877L272.759 384.397C271.745 384.09 270.999 383.63 270.519 383.017C270.039 382.39 269.799 381.623 269.799 380.717C269.799 380.023 269.932 379.397 270.199 378.837C270.479 378.277 270.919 377.83 271.519 377.497C272.132 377.163 272.932 376.997 273.919 376.997C274.519 376.997 275.139 377.07 275.779 377.217C276.419 377.35 277.065 377.57 277.719 377.877L277.159 379.377C276.519 379.097 275.939 378.897 275.419 378.777C274.912 378.643 274.425 378.577 273.959 378.577C273.199 378.577 272.605 378.737 272.179 379.057C271.765 379.363 271.559 379.877 271.559 380.597C271.559 381.117 271.699 381.557 271.979 381.917C272.259 382.263 272.759 382.55 273.479 382.777L275.099 383.257C277.125 383.857 278.139 385.15 278.139 387.137C278.139 388.283 277.792 389.217 277.099 389.937C276.405 390.643 275.292 390.997 273.759 390.997C273.132 390.997 272.465 390.923 271.759 390.777C271.065 390.617 270.345 390.37 269.599 390.037L270.139 388.557C270.845 388.877 271.479 389.103 272.039 389.237C272.612 389.37 273.185 389.437 273.759 389.437ZM290.356 382.497V385.477C290.356 387.17 289.929 388.517 289.076 389.517C288.236 390.503 287.023 390.997 285.436 390.997C283.849 390.997 282.629 390.503 281.776 389.517C280.936 388.517 280.516 387.17 280.516 385.477V382.497C280.516 380.817 280.936 379.483 281.776 378.497C282.629 377.497 283.849 376.997 285.436 376.997C287.023 376.997 288.236 377.497 289.076 378.497C289.929 379.483 290.356 380.817 290.356 382.497ZM288.556 382.497C288.556 381.257 288.289 380.303 287.756 379.637C287.236 378.957 286.463 378.617 285.436 378.617C284.423 378.617 283.649 378.957 283.116 379.637C282.583 380.303 282.316 381.257 282.316 382.497V385.477C282.316 386.73 282.583 387.697 283.116 388.377C283.649 389.057 284.423 389.397 285.436 389.397C286.463 389.397 287.236 389.057 287.756 388.377C288.289 387.697 288.556 386.73 288.556 385.477V382.497ZM294.045 390.797V377.197H298.265C299.825 377.197 301.025 377.67 301.865 378.617C302.705 379.55 303.125 380.843 303.125 382.497V385.477C303.125 387.143 302.705 388.45 301.865 389.397C301.025 390.33 299.825 390.797 298.265 390.797H294.045ZM298.225 378.837H295.785V389.177H298.225C300.292 389.177 301.325 387.943 301.325 385.477V382.497C301.325 380.057 300.292 378.837 298.225 378.837ZM313.589 390.797L312.569 387.637H307.409L306.389 390.797H304.689L309.209 377.197H310.849L315.389 390.797H313.589ZM308.669 383.717L307.909 386.057H312.049L311.289 383.717L309.989 379.517L308.669 383.717Z" fill="white"/>
<rect x="122.505" y="485.661" width="66.1338" height="107.903" fill="#B14936"/>
<rect x="119.024" y="476.379" width="73.0953" height="9.28194" fill="#F1E8E8"/>
<rect x="119.024" y="593.563" width="73.0953" height="9.28194" fill="#F1E8E8"/>
<path d="M156.045 580.013C157.11 580.013 157.932 579.803 158.51 579.384C159.076 578.953 159.36 578.296 159.36 577.412C159.36 577.026 159.314 576.647 159.224 576.273C159.133 575.899 158.974 575.451 158.748 574.93L160.006 574.437C160.255 574.992 160.436 575.519 160.55 576.018C160.663 576.516 160.72 576.998 160.72 577.463C160.72 578.8 160.3 579.814 159.462 580.506C158.623 581.197 157.484 581.543 156.045 581.543H153.495C152.055 581.543 150.916 581.197 150.078 580.506C149.239 579.814 148.82 578.8 148.82 577.463C148.82 576.998 148.876 576.516 148.99 576.018C149.103 575.508 149.284 574.992 149.534 574.471L150.809 574.947C150.401 575.865 150.197 576.686 150.197 577.412C150.197 578.296 150.48 578.953 151.047 579.384C151.613 579.803 152.429 580.013 153.495 580.013H156.045ZM160.55 565.489H155.399V570.538H160.55V572.017H148.99V570.538H154.005V565.489H148.99V564.01H160.55V565.489ZM153.495 552.542H156.028C157.467 552.542 158.612 552.905 159.462 553.63C160.3 554.344 160.72 555.375 160.72 556.724C160.72 558.073 160.3 559.11 159.462 559.835C158.612 560.549 157.467 560.906 156.028 560.906H153.495C152.067 560.906 150.933 560.549 150.095 559.835C149.245 559.11 148.82 558.073 148.82 556.724C148.82 555.375 149.245 554.344 150.095 553.63C150.933 552.905 152.067 552.542 153.495 552.542ZM153.495 554.072C152.441 554.072 151.63 554.299 151.064 554.752C150.486 555.194 150.197 555.851 150.197 556.724C150.197 557.585 150.486 558.243 151.064 558.696C151.63 559.149 152.441 559.376 153.495 559.376H156.028C157.093 559.376 157.915 559.149 158.493 558.696C159.071 558.243 159.36 557.585 159.36 556.724C159.36 555.851 159.071 555.194 158.493 554.752C157.915 554.299 157.093 554.072 156.028 554.072H153.495ZM156.045 548.403C157.11 548.403 157.932 548.193 158.51 547.774C159.076 547.343 159.36 546.686 159.36 545.802C159.36 545.417 159.314 545.037 159.224 544.663C159.133 544.289 158.974 543.841 158.748 543.32L160.006 542.827C160.255 543.382 160.436 543.909 160.55 544.408C160.663 544.907 160.72 545.388 160.72 545.853C160.72 547.19 160.3 548.205 159.462 548.896C158.623 549.587 157.484 549.933 156.045 549.933H153.495C152.055 549.933 150.916 549.587 150.078 548.896C149.239 548.205 148.82 547.19 148.82 545.853C148.82 545.388 148.876 544.907 148.99 544.408C149.103 543.898 149.284 543.382 149.534 542.861L150.809 543.337C150.401 544.255 150.197 545.077 150.197 545.802C150.197 546.686 150.48 547.343 151.047 547.774C151.613 548.193 152.429 548.403 153.495 548.403H156.045ZM153.495 532.72H156.028C157.467 532.72 158.612 533.082 159.462 533.808C160.3 534.522 160.72 535.553 160.72 536.902C160.72 538.25 160.3 539.287 159.462 540.013C158.612 540.727 157.467 541.084 156.028 541.084H153.495C152.067 541.084 150.933 540.727 150.095 540.013C149.245 539.287 148.82 538.25 148.82 536.902C148.82 535.553 149.245 534.522 150.095 533.808C150.933 533.082 152.067 532.72 153.495 532.72ZM153.495 534.25C152.441 534.25 151.63 534.476 151.064 534.93C150.486 535.372 150.197 536.029 150.197 536.902C150.197 537.763 150.486 538.42 151.064 538.874C151.63 539.327 152.441 539.554 153.495 539.554H156.028C157.093 539.554 157.915 539.327 158.493 538.874C159.071 538.42 159.36 537.763 159.36 536.902C159.36 536.029 159.071 535.372 158.493 534.93C157.915 534.476 157.093 534.25 156.028 534.25H153.495ZM159.173 523.26H160.55V529.584H148.99V528.105H159.173V523.26ZM160.55 514.864L157.864 515.731V520.117L160.55 520.984V522.429L148.99 518.587V517.193L160.55 513.334V514.864ZM154.532 519.046L156.521 519.692V516.173L154.532 516.819L150.962 517.924L154.532 519.046ZM150.384 513.866H148.99V505.655H150.384V509.021H160.55V510.5H150.384V513.866ZM159.173 497.176H160.55V503.636H148.99V497.346H150.384V502.157H154.005V497.856H155.399V502.157H159.173V497.176Z" fill="white"/>
<rect x="391.681" y="485.661" width="66.1338" height="107.903" fill="#9AE0C4"/>
<rect x="388.2" y="476.379" width="73.0953" height="9.28194" fill="#F1E8E8"/>
<rect x="388.2" y="593.563" width="73.0953" height="9.28194" fill="#F1E8E8"/>
<path d="M406.563 557.025L415.131 553.506L406.563 549.97V548.287H418.123V549.732H413.176L408.722 549.545L416.763 552.86V554.254L408.688 557.501L413.176 557.314H418.123V558.759H406.563V557.025ZM418.123 543.186V544.665H406.563V543.186H418.123ZM418.123 539.568H406.563V538.021C408.037 536.99 409.521 536.043 411.017 535.182C412.502 534.309 414.055 533.493 415.675 532.734L411.255 532.904H406.563V531.459H418.123V533.006C416.469 533.799 414.859 534.621 413.295 535.471C411.72 536.31 410.184 537.228 408.688 538.225L413.397 538.123H418.123V539.568ZM407.957 529.412H406.563V521.201H407.957V524.567H418.123V526.046H407.957V529.412ZM433.618 581.173C434.684 581.173 435.505 580.963 436.083 580.544C436.65 580.113 436.933 579.456 436.933 578.572C436.933 578.186 436.888 577.807 436.797 577.433C436.707 577.059 436.548 576.611 436.321 576.09L437.579 575.597C437.829 576.152 438.01 576.679 438.123 577.178C438.237 577.676 438.293 578.158 438.293 578.623C438.293 579.96 437.874 580.974 437.035 581.666C436.197 582.357 435.058 582.703 433.618 582.703H431.068C429.629 582.703 428.49 582.357 427.651 581.666C426.813 580.974 426.393 579.96 426.393 578.623C426.393 578.158 426.45 577.676 426.563 577.178C426.677 576.668 426.858 576.152 427.107 575.631L428.382 576.107C427.974 577.025 427.77 577.846 427.77 578.572C427.77 579.456 428.054 580.113 428.62 580.544C429.187 580.963 430.003 581.173 431.068 581.173H433.618ZM438.123 566.65H432.972V571.699H438.123V573.178H426.563V571.699H431.578V566.65H426.563V565.171H438.123V566.65ZM431.068 553.702H433.601C435.041 553.702 436.185 554.065 437.035 554.79C437.874 555.504 438.293 556.536 438.293 557.884C438.293 559.233 437.874 560.27 437.035 560.995C436.185 561.709 435.041 562.066 433.601 562.066H431.068C429.64 562.066 428.507 561.709 427.668 560.995C426.818 560.27 426.393 559.233 426.393 557.884C426.393 556.536 426.818 555.504 427.668 554.79C428.507 554.065 429.64 553.702 431.068 553.702ZM431.068 555.232C430.014 555.232 429.204 555.459 428.637 555.912C428.059 556.354 427.77 557.012 427.77 557.884C427.77 558.746 428.059 559.403 428.637 559.856C429.204 560.31 430.014 560.536 431.068 560.536H433.601C434.667 560.536 435.488 560.31 436.066 559.856C436.644 559.403 436.933 558.746 436.933 557.884C436.933 557.012 436.644 556.354 436.066 555.912C435.488 555.459 434.667 555.232 433.601 555.232H431.068ZM433.618 549.563C434.684 549.563 435.505 549.354 436.083 548.934C436.65 548.504 436.933 547.846 436.933 546.962C436.933 546.577 436.888 546.197 436.797 545.823C436.707 545.449 436.548 545.002 436.321 544.48L437.579 543.987C437.829 544.543 438.01 545.07 438.123 545.568C438.237 546.067 438.293 546.549 438.293 547.013C438.293 548.351 437.874 549.365 437.035 550.056C436.197 550.748 435.058 551.093 433.618 551.093H431.068C429.629 551.093 428.49 550.748 427.651 550.056C426.813 549.365 426.393 548.351 426.393 547.013C426.393 546.549 426.45 546.067 426.563 545.568C426.677 545.058 426.858 544.543 427.107 544.021L428.382 544.497C427.974 545.415 427.77 546.237 427.77 546.962C427.77 547.846 428.054 548.504 428.62 548.934C429.187 549.354 430.003 549.563 431.068 549.563H433.618ZM431.068 533.88H433.601C435.041 533.88 436.185 534.243 437.035 534.968C437.874 535.682 438.293 536.713 438.293 538.062C438.293 539.411 437.874 540.448 437.035 541.173C436.185 541.887 435.041 542.244 433.601 542.244H431.068C429.64 542.244 428.507 541.887 427.668 541.173C426.818 540.448 426.393 539.411 426.393 538.062C426.393 536.713 426.818 535.682 427.668 534.968C428.507 534.243 429.64 533.88 431.068 533.88ZM431.068 535.41C430.014 535.41 429.204 535.637 428.637 536.09C428.059 536.532 427.77 537.189 427.77 538.062C427.77 538.923 428.059 539.581 428.637 540.034C429.204 540.487 430.014 540.714 431.068 540.714H433.601C434.667 540.714 435.488 540.487 436.066 540.034C436.644 539.581 436.933 538.923 436.933 538.062C436.933 537.189 436.644 536.532 436.066 536.09C435.488 535.637 434.667 535.41 433.601 535.41H431.068ZM436.746 524.42H438.123V530.744H426.563V529.265H436.746V524.42ZM438.123 516.025L435.437 516.892V521.278L438.123 522.145V523.59L426.563 519.748V518.354L438.123 514.495V516.025ZM432.105 520.207L434.094 520.853V517.334L432.105 517.98L428.535 519.085L432.105 520.207ZM427.957 515.026H426.563V506.815H427.957V510.181H438.123V511.66H427.957V515.026ZM436.746 498.336H438.123V504.796H426.563V498.506H427.957V503.317H431.578V499.016H432.972V503.317H436.746V498.336Z" fill="white"/>
<rect x="258.253" y="485.661" width="66.1338" height="107.903" fill="#A76CEB"/>
<rect x="254.773" y="476.379" width="73.0953" height="9.28194" fill="#F1E8E8"/>
<rect x="254.773" y="593.563" width="73.0953" height="9.28194" fill="#F1E8E8"/>
<path d="M280.19 572.085C281.256 572.085 282.077 571.876 282.655 571.456C283.222 571.026 283.505 570.368 283.505 569.484C283.505 569.099 283.46 568.719 283.369 568.345C283.279 567.971 283.12 567.524 282.893 567.002L284.151 566.509C284.401 567.065 284.582 567.592 284.695 568.09C284.809 568.589 284.865 569.071 284.865 569.535C284.865 570.873 284.446 571.887 283.607 572.578C282.769 573.27 281.63 573.615 280.19 573.615H277.64C276.201 573.615 275.062 573.27 274.223 572.578C273.385 571.887 272.965 570.873 272.965 569.535C272.965 569.071 273.022 568.589 273.135 568.09C273.249 567.58 273.43 567.065 273.679 566.543L274.954 567.019C274.546 567.937 274.342 568.759 274.342 569.484C274.342 570.368 274.626 571.026 275.192 571.456C275.759 571.876 276.575 572.085 277.64 572.085H280.19ZM284.695 557.97L282.009 558.837V563.223L284.695 564.09V565.535L273.135 561.693V560.299L284.695 556.44V557.97ZM278.677 562.152L280.666 562.798V559.279L278.677 559.925L275.107 561.03L278.677 562.152ZM280.173 552.8H284.695V554.279H273.135V550.658C273.135 549.57 273.424 548.731 274.002 548.142C274.569 547.541 275.328 547.241 276.28 547.241H277.011C277.691 547.241 278.281 547.399 278.779 547.717C279.278 548.023 279.646 548.465 279.884 549.043C280.666 548.555 281.46 548.102 282.264 547.683C283.069 547.263 283.879 546.878 284.695 546.527V548.227C283.154 548.873 281.647 549.626 280.173 550.488V552.8ZM274.495 550.658V552.8H278.813V550.658C278.813 550.08 278.655 549.621 278.337 549.281C278.009 548.941 277.567 548.771 277.011 548.771H276.28C275.714 548.771 275.277 548.941 274.971 549.281C274.654 549.621 274.495 550.08 274.495 550.658ZM284.695 537.949L282.009 538.816V543.202L284.695 544.069V545.514L273.135 541.672V540.278L284.695 536.419V537.949ZM278.677 542.131L280.666 542.777V539.258L278.677 539.904L275.107 541.009L278.677 542.131ZM273.135 532.523L281.703 529.004L273.135 525.468V523.785H284.695V525.23H279.748L275.294 525.043L283.335 528.358V529.752L275.26 532.999L279.748 532.812H284.695V534.257H273.135V532.523ZM283.318 513.703H284.695V520.163H273.135V513.873H274.529V518.684H278.15V514.383H279.544V518.684H283.318V513.703ZM283.318 504.807H284.695V511.131H273.135V509.652H283.318V504.807ZM300.19 580.013C301.256 580.013 302.077 579.803 302.655 579.384C303.222 578.953 303.505 578.296 303.505 577.412C303.505 577.026 303.46 576.647 303.369 576.273C303.279 575.899 303.12 575.451 302.893 574.93L304.151 574.437C304.401 574.992 304.582 575.519 304.695 576.018C304.809 576.516 304.865 576.998 304.865 577.463C304.865 578.8 304.446 579.814 303.607 580.506C302.769 581.197 301.63 581.543 300.19 581.543H297.64C296.201 581.543 295.062 581.197 294.223 580.506C293.385 579.814 292.965 578.8 292.965 577.463C292.965 576.998 293.022 576.516 293.135 576.018C293.249 575.508 293.43 574.992 293.679 574.471L294.954 574.947C294.546 575.865 294.342 576.686 294.342 577.412C294.342 578.296 294.626 578.953 295.192 579.384C295.759 579.803 296.575 580.013 297.64 580.013H300.19ZM304.695 565.49H299.544V570.539H304.695V572.018H293.135V570.539H298.15V565.49H293.135V564.011H304.695V565.49ZM297.64 552.542H300.173C301.613 552.542 302.757 552.905 303.607 553.63C304.446 554.344 304.865 555.375 304.865 556.724C304.865 558.073 304.446 559.11 303.607 559.835C302.757 560.549 301.613 560.906 300.173 560.906H297.64C296.212 560.906 295.079 560.549 294.24 559.835C293.39 559.11 292.965 558.073 292.965 556.724C292.965 555.375 293.39 554.344 294.24 553.63C295.079 552.905 296.212 552.542 297.64 552.542ZM297.64 554.072C296.586 554.072 295.776 554.299 295.209 554.752C294.631 555.194 294.342 555.851 294.342 556.724C294.342 557.585 294.631 558.243 295.209 558.696C295.776 559.149 296.586 559.376 297.64 559.376H300.173C301.239 559.376 302.06 559.149 302.638 558.696C303.216 558.243 303.505 557.585 303.505 556.724C303.505 555.851 303.216 555.194 302.638 554.752C302.06 554.299 301.239 554.072 300.173 554.072H297.64ZM300.19 548.403C301.256 548.403 302.077 548.194 302.655 547.774C303.222 547.344 303.505 546.686 303.505 545.802C303.505 545.417 303.46 545.037 303.369 544.663C303.279 544.289 303.12 543.842 302.893 543.32L304.151 542.827C304.401 543.383 304.582 543.91 304.695 544.408C304.809 544.907 304.865 545.389 304.865 545.853C304.865 547.191 304.446 548.205 303.607 548.896C302.769 549.588 301.63 549.933 300.19 549.933H297.64C296.201 549.933 295.062 549.588 294.223 548.896C293.385 548.205 292.965 547.191 292.965 545.853C292.965 545.389 293.022 544.907 293.135 544.408C293.249 543.898 293.43 543.383 293.679 542.861L294.954 543.337C294.546 544.255 294.342 545.077 294.342 545.802C294.342 546.686 294.626 547.344 295.192 547.774C295.759 548.194 296.575 548.403 297.64 548.403H300.19ZM297.64 532.72H300.173C301.613 532.72 302.757 533.082 303.607 533.808C304.446 534.522 304.865 535.553 304.865 536.902C304.865 538.25 304.446 539.287 303.607 540.013C302.757 540.727 301.613 541.084 300.173 541.084H297.64C296.212 541.084 295.079 540.727 294.24 540.013C293.39 539.287 292.965 538.25 292.965 536.902C292.965 535.553 293.39 534.522 294.24 533.808C295.079 533.082 296.212 532.72 297.64 532.72ZM297.64 534.25C296.586 534.25 295.776 534.476 295.209 534.93C294.631 535.372 294.342 536.029 294.342 536.902C294.342 537.763 294.631 538.42 295.209 538.874C295.776 539.327 296.586 539.554 297.64 539.554H300.173C301.239 539.554 302.06 539.327 302.638 538.874C303.216 538.42 303.505 537.763 303.505 536.902C303.505 536.029 303.216 535.372 302.638 534.93C302.06 534.476 301.239 534.25 300.173 534.25H297.64ZM303.318 523.26H304.695V529.584H293.135V528.105H303.318V523.26ZM304.695 514.864L302.009 515.731V520.117L304.695 520.984V522.429L293.135 518.587V517.193L304.695 513.334V514.864ZM298.677 519.046L300.666 519.692V516.173L298.677 516.819L295.107 517.924L298.677 519.046ZM294.529 513.866H293.135V505.655H294.529V509.021H304.695V510.5H294.529V513.866ZM303.318 497.176H304.695V503.636H293.135V497.346H294.529V502.157H298.15V497.856H299.544V502.157H303.318V497.176Z" fill="white"/>
<rect x="532.07" y="284.939" width="63.8133" height="90.4989" rx="5" fill="#DAF2F0"/>
<rect x="539.032" y="291.9" width="49.8904" height="18.5639" rx="5" fill="#A2E3DE"/>
<ellipse cx="547.154" cy="320.906" rx="5.80121" ry="5.80121" fill="#D9D9D9"/>
<ellipse cx="581.961" cy="353.393" rx="5.80121" ry="5.80121" fill="#D9D9D9"/>
<ellipse cx="564.557" cy="353.393" rx="5.80121" ry="5.80121" fill="#D9D9D9"/>
<ellipse cx="547.154" cy="353.393" rx="5.80121" ry="5.80121" fill="#D9D9D9"/>
<ellipse cx="581.961" cy="337.15" rx="5.80121" ry="5.80121" fill="#D9D9D9"/>
<ellipse cx="564.557" cy="337.15" rx="5.80121" ry="5.80121" fill="#D9D9D9"/>
<ellipse cx="547.154" cy="337.15" rx="5.80121" ry="5.80121" fill="#D9D9D9"/>
<ellipse cx="581.961" cy="320.906" rx="5.80121" ry="5.80121" fill="#D9D9D9"/>
<ellipse cx="564.557" cy="320.906" rx="5.80121" ry="5.80121" fill="#D9D9D9"/>
<rect x="554.115" y="363.835" width="20.8844" height="6.96145" rx="2" fill="#D9D9D9"/>
<rect x="135.268" y="271.016" width="41.7687" height="17.4036" rx="2" fill="#FFFCFC"/>
<path d="M156.084 283.016L155.472 281.12H152.376L151.764 283.016H150.744L153.456 274.856H154.44L157.164 283.016H156.084ZM153.132 278.768L152.676 280.172H155.16L154.704 278.768L153.924 276.248L153.132 278.768ZM157.646 275.984L159.59 274.856H160.538V283.016H159.518V275.96L158.102 276.776L157.646 275.984Z" fill="black"/>
<rect x="402.123" y="605.166" width="41.7687" height="17.4036" rx="2" fill="#FFFCFC"/>
<path d="M418.824 613.986C418.824 614.738 418.972 615.318 419.268 615.726C419.572 616.126 420.036 616.326 420.66 616.326C420.932 616.326 421.2 616.294 421.464 616.23C421.728 616.166 422.044 616.054 422.412 615.894L422.76 616.782C422.368 616.958 421.996 617.086 421.644 617.166C421.292 617.246 420.952 617.286 420.624 617.286C419.68 617.286 418.964 616.99 418.476 616.398C417.988 615.806 417.744 615.002 417.744 613.986V612.186C417.744 611.17 417.988 610.366 418.476 609.774C418.964 609.182 419.68 608.886 420.624 608.886C420.952 608.886 421.292 608.926 421.644 609.006C422.004 609.086 422.368 609.214 422.736 609.39L422.4 610.29C421.752 610.002 421.172 609.858 420.66 609.858C420.036 609.858 419.572 610.058 419.268 610.458C418.972 610.858 418.824 611.434 418.824 612.186V613.986ZM428.379 615.042C428.379 615.698 428.175 616.238 427.767 616.662C427.359 617.078 426.703 617.286 425.799 617.286C425.439 617.286 425.063 617.246 424.671 617.166C424.287 617.078 423.887 616.942 423.471 616.758L423.783 615.894C424.183 616.054 424.539 616.17 424.851 616.242C425.171 616.314 425.479 616.35 425.775 616.35C426.271 616.35 426.655 616.246 426.927 616.038C427.207 615.83 427.347 615.49 427.347 615.018V614.826C427.347 614.426 427.231 614.106 426.999 613.866C426.767 613.626 426.411 613.506 425.931 613.506H424.731V612.594H425.931C426.387 612.594 426.723 612.482 426.939 612.258C427.155 612.026 427.263 611.714 427.263 611.322V611.154C427.263 610.682 427.135 610.346 426.879 610.146C426.623 609.938 426.267 609.834 425.811 609.834C425.531 609.834 425.243 609.87 424.947 609.942C424.651 610.006 424.315 610.118 423.939 610.278L423.603 609.402C424.003 609.218 424.387 609.086 424.755 609.006C425.131 608.926 425.491 608.886 425.835 608.886C426.699 608.886 427.327 609.094 427.719 609.51C428.111 609.926 428.307 610.466 428.307 611.13V611.298C428.307 611.698 428.211 612.05 428.019 612.354C427.827 612.65 427.567 612.882 427.239 613.05C427.591 613.21 427.867 613.446 428.067 613.758C428.275 614.062 428.379 614.426 428.379 614.85V615.042Z" fill="black"/>
<rect x="271.016" y="605.166" width="41.7687" height="17.4036" rx="2" fill="#FFFCFC"/>
<path d="M287.746 613.986C287.746 614.738 287.894 615.318 288.19 615.726C288.494 616.126 288.958 616.326 289.582 616.326C289.854 616.326 290.122 616.294 290.386 616.23C290.65 616.166 290.966 616.054 291.334 615.894L291.682 616.782C291.29 616.958 290.918 617.086 290.566 617.166C290.214 617.246 289.874 617.286 289.546 617.286C288.602 617.286 287.886 616.99 287.398 616.398C286.91 615.806 286.666 615.002 286.666 613.986V612.186C286.666 611.17 286.91 610.366 287.398 609.774C287.886 609.182 288.602 608.886 289.546 608.886C289.874 608.886 290.214 608.926 290.566 609.006C290.926 609.086 291.29 609.214 291.658 609.39L291.322 610.29C290.674 610.002 290.094 609.858 289.582 609.858C288.958 609.858 288.494 610.058 288.19 610.458C287.894 610.858 287.746 611.434 287.746 612.186V613.986ZM297.337 617.166H292.681V616.374C292.681 615.774 292.753 615.27 292.897 614.862C293.049 614.454 293.249 614.118 293.497 613.854C293.753 613.582 294.037 613.366 294.349 613.206L295.129 612.81C295.497 612.618 295.789 612.418 296.005 612.21C296.229 612.002 296.341 611.702 296.341 611.31V611.106C296.341 610.658 296.213 610.334 295.957 610.134C295.709 609.934 295.341 609.834 294.853 609.834C294.581 609.834 294.293 609.87 293.989 609.942C293.685 610.006 293.349 610.118 292.981 610.278L292.645 609.402C293.045 609.218 293.429 609.086 293.797 609.006C294.173 608.926 294.533 608.886 294.877 608.886C295.765 608.886 296.401 609.094 296.785 609.51C297.169 609.918 297.361 610.45 297.361 611.106V611.31C297.361 611.742 297.277 612.102 297.109 612.39C296.949 612.678 296.733 612.922 296.461 613.122C296.197 613.314 295.913 613.486 295.609 613.638L294.829 614.046C294.453 614.246 294.173 614.522 293.989 614.874C293.813 615.226 293.717 615.674 293.701 616.218H297.337V617.166Z" fill="black"/>
<rect x="134.107" y="605.166" width="41.7687" height="17.4036" rx="2" fill="#FFFCFC"/>
<path d="M152.759 613.986C152.759 614.738 152.907 615.318 153.203 615.726C153.507 616.126 153.971 616.326 154.595 616.326C154.867 616.326 155.135 616.294 155.399 616.23C155.663 616.166 155.979 616.054 156.347 615.894L156.695 616.782C156.303 616.958 155.931 617.086 155.579 617.166C155.227 617.246 154.887 617.286 154.559 617.286C153.615 617.286 152.899 616.99 152.411 616.398C151.923 615.806 151.679 615.002 151.679 613.986V612.186C151.679 611.17 151.923 610.366 152.411 609.774C152.899 609.182 153.615 608.886 154.559 608.886C154.887 608.886 155.227 608.926 155.579 609.006C155.939 609.086 156.303 609.214 156.671 609.39L156.335 610.29C155.687 610.002 155.107 609.858 154.595 609.858C153.971 609.858 153.507 610.058 153.203 610.458C152.907 610.858 152.759 611.434 152.759 612.186V613.986ZM157.358 610.134L159.302 609.006H160.25V617.166H159.23V610.11L157.814 610.926L157.358 610.134Z" fill="black"/>
<rect x="402.123" y="434.61" width="41.7687" height="17.4036" rx="2" fill="#FFFCFC"/>
<path d="M417.782 446.61V438.45H420.182C420.966 438.45 421.542 438.642 421.91 439.026C422.286 439.402 422.474 439.91 422.474 440.55V440.814C422.474 441.166 422.394 441.478 422.234 441.75C422.074 442.022 421.842 442.238 421.538 442.398C421.962 442.534 422.282 442.758 422.498 443.07C422.722 443.374 422.834 443.742 422.834 444.174V444.438C422.834 445.094 422.642 445.622 422.258 446.022C421.882 446.414 421.29 446.61 420.482 446.61H417.782ZM420.182 439.41H418.826V441.99H420.182C420.582 441.99 420.882 441.89 421.082 441.69C421.29 441.482 421.394 441.198 421.394 440.838V440.55C421.394 440.198 421.29 439.922 421.082 439.722C420.882 439.514 420.582 439.41 420.182 439.41ZM420.482 442.95H418.826V445.662H420.482C420.906 445.662 421.222 445.554 421.43 445.338C421.646 445.122 421.754 444.822 421.754 444.438V444.15C421.754 443.782 421.646 443.49 421.43 443.274C421.222 443.058 420.906 442.95 420.482 442.95ZM428.713 444.486C428.713 445.142 428.509 445.682 428.101 446.106C427.693 446.522 427.037 446.73 426.133 446.73C425.773 446.73 425.397 446.69 425.005 446.61C424.621 446.522 424.221 446.386 423.805 446.202L424.117 445.338C424.517 445.498 424.873 445.614 425.185 445.686C425.505 445.758 425.813 445.794 426.109 445.794C426.605 445.794 426.989 445.69 427.261 445.482C427.541 445.274 427.681 444.934 427.681 444.462V444.27C427.681 443.87 427.565 443.55 427.333 443.31C427.101 443.07 426.745 442.95 426.265 442.95H425.065V442.038H426.265C426.721 442.038 427.057 441.926 427.273 441.702C427.489 441.47 427.597 441.158 427.597 440.766V440.598C427.597 440.126 427.469 439.79 427.213 439.59C426.957 439.382 426.601 439.278 426.145 439.278C425.865 439.278 425.577 439.314 425.281 439.386C424.985 439.45 424.649 439.562 424.273 439.722L423.937 438.846C424.337 438.662 424.721 438.53 425.089 438.45C425.465 438.37 425.825 438.33 426.169 438.33C427.033 438.33 427.661 438.538 428.053 438.954C428.445 439.37 428.641 439.91 428.641 440.574V440.742C428.641 441.142 428.545 441.494 428.353 441.798C428.161 442.094 427.901 442.326 427.573 442.494C427.925 442.654 428.201 442.89 428.401 443.202C428.609 443.506 428.713 443.87 428.713 444.294V444.486Z" fill="black"/>
<rect x="271.016" y="434.61" width="41.7687" height="17.4036" rx="2" fill="#FFFCFC"/>
<path d="M286.704 446.61V438.45H289.104C289.888 438.45 290.464 438.642 290.832 439.026C291.208 439.402 291.396 439.91 291.396 440.55V440.814C291.396 441.166 291.316 441.478 291.156 441.75C290.996 442.022 290.764 442.238 290.46 442.398C290.884 442.534 291.204 442.758 291.42 443.07C291.644 443.374 291.756 443.742 291.756 444.174V444.438C291.756 445.094 291.564 445.622 291.18 446.022C290.804 446.414 290.212 446.61 289.404 446.61H286.704ZM289.104 439.41H287.748V441.99H289.104C289.504 441.99 289.804 441.89 290.004 441.69C290.212 441.482 290.316 441.198 290.316 440.838V440.55C290.316 440.198 290.212 439.922 290.004 439.722C289.804 439.514 289.504 439.41 289.104 439.41ZM289.404 442.95H287.748V445.662H289.404C289.828 445.662 290.144 445.554 290.352 445.338C290.568 445.122 290.676 444.822 290.676 444.438V444.15C290.676 443.782 290.568 443.49 290.352 443.274C290.144 443.058 289.828 442.95 289.404 442.95ZM297.671 446.61H293.015V445.818C293.015 445.218 293.087 444.714 293.231 444.306C293.383 443.898 293.583 443.562 293.831 443.298C294.087 443.026 294.371 442.81 294.683 442.65L295.463 442.254C295.831 442.062 296.123 441.862 296.339 441.654C296.563 441.446 296.675 441.146 296.675 440.754V440.55C296.675 440.102 296.547 439.778 296.291 439.578C296.043 439.378 295.675 439.278 295.187 439.278C294.915 439.278 294.627 439.314 294.323 439.386C294.019 439.45 293.683 439.562 293.315 439.722L292.979 438.846C293.379 438.662 293.763 438.53 294.131 438.45C294.507 438.37 294.867 438.33 295.211 438.33C296.099 438.33 296.735 438.538 297.119 438.954C297.503 439.362 297.695 439.894 297.695 440.55V440.754C297.695 441.186 297.611 441.546 297.443 441.834C297.283 442.122 297.067 442.366 296.795 442.566C296.531 442.758 296.247 442.93 295.943 443.082L295.163 443.49C294.787 443.69 294.507 443.966 294.323 444.318C294.147 444.67 294.051 445.118 294.035 445.662H297.671V446.61Z" fill="black"/>
<rect x="135.268" y="434.61" width="41.7687" height="17.4036" rx="2" fill="#FFFCFC"/>
<path d="M151.717 446.61V438.45H154.117C154.901 438.45 155.477 438.642 155.845 439.026C156.221 439.402 156.409 439.91 156.409 440.55V440.814C156.409 441.166 156.329 441.478 156.169 441.75C156.009 442.022 155.777 442.238 155.473 442.398C155.897 442.534 156.217 442.758 156.433 443.07C156.657 443.374 156.769 443.742 156.769 444.174V444.438C156.769 445.094 156.577 445.622 156.193 446.022C155.817 446.414 155.225 446.61 154.417 446.61H151.717ZM154.117 439.41H152.761V441.99H154.117C154.517 441.99 154.817 441.89 155.017 441.69C155.225 441.482 155.329 441.198 155.329 440.838V440.55C155.329 440.198 155.225 439.922 155.017 439.722C154.817 439.514 154.517 439.41 154.117 439.41ZM154.417 442.95H152.761V445.662H154.417C154.841 445.662 155.157 445.554 155.365 445.338C155.581 445.122 155.689 444.822 155.689 444.438V444.15C155.689 443.782 155.581 443.49 155.365 443.274C155.157 443.058 154.841 442.95 154.417 442.95ZM157.692 439.578L159.636 438.45H160.584V446.61H159.564V439.554L158.148 440.37L157.692 439.578Z" fill="black"/>
<rect x="402.123" y="271.016" width="41.7687" height="17.4036" rx="2" fill="#FFFCFC"/>
<path d="M422.148 283.016L421.536 281.12H418.44L417.828 283.016H416.808L419.52 274.856H420.504L423.228 283.016H422.148ZM419.196 278.768L418.74 280.172H421.224L420.768 278.768L419.988 276.248L419.196 278.768ZM428.666 280.892C428.666 281.548 428.462 282.088 428.054 282.512C427.646 282.928 426.99 283.136 426.086 283.136C425.726 283.136 425.35 283.096 424.958 283.016C424.574 282.928 424.174 282.792 423.758 282.608L424.07 281.744C424.47 281.904 424.826 282.02 425.138 282.092C425.458 282.164 425.766 282.2 426.062 282.2C426.558 282.2 426.942 282.096 427.214 281.888C427.494 281.68 427.634 281.34 427.634 280.868V280.676C427.634 280.276 427.518 279.956 427.286 279.716C427.054 279.476 426.698 279.356 426.218 279.356H425.018V278.444H426.218C426.674 278.444 427.01 278.332 427.226 278.108C427.442 277.876 427.55 277.564 427.55 277.172V277.004C427.55 276.532 427.422 276.196 427.166 275.996C426.91 275.788 426.554 275.684 426.098 275.684C425.818 275.684 425.53 275.72 425.234 275.792C424.938 275.856 424.602 275.968 424.226 276.128L423.89 275.252C424.29 275.068 424.674 274.936 425.042 274.856C425.418 274.776 425.778 274.736 426.122 274.736C426.986 274.736 427.614 274.944 428.006 275.36C428.398 275.776 428.594 276.316 428.594 276.98V277.148C428.594 277.548 428.498 277.9 428.306 278.204C428.114 278.5 427.854 278.732 427.526 278.9C427.878 279.06 428.154 279.296 428.354 279.608C428.562 279.912 428.666 280.276 428.666 280.7V280.892Z" fill="black"/>
<rect x="271.016" y="271.016" width="41.7687" height="17.4036" rx="2" fill="#FFFCFC"/>
<path d="M291.07 283.016L290.458 281.12H287.362L286.75 283.016H285.73L288.442 274.856H289.426L292.15 283.016H291.07ZM288.118 278.768L287.662 280.172H290.146L289.69 278.768L288.91 276.248L288.118 278.768ZM297.624 283.016H292.968V282.224C292.968 281.624 293.04 281.12 293.184 280.712C293.336 280.304 293.536 279.968 293.784 279.704C294.04 279.432 294.324 279.216 294.636 279.056L295.416 278.66C295.784 278.468 296.076 278.268 296.292 278.06C296.516 277.852 296.628 277.552 296.628 277.16V276.956C296.628 276.508 296.5 276.184 296.244 275.984C295.996 275.784 295.628 275.684 295.14 275.684C294.868 275.684 294.58 275.72 294.276 275.792C293.972 275.856 293.636 275.968 293.268 276.128L292.932 275.252C293.332 275.068 293.716 274.936 294.084 274.856C294.46 274.776 294.82 274.736 295.164 274.736C296.052 274.736 296.688 274.944 297.072 275.36C297.456 275.768 297.648 276.3 297.648 276.956V277.16C297.648 277.592 297.564 277.952 297.396 278.24C297.236 278.528 297.02 278.772 296.748 278.972C296.484 279.164 296.2 279.336 295.896 279.488L295.116 279.896C294.74 280.096 294.46 280.372 294.276 280.724C294.1 281.076 294.004 281.524 293.988 282.068H297.624V283.016Z" fill="black"/>
<defs>
<filter id="filter0_d_6_235" x="485.141" y="823.291" width="72.9736" height="70.6531" filterUnits="userSpaceOnUse" color-interpolation-filters="sRGB">
<feFlood flood-opacity="0" result="BackgroundImageFix"/>
<feColorMatrix in="SourceAlpha" type="matrix" values="0 0 0 0 0 0 0 0 0 0 0 0 0 0 0 0 0 0 127 0" result="hardAlpha"/>
<feOffset dy="4"/>
<feGaussianBlur stdDeviation="2"/>
<feComposite in2="hardAlpha" operator="out"/>
<feColorMatrix type="matrix" values="0 0 0 0 0 0 0 0 0 0 0 0 0 0 0 0 0 0 0.25 0"/>
<feBlend mode="normal" in2="BackgroundImageFix" result="effect1_dropShadow_6_235"/>
<feBlend mode="normal" in="SourceGraphic" in2="effect1_dropShadow_6_235" result="shape"/>
</filter>
<filter id="filter1_d_6_235" x="65.1338" y="823.291" width="72.9736" height="70.6531" filterUnits="userSpaceOnUse" color-interpolation-filters="sRGB">
<feFlood flood-opacity="0" result="BackgroundImageFix"/>
<feColorMatrix in="SourceAlpha" type="matrix" values="0 0 0 0 0 0 0 0 0 0 0 0 0 0 0 0 0 0 127 0" result="hardAlpha"/>
<feOffset dy="4"/>
<feGaussianBlur stdDeviation="2"/>
<feComposite in2="hardAlpha" operator="out"/>
<feColorMatrix type="matrix" values="0 0 0 0 0 0 0 0 0 0 0 0 0 0 0 0 0 0 0.25 0"/>
<feBlend mode="normal" in2="BackgroundImageFix" result="effect1_dropShadow_6_235"/>
<feBlend mode="normal" in="SourceGraphic" in2="effect1_dropShadow_6_235" result="shape"/>
</filter>
<filter id="filter2_d_6_235" x="37.288" y="4.16025" width="619.448" height="802.766" filterUnits="userSpaceOnUse" color-interpolation-filters="sRGB">
<feFlood flood-opacity="0" result="BackgroundImageFix"/>
<feColorMatrix in="SourceAlpha" type="matrix" values="0 0 0 0 0 0 0 0 0 0 0 0 0 0 0 0 0 0 127 0" result="hardAlpha"/>
<feOffset dy="4"/>
<feGaussianBlur stdDeviation="2"/>
<feComposite in2="hardAlpha" operator="out"/>
<feColorMatrix type="matrix" values="0 0 0 0 0 0 0 0 0 0 0 0 0 0 0 0 0 0 0.25 0"/>
<feBlend mode="normal" in2="BackgroundImageFix" result="effect1_dropShadow_6_235"/>
<feBlend mode="normal" in="SourceGraphic" in2="effect1_dropShadow_6_235" result="shape"/>
</filter>
<filter id="filter3_d_6_235" x="0.160248" y="36.6471" width="619.448" height="802.766" filterUnits="userSpaceOnUse" color-interpolation-filters="sRGB">
<feFlood flood-opacity="0" result="BackgroundImageFix"/>
<feColorMatrix in="SourceAlpha" type="matrix" values="0 0 0 0 0 0 0 0 0 0 0 0 0 0 0 0 0 0 127 0" result="hardAlpha"/>
<feOffset dy="4"/>
<feGaussianBlur stdDeviation="2"/>
<feComposite in2="hardAlpha" operator="out"/>
<feColorMatrix type="matrix" values="0 0 0 0 0 0 0 0 0 0 0 0 0 0 0 0 0 0 0.25 0"/>
<feBlend mode="normal" in2="BackgroundImageFix" result="effect1_dropShadow_6_235"/>
<feBlend mode="normal" in="SourceGraphic" in2="effect1_dropShadow_6_235" result="shape"/>
</filter>
<linearGradient id="paint0_linear_6_235" x1="290.74" y1="103.941" x2="290.74" y2="693.344" gradientUnits="userSpaceOnUse">
<stop stop-color="#D9D9D9"/>
<stop offset="1" stop-color="#737373"/>
</linearGradient>
</defs>
</svg>
