<svg width="657" height="893" viewBox="0 0 657 893" fill="none" xmlns="http://www.w3.org/2000/svg">
<g filter="url(#filter0_d_15_352)">
<rect x="41.468" y="3.16028" width="611.448" height="794.766" rx="30" fill="#E4B6EC"/>
<rect x="43.968" y="5.66028" width="606.448" height="789.766" rx="27.5" stroke="#E6A5E0" stroke-width="5"/>
</g>
<rect x="2" y="55.0867" width="82.3257" height="35.9022" rx="13" transform="rotate(-42 2 55.0867)" fill="#E4B6EC"/>
<rect x="572.18" y="813" width="84.4666" height="30.2319" rx="13" transform="rotate(-42 572.18 813)" fill="#E4B6EC"/>
<rect x="521.808" y="800.247" width="64.9736" height="62.6531" rx="8" fill="#7E7E7E"/>
<rect x="521.808" y="800.247" width="64.9736" height="62.6531" rx="8" fill="#7E7E7E"/>
<rect x="521.808" y="800.247" width="64.9736" height="62.6531" rx="8" fill="#7E7E7E"/>
<g filter="url(#filter1_d_15_352)">
<rect x="489.321" y="822.291" width="64.9736" height="62.6531" rx="8" fill="#7E7E7E"/>
<rect x="489.321" y="822.291" width="64.9736" height="62.6531" rx="8" fill="#7E7E7E"/>
<rect x="489.321" y="822.291" width="64.9736" height="62.6531" rx="8" fill="#7E7E7E"/>
</g>
<g filter="url(#filter2_d_15_352)">
<rect x="69.3138" y="822.291" width="64.9736" height="62.6531" rx="8" fill="#7E7E7E"/>
<rect x="69.3138" y="822.291" width="64.9736" height="62.6531" rx="8" fill="#7E7E7E"/>
<rect x="69.3138" y="822.291" width="64.9736" height="62.6531" rx="8" fill="#7E7E7E"/>
</g>
<g filter="url(#filter3_d_15_352)">
<rect x="4.34018" y="35.6471" width="611.448" height="794.766" rx="30" fill="#E4B6EC"/>
<rect x="6.84018" y="38.1471" width="606.448" height="789.766" rx="27.5" stroke="#E6A5E0" stroke-width="5"/>
</g>
<rect x="71.8138" y="105.441" width="438.212" height="584.403" rx="27.5" fill="#ECDFDF" stroke="#E6A5E0" stroke-width="5"/>
<rect x="82.4162" y="725.171" width="418.168" height="71.2555" rx="10.5" fill="#A89B9B" stroke="#A09494" stroke-width="3"/>
<path d="M250.42 773V745.8H258.9C261.513 745.8 263.5 746.493 264.86 747.88C266.247 749.24 266.94 751.067 266.94 753.36V755.48C266.94 757.773 266.247 759.613 264.86 761C263.5 762.387 261.513 763.08 258.9 763.08H253.9V773H250.42ZM258.9 749.08H253.9V759.84H258.9C260.34 759.84 261.433 759.453 262.18 758.68C262.953 757.907 263.34 756.84 263.34 755.48V753.36C263.34 752.027 262.953 750.987 262.18 750.24C261.433 749.467 260.34 749.08 258.9 749.08ZM271.93 745.8H275.53V763.24C275.53 765.427 275.984 767.133 276.89 768.36C277.824 769.587 279.264 770.2 281.21 770.2C283.184 770.2 284.624 769.587 285.53 768.36C286.437 767.133 286.89 765.427 286.89 763.24V745.8H290.49V763.24C290.49 766.413 289.717 768.907 288.17 770.72C286.624 772.507 284.304 773.4 281.21 773.4C278.09 773.4 275.757 772.507 274.21 770.72C272.69 768.907 271.93 766.413 271.93 763.24V745.8ZM303.988 770.28C305.668 770.28 306.961 769.92 307.868 769.2C308.774 768.453 309.228 767.373 309.228 765.96C309.228 764.787 308.908 763.8 308.268 763C307.654 762.2 306.641 761.587 305.228 761.16L301.988 760.2C299.961 759.587 298.468 758.667 297.508 757.44C296.548 756.187 296.068 754.653 296.068 752.84C296.068 751.453 296.334 750.2 296.868 749.08C297.428 747.96 298.308 747.067 299.508 746.4C300.734 745.733 302.334 745.4 304.308 745.4C305.508 745.4 306.748 745.547 308.028 745.84C309.308 746.107 310.601 746.547 311.908 747.16L310.788 750.16C309.508 749.6 308.348 749.2 307.308 748.96C306.294 748.693 305.321 748.56 304.388 748.56C302.868 748.56 301.681 748.88 300.828 749.52C300.001 750.133 299.588 751.16 299.588 752.6C299.588 753.64 299.868 754.52 300.428 755.24C300.988 755.933 301.988 756.507 303.428 756.96L306.668 757.92C310.721 759.12 312.748 761.707 312.748 765.68C312.748 767.973 312.054 769.84 310.668 771.28C309.281 772.693 307.054 773.4 303.988 773.4C302.734 773.4 301.401 773.253 299.988 772.96C298.601 772.64 297.161 772.147 295.668 771.48L296.748 768.52C298.161 769.16 299.428 769.613 300.548 769.88C301.694 770.147 302.841 770.28 303.988 770.28ZM334.022 773V760.88H322.142V773H318.662V745.8H322.142V757.6H334.022V745.8H337.502V773H334.022Z" fill="#877E7E"/>
<rect x="216.307" y="346.592" width="7.49695" height="84.6977" fill="#CDC3C3"/>
<rect x="100.64" y="431.29" width="389.841" height="8.1217" fill="#CDC3C3"/>
<rect x="359.821" y="346.592" width="7.49695" height="84.6977" fill="#CDC3C3"/>
<rect x="99.48" y="267.695" width="389.841" height="8.1217" fill="#CDC3C3"/>
<rect x="215.147" y="182.998" width="7.49695" height="84.6977" fill="#CDC3C3"/>
<rect x="358.66" y="182.998" width="7.49695" height="84.6977" fill="#CDC3C3"/>
<rect x="99.48" y="601.845" width="389.841" height="8.1217" fill="#CDC3C3"/>
<rect x="358.66" y="517.147" width="7.49695" height="84.6977" fill="#CDC3C3"/>
<rect x="215.147" y="517.147" width="7.49695" height="84.6977" fill="#CDC3C3"/>
<rect x="69.3138" y="102.941" width="443.212" height="589.403" rx="30" fill="url(#paint0_linear_15_352)" fill-opacity="0.15"/>
<rect x="394.182" y="334.409" width="58.0121" height="97.1703" rx="10" fill="#94B2FB"/>
<path d="M450.493 339.05C450.493 340.136 449.796 341.216 448.428 342.237C447.065 343.255 445.077 344.182 442.597 344.965C437.641 346.53 430.779 347.502 423.188 347.502C415.597 347.502 408.734 346.53 403.778 344.965C401.298 344.182 399.31 343.255 397.947 342.237C396.579 341.216 395.882 340.136 395.882 339.05C395.882 337.964 396.579 336.885 397.947 335.863C399.31 334.846 401.298 333.919 403.778 333.136C408.734 331.57 415.597 330.598 423.188 330.598C430.779 330.598 437.641 331.57 442.597 333.136C445.077 333.919 447.065 334.846 448.428 335.863C449.796 336.885 450.493 337.964 450.493 339.05Z" fill="#D4D1D1" stroke="#BEBCBC" stroke-width="0.5"/>
<path d="M427.339 339.05C427.339 340.557 426.345 341.953 424.673 342.982C423.003 344.009 420.684 344.651 418.112 344.651C415.539 344.651 413.22 344.009 411.55 342.982C409.878 341.953 408.885 340.557 408.885 339.05C408.885 337.544 409.878 336.148 411.55 335.119C413.22 334.091 415.539 333.449 418.112 333.449C420.684 333.449 423.003 334.091 424.673 335.119C426.345 336.148 427.339 337.544 427.339 339.05Z" fill="#D4D1D1" stroke="#BEBCBC" stroke-width="0.4"/>
<rect x="426.288" y="334.899" width="14.103" height="8.30182" rx="1.8" fill="#D4D1D1" stroke="#BEBCBC" stroke-width="0.4"/>
<rect x="427.739" y="336.35" width="3.95091" height="5.40121" rx="1.8" fill="#D4D1D1" stroke="#BEBCBC" stroke-width="0.4"/>
<rect x="433.54" y="336.35" width="5.40121" height="5.40121" rx="1.8" fill="#D4D1D1" stroke="#BEBCBC" stroke-width="0.4"/>
<path d="M405.046 388.437C405.886 388.437 406.533 388.257 406.986 387.897C407.439 387.523 407.666 386.983 407.666 386.277C407.666 385.69 407.506 385.197 407.186 384.797C406.879 384.397 406.373 384.09 405.666 383.877L404.046 383.397C403.033 383.09 402.286 382.63 401.806 382.017C401.326 381.39 401.086 380.623 401.086 379.717C401.086 379.023 401.219 378.397 401.486 377.837C401.766 377.277 402.206 376.83 402.806 376.497C403.419 376.163 404.219 375.997 405.206 375.997C405.806 375.997 406.426 376.07 407.066 376.217C407.706 376.35 408.353 376.57 409.006 376.877L408.446 378.377C407.806 378.097 407.226 377.897 406.706 377.777C406.199 377.643 405.713 377.577 405.246 377.577C404.486 377.577 403.893 377.737 403.466 378.057C403.053 378.363 402.846 378.877 402.846 379.597C402.846 380.117 402.986 380.557 403.266 380.917C403.546 381.263 404.046 381.55 404.766 381.777L406.386 382.257C408.413 382.857 409.426 384.15 409.426 386.137C409.426 387.283 409.079 388.217 408.386 388.937C407.693 389.643 406.579 389.997 405.046 389.997C404.419 389.997 403.753 389.923 403.046 389.777C402.353 389.617 401.633 389.37 400.886 389.037L401.426 387.557C402.133 387.877 402.766 388.103 403.326 388.237C403.899 388.37 404.473 388.437 405.046 388.437ZM421.643 381.497V384.477C421.643 386.17 421.217 387.517 420.363 388.517C419.523 389.503 418.31 389.997 416.723 389.997C415.137 389.997 413.917 389.503 413.063 388.517C412.223 387.517 411.803 386.17 411.803 384.477V381.497C411.803 379.817 412.223 378.483 413.063 377.497C413.917 376.497 415.137 375.997 416.723 375.997C418.31 375.997 419.523 376.497 420.363 377.497C421.217 378.483 421.643 379.817 421.643 381.497ZM419.843 381.497C419.843 380.257 419.577 379.303 419.043 378.637C418.523 377.957 417.75 377.617 416.723 377.617C415.71 377.617 414.937 377.957 414.403 378.637C413.87 379.303 413.603 380.257 413.603 381.497V384.477C413.603 385.73 413.87 386.697 414.403 387.377C414.937 388.057 415.71 388.397 416.723 388.397C417.75 388.397 418.523 388.057 419.043 387.377C419.577 386.697 419.843 385.73 419.843 384.477V381.497ZM425.333 389.797V376.197H429.553C431.113 376.197 432.313 376.67 433.153 377.617C433.993 378.55 434.413 379.843 434.413 381.497V384.477C434.413 386.143 433.993 387.45 433.153 388.397C432.313 389.33 431.113 389.797 429.553 389.797H425.333ZM429.513 377.837H427.073V388.177H429.513C431.579 388.177 432.613 386.943 432.613 384.477V381.497C432.613 379.057 431.579 377.837 429.513 377.837ZM444.876 389.797L443.856 386.637H438.696L437.676 389.797H435.976L440.496 376.197H442.136L446.676 389.797H444.876ZM439.956 382.717L439.196 385.057H443.336L442.576 382.717L441.276 378.517L439.956 382.717Z" fill="white"/>
<rect x="381.419" y="156.312" width="83.5374" height="96.3001" fill="#F9BE50"/>
<rect x="375.618" y="143.55" width="93.9796" height="12.7627" fill="#F9BE50"/>
<rect x="375.618" y="252.612" width="93.9796" height="12.7627" fill="#F9BE50"/>
<path d="M398.665 181.454C398.665 182.708 398.912 183.674 399.405 184.354C399.912 185.021 400.685 185.354 401.725 185.354C402.179 185.354 402.625 185.301 403.065 185.194C403.505 185.088 404.032 184.901 404.645 184.634L405.225 186.114C404.572 186.408 403.952 186.621 403.365 186.754C402.779 186.888 402.212 186.954 401.665 186.954C400.092 186.954 398.899 186.461 398.085 185.474C397.272 184.488 396.865 183.148 396.865 181.454V178.454C396.865 176.761 397.272 175.421 398.085 174.434C398.899 173.448 400.092 172.954 401.665 172.954C402.212 172.954 402.779 173.021 403.365 173.154C403.965 173.288 404.572 173.501 405.185 173.794L404.625 175.294C403.545 174.814 402.579 174.574 401.725 174.574C400.685 174.574 399.912 174.908 399.405 175.574C398.912 176.241 398.665 177.201 398.665 178.454V181.454ZM415.751 186.754V180.694H409.811V186.754H408.071V173.154H409.811V179.054H415.751V173.154H417.491V186.754H415.751ZM429.324 185.134V186.754H421.724V173.154H429.124V174.794H423.464V179.054H428.524V180.694H423.464V185.134H429.324ZM439.949 185.134V186.754H432.349V173.154H439.749V174.794H434.089V179.054H439.149V180.694H434.089V185.134H439.949ZM450.254 185.134V186.754H441.674V185.354L447.974 174.794H441.874V173.154H450.054V174.574L443.734 185.134H450.254ZM400.667 205.454C400.667 206.708 400.914 207.674 401.407 208.354C401.914 209.021 402.687 209.354 403.727 209.354C404.181 209.354 404.627 209.301 405.067 209.194C405.507 209.088 406.034 208.901 406.647 208.634L407.227 210.114C406.574 210.408 405.954 210.621 405.367 210.754C404.781 210.888 404.214 210.954 403.667 210.954C402.094 210.954 400.901 210.461 400.087 209.474C399.274 208.488 398.867 207.148 398.867 205.454V202.454C398.867 200.761 399.274 199.421 400.087 198.434C400.901 197.448 402.094 196.954 403.667 196.954C404.214 196.954 404.781 197.021 405.367 197.154C405.967 197.288 406.574 197.501 407.187 197.794L406.627 199.294C405.547 198.814 404.581 198.574 403.727 198.574C402.687 198.574 401.914 198.908 401.407 199.574C400.914 200.241 400.667 201.201 400.667 202.454V205.454ZM417.753 210.754V204.694H411.813V210.754H410.073V197.154H411.813V203.054H417.753V197.154H419.493V210.754H417.753ZM425.466 210.754H423.726V197.154H425.466V210.754ZM429.722 210.754V197.154H433.962C435.268 197.154 436.262 197.501 436.942 198.194C437.635 198.874 437.982 199.788 437.982 200.934V201.994C437.982 203.141 437.635 204.061 436.942 204.754C436.262 205.448 435.268 205.794 433.962 205.794H431.462V210.754H429.722ZM433.962 198.794H431.462V204.174H433.962C434.682 204.174 435.228 203.981 435.602 203.594C435.988 203.208 436.182 202.674 436.182 201.994V200.934C436.182 200.268 435.988 199.748 435.602 199.374C435.228 198.988 434.682 198.794 433.962 198.794ZM443.791 209.394C444.631 209.394 445.277 209.214 445.731 208.854C446.184 208.481 446.411 207.941 446.411 207.234C446.411 206.648 446.251 206.154 445.931 205.754C445.624 205.354 445.117 205.048 444.411 204.834L442.791 204.354C441.777 204.048 441.031 203.588 440.551 202.974C440.071 202.348 439.831 201.581 439.831 200.674C439.831 199.981 439.964 199.354 440.231 198.794C440.511 198.234 440.951 197.788 441.551 197.454C442.164 197.121 442.964 196.954 443.951 196.954C444.551 196.954 445.171 197.028 445.811 197.174C446.451 197.308 447.097 197.528 447.751 197.834L447.191 199.334C446.551 199.054 445.971 198.854 445.451 198.734C444.944 198.601 444.457 198.534 443.991 198.534C443.231 198.534 442.637 198.694 442.211 199.014C441.797 199.321 441.591 199.834 441.591 200.554C441.591 201.074 441.731 201.514 442.011 201.874C442.291 202.221 442.791 202.508 443.511 202.734L445.131 203.214C447.157 203.814 448.171 205.108 448.171 207.094C448.171 208.241 447.824 209.174 447.131 209.894C446.437 210.601 445.324 210.954 443.791 210.954C443.164 210.954 442.497 210.881 441.791 210.734C441.097 210.574 440.377 210.328 439.631 209.994L440.171 208.514C440.877 208.834 441.511 209.061 442.071 209.194C442.644 209.328 443.217 209.394 443.791 209.394Z" fill="white"/>
<rect x="115.723" y="156.312" width="83.5374" height="96.3001" fill="#F3EB8F"/>
<rect x="109.922" y="143.55" width="93.9796" height="12.7627" fill="#F3EB8F"/>
<rect x="109.922" y="252.612" width="93.9796" height="12.7627" fill="#F3EB8F"/>
<path d="M136.48 179.7C136.48 180.953 136.727 181.92 137.22 182.6C137.727 183.267 138.5 183.6 139.54 183.6C139.993 183.6 140.44 183.547 140.88 183.44C141.32 183.333 141.847 183.147 142.46 182.88L143.04 184.36C142.387 184.653 141.767 184.867 141.18 185C140.593 185.133 140.027 185.2 139.48 185.2C137.907 185.2 136.713 184.707 135.9 183.72C135.087 182.733 134.68 181.393 134.68 179.7V176.7C134.68 175.007 135.087 173.667 135.9 172.68C136.713 171.693 137.907 171.2 139.48 171.2C140.027 171.2 140.593 171.267 141.18 171.4C141.78 171.533 142.387 171.747 143 172.04L142.44 173.54C141.36 173.06 140.393 172.82 139.54 172.82C138.5 172.82 137.727 173.153 137.22 173.82C136.727 174.487 136.48 175.447 136.48 176.7V179.7ZM153.566 185V178.94H147.626V185H145.886V171.4H147.626V177.3H153.566V171.4H155.306V185H153.566ZM161.278 185H159.538V171.4H161.278V185ZM165.534 185V171.4H169.774C171.081 171.4 172.074 171.747 172.754 172.44C173.448 173.12 173.794 174.033 173.794 175.18V176.24C173.794 177.387 173.448 178.307 172.754 179C172.074 179.693 171.081 180.04 169.774 180.04H167.274V185H165.534ZM169.774 173.04H167.274V178.42H169.774C170.494 178.42 171.041 178.227 171.414 177.84C171.801 177.453 171.994 176.92 171.994 176.24V175.18C171.994 174.513 171.801 173.993 171.414 173.62C171.041 173.233 170.494 173.04 169.774 173.04ZM179.603 183.64C180.443 183.64 181.09 183.46 181.543 183.1C181.997 182.727 182.223 182.187 182.223 181.48C182.223 180.893 182.063 180.4 181.743 180C181.437 179.6 180.93 179.293 180.223 179.08L178.603 178.6C177.59 178.293 176.843 177.833 176.363 177.22C175.883 176.593 175.643 175.827 175.643 174.92C175.643 174.227 175.777 173.6 176.043 173.04C176.323 172.48 176.763 172.033 177.363 171.7C177.977 171.367 178.777 171.2 179.763 171.2C180.363 171.2 180.983 171.273 181.623 171.42C182.263 171.553 182.91 171.773 183.563 172.08L183.003 173.58C182.363 173.3 181.783 173.1 181.263 172.98C180.757 172.847 180.27 172.78 179.803 172.78C179.043 172.78 178.45 172.94 178.023 173.26C177.61 173.567 177.403 174.08 177.403 174.8C177.403 175.32 177.543 175.76 177.823 176.12C178.103 176.467 178.603 176.753 179.323 176.98L180.943 177.46C182.97 178.06 183.983 179.353 183.983 181.34C183.983 182.487 183.637 183.42 182.943 184.14C182.25 184.847 181.137 185.2 179.603 185.2C178.977 185.2 178.31 185.127 177.603 184.98C176.91 184.82 176.19 184.573 175.443 184.24L175.983 182.76C176.69 183.08 177.323 183.307 177.883 183.44C178.457 183.573 179.03 183.64 179.603 183.64Z" fill="white"/>
<rect x="250.311" y="156.312" width="83.5374" height="96.3001" fill="#E87474"/>
<rect x="244.51" y="143.55" width="93.9796" height="12.7627" fill="#E87474"/>
<rect x="244.51" y="252.612" width="93.9796" height="12.7627" fill="#E87474"/>
<path d="M283.511 186.754V180.694H277.571V186.754H275.831V173.154H277.571V179.054H283.511V173.154H285.251V186.754H283.511ZM298.743 178.454V181.434C298.743 183.128 298.317 184.474 297.463 185.474C296.623 186.461 295.41 186.954 293.823 186.954C292.237 186.954 291.017 186.461 290.163 185.474C289.323 184.474 288.903 183.128 288.903 181.434V178.454C288.903 176.774 289.323 175.441 290.163 174.454C291.017 173.454 292.237 172.954 293.823 172.954C295.41 172.954 296.623 173.454 297.463 174.454C298.317 175.441 298.743 176.774 298.743 178.454ZM296.943 178.454C296.943 177.214 296.677 176.261 296.143 175.594C295.623 174.914 294.85 174.574 293.823 174.574C292.81 174.574 292.037 174.914 291.503 175.594C290.97 176.261 290.703 177.214 290.703 178.454V181.434C290.703 182.688 290.97 183.654 291.503 184.334C292.037 185.014 292.81 185.354 293.823 185.354C294.85 185.354 295.623 185.014 296.143 184.334C296.677 183.654 296.943 182.688 296.943 181.434V178.454ZM300.534 174.794V173.154H310.194V174.794H306.234V186.754H304.494V174.794H300.534ZM269.56 205.454C269.56 206.708 269.807 207.674 270.3 208.354C270.807 209.021 271.58 209.354 272.62 209.354C273.073 209.354 273.52 209.301 273.96 209.194C274.4 209.088 274.927 208.901 275.54 208.634L276.12 210.114C275.467 210.408 274.847 210.621 274.26 210.754C273.673 210.888 273.107 210.954 272.56 210.954C270.987 210.954 269.793 210.461 268.98 209.474C268.167 208.488 267.76 207.148 267.76 205.454V202.454C267.76 200.761 268.167 199.421 268.98 198.434C269.793 197.448 270.987 196.954 272.56 196.954C273.107 196.954 273.673 197.021 274.26 197.154C274.86 197.288 275.467 197.501 276.08 197.794L275.52 199.294C274.44 198.814 273.473 198.574 272.62 198.574C271.58 198.574 270.807 198.908 270.3 199.574C269.807 200.241 269.56 201.201 269.56 202.454V205.454ZM286.646 210.754V204.694H280.706V210.754H278.966V197.154H280.706V203.054H286.646V197.154H288.386V210.754H286.646ZM294.358 210.754H292.618V197.154H294.358V210.754ZM298.614 210.754V197.154H302.854C304.161 197.154 305.154 197.501 305.834 198.194C306.528 198.874 306.874 199.788 306.874 200.934V201.994C306.874 203.141 306.528 204.061 305.834 204.754C305.154 205.448 304.161 205.794 302.854 205.794H300.354V210.754H298.614ZM302.854 198.794H300.354V204.174H302.854C303.574 204.174 304.121 203.981 304.494 203.594C304.881 203.208 305.074 202.674 305.074 201.994V200.934C305.074 200.268 304.881 199.748 304.494 199.374C304.121 198.988 303.574 198.794 302.854 198.794ZM312.683 209.394C313.523 209.394 314.17 209.214 314.623 208.854C315.077 208.481 315.303 207.941 315.303 207.234C315.303 206.648 315.143 206.154 314.823 205.754C314.517 205.354 314.01 205.048 313.303 204.834L311.683 204.354C310.67 204.048 309.923 203.588 309.443 202.974C308.963 202.348 308.723 201.581 308.723 200.674C308.723 199.981 308.857 199.354 309.123 198.794C309.403 198.234 309.843 197.788 310.443 197.454C311.057 197.121 311.857 196.954 312.843 196.954C313.443 196.954 314.063 197.028 314.703 197.174C315.343 197.308 315.99 197.528 316.643 197.834L316.083 199.334C315.443 199.054 314.863 198.854 314.343 198.734C313.837 198.601 313.35 198.534 312.883 198.534C312.123 198.534 311.53 198.694 311.103 199.014C310.69 199.321 310.483 199.834 310.483 200.554C310.483 201.074 310.623 201.514 310.903 201.874C311.183 202.221 311.683 202.508 312.403 202.734L314.023 203.214C316.05 203.814 317.063 205.108 317.063 207.094C317.063 208.241 316.717 209.174 316.023 209.894C315.33 210.601 314.217 210.954 312.683 210.954C312.057 210.954 311.39 210.881 310.683 210.734C309.99 210.574 309.27 210.328 308.523 209.994L309.063 208.514C309.77 208.834 310.403 209.061 310.963 209.194C311.537 209.328 312.11 209.394 312.683 209.394Z" fill="white"/>
<rect x="127.326" y="334.409" width="58.0121" height="97.1703" rx="10" fill="#FB6E6E"/>
<path d="M183.638 339.05C183.638 340.136 182.94 341.216 181.573 342.237C180.209 343.255 178.221 344.182 175.741 344.965C170.785 346.53 163.923 347.502 156.332 347.502C148.741 347.502 141.879 346.53 136.922 344.965C134.443 344.182 132.454 343.255 131.091 342.237C129.724 341.216 129.026 340.136 129.026 339.05C129.026 337.964 129.724 336.885 131.091 335.863C132.454 334.846 134.443 333.919 136.922 333.136C141.879 331.57 148.741 330.598 156.332 330.598C163.923 330.598 170.785 331.57 175.741 333.136C178.221 333.919 180.209 334.846 181.573 335.863C182.94 336.885 183.638 337.964 183.638 339.05Z" fill="#D4D1D1" stroke="#BEBCBC" stroke-width="0.5"/>
<path d="M160.483 339.05C160.483 340.557 159.49 341.953 157.817 342.982C156.147 344.009 153.828 344.651 151.256 344.651C148.684 344.651 146.364 344.009 144.695 342.982C143.022 341.953 142.029 340.557 142.029 339.05C142.029 337.544 143.022 336.148 144.695 335.119C146.364 334.091 148.684 333.449 151.256 333.449C153.828 333.449 156.147 334.091 157.817 335.119C159.49 336.148 160.483 337.544 160.483 339.05Z" fill="#D4D1D1" stroke="#BEBCBC" stroke-width="0.4"/>
<rect x="159.432" y="334.899" width="14.103" height="8.30182" rx="1.8" fill="#D4D1D1" stroke="#BEBCBC" stroke-width="0.4"/>
<rect x="160.883" y="336.35" width="3.95091" height="5.40121" rx="1.8" fill="#D4D1D1" stroke="#BEBCBC" stroke-width="0.4"/>
<rect x="166.684" y="336.35" width="5.40121" height="5.40121" rx="1.8" fill="#D4D1D1" stroke="#BEBCBC" stroke-width="0.4"/>
<path d="M138.19 388.437C139.03 388.437 139.677 388.257 140.13 387.897C140.584 387.523 140.81 386.983 140.81 386.277C140.81 385.69 140.65 385.197 140.33 384.797C140.024 384.397 139.517 384.09 138.81 383.877L137.19 383.397C136.177 383.09 135.43 382.63 134.95 382.017C134.47 381.39 134.23 380.623 134.23 379.717C134.23 379.023 134.364 378.397 134.63 377.837C134.91 377.277 135.35 376.83 135.95 376.497C136.564 376.163 137.364 375.997 138.35 375.997C138.95 375.997 139.57 376.07 140.21 376.217C140.85 376.35 141.497 376.57 142.15 376.877L141.59 378.377C140.95 378.097 140.37 377.897 139.85 377.777C139.344 377.643 138.857 377.577 138.39 377.577C137.63 377.577 137.037 377.737 136.61 378.057C136.197 378.363 135.99 378.877 135.99 379.597C135.99 380.117 136.13 380.557 136.41 380.917C136.69 381.263 137.19 381.55 137.91 381.777L139.53 382.257C141.557 382.857 142.57 384.15 142.57 386.137C142.57 387.283 142.224 388.217 141.53 388.937C140.837 389.643 139.724 389.997 138.19 389.997C137.564 389.997 136.897 389.923 136.19 389.777C135.497 389.617 134.777 389.37 134.03 389.037L134.57 387.557C135.277 387.877 135.91 388.103 136.47 388.237C137.044 388.37 137.617 388.437 138.19 388.437ZM154.788 381.497V384.477C154.788 386.17 154.361 387.517 153.508 388.517C152.668 389.503 151.454 389.997 149.868 389.997C148.281 389.997 147.061 389.503 146.208 388.517C145.368 387.517 144.948 386.17 144.948 384.477V381.497C144.948 379.817 145.368 378.483 146.208 377.497C147.061 376.497 148.281 375.997 149.868 375.997C151.454 375.997 152.668 376.497 153.508 377.497C154.361 378.483 154.788 379.817 154.788 381.497ZM152.988 381.497C152.988 380.257 152.721 379.303 152.188 378.637C151.668 377.957 150.894 377.617 149.868 377.617C148.854 377.617 148.081 377.957 147.548 378.637C147.014 379.303 146.748 380.257 146.748 381.497V384.477C146.748 385.73 147.014 386.697 147.548 387.377C148.081 388.057 148.854 388.397 149.868 388.397C150.894 388.397 151.668 388.057 152.188 387.377C152.721 386.697 152.988 385.73 152.988 384.477V381.497ZM158.477 389.797V376.197H162.697C164.257 376.197 165.457 376.67 166.297 377.617C167.137 378.55 167.557 379.843 167.557 381.497V384.477C167.557 386.143 167.137 387.45 166.297 388.397C165.457 389.33 164.257 389.797 162.697 389.797H158.477ZM162.657 377.837H160.217V388.177H162.657C164.723 388.177 165.757 386.943 165.757 384.477V381.497C165.757 379.057 164.723 377.837 162.657 377.837ZM178.021 389.797L177.001 386.637H171.841L170.821 389.797H169.121L173.641 376.197H175.281L179.821 389.797H178.021ZM173.101 382.717L172.341 385.057H176.481L175.721 382.717L174.421 378.517L173.101 382.717Z" fill="white"/>
<rect x="263.074" y="334.409" width="58.0121" height="97.1703" rx="10" fill="#89DD86"/>
<path d="M319.386 339.05C319.386 340.136 318.689 341.216 317.321 342.237C315.958 343.255 313.969 344.182 311.49 344.965C306.534 346.53 299.671 347.502 292.08 347.502C284.489 347.502 277.627 346.53 272.671 344.965C270.191 344.182 268.203 343.255 266.84 342.237C265.472 341.216 264.774 340.136 264.774 339.05C264.774 337.964 265.472 336.885 266.84 335.864C268.203 334.846 270.191 333.919 272.671 333.136C277.627 331.57 284.489 330.599 292.08 330.599C299.671 330.599 306.534 331.57 311.49 333.136C313.969 333.919 315.958 334.846 317.321 335.864C318.689 336.885 319.386 337.964 319.386 339.05Z" fill="#D4D1D1" stroke="#BEBCBC" stroke-width="0.5"/>
<path d="M296.231 339.05C296.231 340.557 295.238 341.953 293.565 342.982C291.896 344.01 289.576 344.652 287.004 344.652C284.432 344.652 282.113 344.01 280.443 342.982C278.77 341.953 277.777 340.557 277.777 339.05C277.777 337.544 278.77 336.148 280.443 335.119C282.113 334.091 284.432 333.449 287.004 333.449C289.576 333.449 291.896 334.091 293.565 335.119C295.238 336.148 296.231 337.544 296.231 339.05Z" fill="#D4D1D1" stroke="#BEBCBC" stroke-width="0.4"/>
<rect x="295.181" y="334.899" width="14.103" height="8.30182" rx="1.8" fill="#D4D1D1" stroke="#BEBCBC" stroke-width="0.4"/>
<rect x="296.631" y="336.35" width="3.95091" height="5.40121" rx="1.8" fill="#D4D1D1" stroke="#BEBCBC" stroke-width="0.4"/>
<rect x="302.432" y="336.35" width="5.40121" height="5.40121" rx="1.8" fill="#D4D1D1" stroke="#BEBCBC" stroke-width="0.4"/>
<path d="M273.939 388.437C274.779 388.437 275.425 388.257 275.879 387.897C276.332 387.523 276.559 386.983 276.559 386.277C276.559 385.69 276.399 385.197 276.079 384.797C275.772 384.397 275.265 384.09 274.559 383.877L272.939 383.397C271.925 383.09 271.179 382.63 270.699 382.017C270.219 381.39 269.979 380.623 269.979 379.717C269.979 379.023 270.112 378.397 270.379 377.837C270.659 377.277 271.099 376.83 271.699 376.497C272.312 376.163 273.112 375.997 274.099 375.997C274.699 375.997 275.319 376.07 275.959 376.217C276.599 376.35 277.245 376.57 277.899 376.877L277.339 378.377C276.699 378.097 276.119 377.897 275.599 377.777C275.092 377.643 274.605 377.577 274.139 377.577C273.379 377.577 272.785 377.737 272.359 378.057C271.945 378.363 271.739 378.877 271.739 379.597C271.739 380.117 271.879 380.557 272.159 380.917C272.439 381.263 272.939 381.55 273.659 381.777L275.279 382.257C277.305 382.857 278.319 384.15 278.319 386.137C278.319 387.283 277.972 388.217 277.279 388.937C276.585 389.643 275.472 389.997 273.939 389.997C273.312 389.997 272.645 389.923 271.939 389.777C271.245 389.617 270.525 389.37 269.779 389.037L270.319 387.557C271.025 387.877 271.659 388.103 272.219 388.237C272.792 388.37 273.365 388.437 273.939 388.437ZM290.536 381.497V384.477C290.536 386.17 290.109 387.517 289.256 388.517C288.416 389.503 287.203 389.997 285.616 389.997C284.029 389.997 282.809 389.503 281.956 388.517C281.116 387.517 280.696 386.17 280.696 384.477V381.497C280.696 379.817 281.116 378.483 281.956 377.497C282.809 376.497 284.029 375.997 285.616 375.997C287.203 375.997 288.416 376.497 289.256 377.497C290.109 378.483 290.536 379.817 290.536 381.497ZM288.736 381.497C288.736 380.257 288.469 379.303 287.936 378.637C287.416 377.957 286.643 377.617 285.616 377.617C284.603 377.617 283.829 377.957 283.296 378.637C282.763 379.303 282.496 380.257 282.496 381.497V384.477C282.496 385.73 282.763 386.697 283.296 387.377C283.829 388.057 284.603 388.397 285.616 388.397C286.643 388.397 287.416 388.057 287.936 387.377C288.469 386.697 288.736 385.73 288.736 384.477V381.497ZM294.225 389.797V376.197H298.445C300.005 376.197 301.205 376.67 302.045 377.617C302.885 378.55 303.305 379.843 303.305 381.497V384.477C303.305 386.143 302.885 387.45 302.045 388.397C301.205 389.33 300.005 389.797 298.445 389.797H294.225ZM298.405 377.837H295.965V388.177H298.405C300.472 388.177 301.505 386.943 301.505 384.477V381.497C301.505 379.057 300.472 377.837 298.405 377.837ZM313.769 389.797L312.749 386.637H307.589L306.569 389.797H304.869L309.389 376.197H311.029L315.569 389.797H313.769ZM308.849 382.717L308.089 385.057H312.229L311.469 382.717L310.169 378.517L308.849 382.717Z" fill="white"/>
<rect x="122.685" y="484.661" width="66.1338" height="107.903" fill="#B14936"/>
<rect x="119.204" y="475.379" width="73.0953" height="9.28194" fill="#F1E8E8"/>
<rect x="119.204" y="592.563" width="73.0953" height="9.28194" fill="#F1E8E8"/>
<path d="M156.225 579.013C157.29 579.013 158.112 578.803 158.69 578.384C159.256 577.953 159.54 577.296 159.54 576.412C159.54 576.026 159.494 575.647 159.404 575.273C159.313 574.899 159.154 574.451 158.928 573.93L160.186 573.437C160.435 573.992 160.616 574.519 160.73 575.018C160.843 575.516 160.9 575.998 160.9 576.463C160.9 577.8 160.48 578.814 159.642 579.506C158.803 580.197 157.664 580.543 156.225 580.543H153.675C152.235 580.543 151.096 580.197 150.258 579.506C149.419 578.814 149 577.8 149 576.463C149 575.998 149.056 575.516 149.17 575.018C149.283 574.508 149.464 573.992 149.714 573.471L150.989 573.947C150.581 574.865 150.377 575.686 150.377 576.412C150.377 577.296 150.66 577.953 151.227 578.384C151.793 578.803 152.609 579.013 153.675 579.013H156.225ZM160.73 564.489H155.579V569.538H160.73V571.017H149.17V569.538H154.185V564.489H149.17V563.01H160.73V564.489ZM153.675 551.542H156.208C157.647 551.542 158.792 551.905 159.642 552.63C160.48 553.344 160.9 554.375 160.9 555.724C160.9 557.073 160.48 558.11 159.642 558.835C158.792 559.549 157.647 559.906 156.208 559.906H153.675C152.247 559.906 151.113 559.549 150.275 558.835C149.425 558.11 149 557.073 149 555.724C149 554.375 149.425 553.344 150.275 552.63C151.113 551.905 152.247 551.542 153.675 551.542ZM153.675 553.072C152.621 553.072 151.81 553.299 151.244 553.752C150.666 554.194 150.377 554.851 150.377 555.724C150.377 556.585 150.666 557.243 151.244 557.696C151.81 558.149 152.621 558.376 153.675 558.376H156.208C157.273 558.376 158.095 558.149 158.673 557.696C159.251 557.243 159.54 556.585 159.54 555.724C159.54 554.851 159.251 554.194 158.673 553.752C158.095 553.299 157.273 553.072 156.208 553.072H153.675ZM156.225 547.403C157.29 547.403 158.112 547.193 158.69 546.774C159.256 546.343 159.54 545.686 159.54 544.802C159.54 544.417 159.494 544.037 159.404 543.663C159.313 543.289 159.154 542.841 158.928 542.32L160.186 541.827C160.435 542.382 160.616 542.909 160.73 543.408C160.843 543.907 160.9 544.388 160.9 544.853C160.9 546.19 160.48 547.205 159.642 547.896C158.803 548.587 157.664 548.933 156.225 548.933H153.675C152.235 548.933 151.096 548.587 150.258 547.896C149.419 547.205 149 546.19 149 544.853C149 544.388 149.056 543.907 149.17 543.408C149.283 542.898 149.464 542.382 149.714 541.861L150.989 542.337C150.581 543.255 150.377 544.077 150.377 544.802C150.377 545.686 150.66 546.343 151.227 546.774C151.793 547.193 152.609 547.403 153.675 547.403H156.225ZM153.675 531.72H156.208C157.647 531.72 158.792 532.082 159.642 532.808C160.48 533.522 160.9 534.553 160.9 535.902C160.9 537.25 160.48 538.287 159.642 539.013C158.792 539.727 157.647 540.084 156.208 540.084H153.675C152.247 540.084 151.113 539.727 150.275 539.013C149.425 538.287 149 537.25 149 535.902C149 534.553 149.425 533.522 150.275 532.808C151.113 532.082 152.247 531.72 153.675 531.72ZM153.675 533.25C152.621 533.25 151.81 533.476 151.244 533.93C150.666 534.372 150.377 535.029 150.377 535.902C150.377 536.763 150.666 537.42 151.244 537.874C151.81 538.327 152.621 538.554 153.675 538.554H156.208C157.273 538.554 158.095 538.327 158.673 537.874C159.251 537.42 159.54 536.763 159.54 535.902C159.54 535.029 159.251 534.372 158.673 533.93C158.095 533.476 157.273 533.25 156.208 533.25H153.675ZM159.353 522.26H160.73V528.584H149.17V527.105H159.353V522.26ZM160.73 513.864L158.044 514.731V519.117L160.73 519.984V521.429L149.17 517.587V516.193L160.73 512.334V513.864ZM154.712 518.046L156.701 518.692V515.173L154.712 515.819L151.142 516.924L154.712 518.046ZM150.564 512.866H149.17V504.655H150.564V508.021H160.73V509.5H150.564V512.866ZM159.353 496.176H160.73V502.636H149.17V496.346H150.564V501.157H154.185V496.856H155.579V501.157H159.353V496.176Z" fill="white"/>
<rect x="391.861" y="484.661" width="66.1338" height="107.903" fill="#9AE0C4"/>
<rect x="388.38" y="475.379" width="73.0953" height="9.28194" fill="#F1E8E8"/>
<rect x="388.38" y="592.563" width="73.0953" height="9.28194" fill="#F1E8E8"/>
<path d="M406.743 556.025L415.311 552.506L406.743 548.97V547.287H418.303V548.732H413.356L408.902 548.545L416.943 551.86V553.254L408.868 556.501L413.356 556.314H418.303V557.759H406.743V556.025ZM418.303 542.186V543.665H406.743V542.186H418.303ZM418.303 538.568H406.743V537.021C408.217 535.99 409.701 535.043 411.197 534.182C412.682 533.309 414.235 532.493 415.855 531.734L411.435 531.904H406.743V530.459H418.303V532.006C416.649 532.799 415.039 533.621 413.475 534.471C411.9 535.31 410.364 536.228 408.868 537.225L413.577 537.123H418.303V538.568ZM408.137 528.412H406.743V520.201H408.137V523.567H418.303V525.046H408.137V528.412ZM433.798 580.173C434.864 580.173 435.685 579.963 436.263 579.544C436.83 579.113 437.113 578.456 437.113 577.572C437.113 577.186 437.068 576.807 436.977 576.433C436.887 576.059 436.728 575.611 436.501 575.09L437.759 574.597C438.009 575.152 438.19 575.679 438.303 576.178C438.417 576.676 438.473 577.158 438.473 577.623C438.473 578.96 438.054 579.974 437.215 580.666C436.377 581.357 435.238 581.703 433.798 581.703H431.248C429.809 581.703 428.67 581.357 427.831 580.666C426.993 579.974 426.573 578.96 426.573 577.623C426.573 577.158 426.63 576.676 426.743 576.178C426.857 575.668 427.038 575.152 427.287 574.631L428.562 575.107C428.154 576.025 427.95 576.846 427.95 577.572C427.95 578.456 428.234 579.113 428.8 579.544C429.367 579.963 430.183 580.173 431.248 580.173H433.798ZM438.303 565.65H433.152V570.699H438.303V572.178H426.743V570.699H431.758V565.65H426.743V564.171H438.303V565.65ZM431.248 552.702H433.781C435.221 552.702 436.365 553.065 437.215 553.79C438.054 554.504 438.473 555.536 438.473 556.884C438.473 558.233 438.054 559.27 437.215 559.995C436.365 560.709 435.221 561.066 433.781 561.066H431.248C429.82 561.066 428.687 560.709 427.848 559.995C426.998 559.27 426.573 558.233 426.573 556.884C426.573 555.536 426.998 554.504 427.848 553.79C428.687 553.065 429.82 552.702 431.248 552.702ZM431.248 554.232C430.194 554.232 429.384 554.459 428.817 554.912C428.239 555.354 427.95 556.012 427.95 556.884C427.95 557.746 428.239 558.403 428.817 558.856C429.384 559.31 430.194 559.536 431.248 559.536H433.781C434.847 559.536 435.668 559.31 436.246 558.856C436.824 558.403 437.113 557.746 437.113 556.884C437.113 556.012 436.824 555.354 436.246 554.912C435.668 554.459 434.847 554.232 433.781 554.232H431.248ZM433.798 548.563C434.864 548.563 435.685 548.354 436.263 547.934C436.83 547.504 437.113 546.846 437.113 545.962C437.113 545.577 437.068 545.197 436.977 544.823C436.887 544.449 436.728 544.002 436.501 543.48L437.759 542.987C438.009 543.543 438.19 544.07 438.303 544.568C438.417 545.067 438.473 545.549 438.473 546.013C438.473 547.351 438.054 548.365 437.215 549.056C436.377 549.748 435.238 550.093 433.798 550.093H431.248C429.809 550.093 428.67 549.748 427.831 549.056C426.993 548.365 426.573 547.351 426.573 546.013C426.573 545.549 426.63 545.067 426.743 544.568C426.857 544.058 427.038 543.543 427.287 543.021L428.562 543.497C428.154 544.415 427.95 545.237 427.95 545.962C427.95 546.846 428.234 547.504 428.8 547.934C429.367 548.354 430.183 548.563 431.248 548.563H433.798ZM431.248 532.88H433.781C435.221 532.88 436.365 533.243 437.215 533.968C438.054 534.682 438.473 535.713 438.473 537.062C438.473 538.411 438.054 539.448 437.215 540.173C436.365 540.887 435.221 541.244 433.781 541.244H431.248C429.82 541.244 428.687 540.887 427.848 540.173C426.998 539.448 426.573 538.411 426.573 537.062C426.573 535.713 426.998 534.682 427.848 533.968C428.687 533.243 429.82 532.88 431.248 532.88ZM431.248 534.41C430.194 534.41 429.384 534.637 428.817 535.09C428.239 535.532 427.95 536.189 427.95 537.062C427.95 537.923 428.239 538.581 428.817 539.034C429.384 539.487 430.194 539.714 431.248 539.714H433.781C434.847 539.714 435.668 539.487 436.246 539.034C436.824 538.581 437.113 537.923 437.113 537.062C437.113 536.189 436.824 535.532 436.246 535.09C435.668 534.637 434.847 534.41 433.781 534.41H431.248ZM436.926 523.42H438.303V529.744H426.743V528.265H436.926V523.42ZM438.303 515.025L435.617 515.892V520.278L438.303 521.145V522.59L426.743 518.748V517.354L438.303 513.495V515.025ZM432.285 519.207L434.274 519.853V516.334L432.285 516.98L428.715 518.085L432.285 519.207ZM428.137 514.026H426.743V505.815H428.137V509.181H438.303V510.66H428.137V514.026ZM436.926 497.336H438.303V503.796H426.743V497.506H428.137V502.317H431.758V498.016H433.152V502.317H436.926V497.336Z" fill="white"/>
<rect x="258.433" y="484.661" width="66.1338" height="107.903" fill="#A76CEB"/>
<rect x="254.952" y="475.379" width="73.0953" height="9.28194" fill="#F1E8E8"/>
<rect x="254.952" y="592.563" width="73.0953" height="9.28194" fill="#F1E8E8"/>
<path d="M280.37 571.085C281.436 571.085 282.257 570.876 282.835 570.456C283.402 570.026 283.685 569.368 283.685 568.484C283.685 568.099 283.64 567.719 283.549 567.345C283.459 566.971 283.3 566.524 283.073 566.002L284.331 565.509C284.581 566.065 284.762 566.592 284.875 567.09C284.989 567.589 285.045 568.071 285.045 568.535C285.045 569.873 284.626 570.887 283.787 571.578C282.949 572.27 281.81 572.615 280.37 572.615H277.82C276.381 572.615 275.242 572.27 274.403 571.578C273.565 570.887 273.145 569.873 273.145 568.535C273.145 568.071 273.202 567.589 273.315 567.09C273.429 566.58 273.61 566.065 273.859 565.543L275.134 566.019C274.726 566.937 274.522 567.759 274.522 568.484C274.522 569.368 274.806 570.026 275.372 570.456C275.939 570.876 276.755 571.085 277.82 571.085H280.37ZM284.875 556.97L282.189 557.837V562.223L284.875 563.09V564.535L273.315 560.693V559.299L284.875 555.44V556.97ZM278.857 561.152L280.846 561.798V558.279L278.857 558.925L275.287 560.03L278.857 561.152ZM280.353 551.8H284.875V553.279H273.315V549.658C273.315 548.57 273.604 547.731 274.182 547.142C274.749 546.541 275.508 546.241 276.46 546.241H277.191C277.871 546.241 278.461 546.399 278.959 546.717C279.458 547.023 279.826 547.465 280.064 548.043C280.846 547.555 281.64 547.102 282.444 546.683C283.249 546.263 284.059 545.878 284.875 545.527V547.227C283.334 547.873 281.827 548.626 280.353 549.488V551.8ZM274.675 549.658V551.8H278.993V549.658C278.993 549.08 278.835 548.621 278.517 548.281C278.189 547.941 277.747 547.771 277.191 547.771H276.46C275.894 547.771 275.457 547.941 275.151 548.281C274.834 548.621 274.675 549.08 274.675 549.658ZM284.875 536.949L282.189 537.816V542.202L284.875 543.069V544.514L273.315 540.672V539.278L284.875 535.419V536.949ZM278.857 541.131L280.846 541.777V538.258L278.857 538.904L275.287 540.009L278.857 541.131ZM273.315 531.523L281.883 528.004L273.315 524.468V522.785H284.875V524.23H279.928L275.474 524.043L283.515 527.358V528.752L275.44 531.999L279.928 531.812H284.875V533.257H273.315V531.523ZM283.498 512.703H284.875V519.163H273.315V512.873H274.709V517.684H278.33V513.383H279.724V517.684H283.498V512.703ZM283.498 503.807H284.875V510.131H273.315V508.652H283.498V503.807ZM300.37 579.013C301.436 579.013 302.257 578.803 302.835 578.384C303.402 577.953 303.685 577.296 303.685 576.412C303.685 576.026 303.64 575.647 303.549 575.273C303.459 574.899 303.3 574.451 303.073 573.93L304.331 573.437C304.581 573.992 304.762 574.519 304.875 575.018C304.989 575.516 305.045 575.998 305.045 576.463C305.045 577.8 304.626 578.814 303.787 579.506C302.949 580.197 301.81 580.543 300.37 580.543H297.82C296.381 580.543 295.242 580.197 294.403 579.506C293.565 578.814 293.145 577.8 293.145 576.463C293.145 575.998 293.202 575.516 293.315 575.018C293.429 574.508 293.61 573.992 293.859 573.471L295.134 573.947C294.726 574.865 294.522 575.686 294.522 576.412C294.522 577.296 294.806 577.953 295.372 578.384C295.939 578.803 296.755 579.013 297.82 579.013H300.37ZM304.875 564.49H299.724V569.539H304.875V571.018H293.315V569.539H298.33V564.49H293.315V563.011H304.875V564.49ZM297.82 551.542H300.353C301.793 551.542 302.937 551.905 303.787 552.63C304.626 553.344 305.045 554.375 305.045 555.724C305.045 557.073 304.626 558.11 303.787 558.835C302.937 559.549 301.793 559.906 300.353 559.906H297.82C296.392 559.906 295.259 559.549 294.42 558.835C293.57 558.11 293.145 557.073 293.145 555.724C293.145 554.375 293.57 553.344 294.42 552.63C295.259 551.905 296.392 551.542 297.82 551.542ZM297.82 553.072C296.766 553.072 295.956 553.299 295.389 553.752C294.811 554.194 294.522 554.851 294.522 555.724C294.522 556.585 294.811 557.243 295.389 557.696C295.956 558.149 296.766 558.376 297.82 558.376H300.353C301.419 558.376 302.24 558.149 302.818 557.696C303.396 557.243 303.685 556.585 303.685 555.724C303.685 554.851 303.396 554.194 302.818 553.752C302.24 553.299 301.419 553.072 300.353 553.072H297.82ZM300.37 547.403C301.436 547.403 302.257 547.194 302.835 546.774C303.402 546.344 303.685 545.686 303.685 544.802C303.685 544.417 303.64 544.037 303.549 543.663C303.459 543.289 303.3 542.842 303.073 542.32L304.331 541.827C304.581 542.383 304.762 542.91 304.875 543.408C304.989 543.907 305.045 544.389 305.045 544.853C305.045 546.191 304.626 547.205 303.787 547.896C302.949 548.588 301.81 548.933 300.37 548.933H297.82C296.381 548.933 295.242 548.588 294.403 547.896C293.565 547.205 293.145 546.191 293.145 544.853C293.145 544.389 293.202 543.907 293.315 543.408C293.429 542.898 293.61 542.383 293.859 541.861L295.134 542.337C294.726 543.255 294.522 544.077 294.522 544.802C294.522 545.686 294.806 546.344 295.372 546.774C295.939 547.194 296.755 547.403 297.82 547.403H300.37ZM297.82 531.72H300.353C301.793 531.72 302.937 532.082 303.787 532.808C304.626 533.522 305.045 534.553 305.045 535.902C305.045 537.25 304.626 538.287 303.787 539.013C302.937 539.727 301.793 540.084 300.353 540.084H297.82C296.392 540.084 295.259 539.727 294.42 539.013C293.57 538.287 293.145 537.25 293.145 535.902C293.145 534.553 293.57 533.522 294.42 532.808C295.259 532.082 296.392 531.72 297.82 531.72ZM297.82 533.25C296.766 533.25 295.956 533.476 295.389 533.93C294.811 534.372 294.522 535.029 294.522 535.902C294.522 536.763 294.811 537.42 295.389 537.874C295.956 538.327 296.766 538.554 297.82 538.554H300.353C301.419 538.554 302.24 538.327 302.818 537.874C303.396 537.42 303.685 536.763 303.685 535.902C303.685 535.029 303.396 534.372 302.818 533.93C302.24 533.476 301.419 533.25 300.353 533.25H297.82ZM303.498 522.26H304.875V528.584H293.315V527.105H303.498V522.26ZM304.875 513.864L302.189 514.731V519.117L304.875 519.984V521.429L293.315 517.587V516.193L304.875 512.334V513.864ZM298.857 518.046L300.846 518.692V515.173L298.857 515.819L295.287 516.924L298.857 518.046ZM294.709 512.866H293.315V504.655H294.709V508.021H304.875V509.5H294.709V512.866ZM303.498 496.176H304.875V502.636H293.315V496.346H294.709V501.157H298.33V496.856H299.724V501.157H303.498V496.176Z" fill="white"/>
<rect x="533.25" y="284.939" width="61.8133" height="88.4989" rx="4" fill="#DAF2F0" stroke="#B4DAF3" stroke-width="2"/>
<rect x="539.212" y="290.9" width="49.8904" height="18.5639" rx="5" fill="#A2E3DE"/>
<ellipse cx="547.334" cy="319.906" rx="5.80121" ry="5.80121" fill="#D9D9D9"/>
<ellipse cx="582.141" cy="352.393" rx="5.80121" ry="5.80121" fill="#D9D9D9"/>
<ellipse cx="564.737" cy="352.393" rx="5.80121" ry="5.80121" fill="#D9D9D9"/>
<ellipse cx="547.334" cy="352.393" rx="5.80121" ry="5.80121" fill="#D9D9D9"/>
<ellipse cx="582.141" cy="336.15" rx="5.80121" ry="5.80121" fill="#D9D9D9"/>
<ellipse cx="564.737" cy="336.15" rx="5.80121" ry="5.80121" fill="#D9D9D9"/>
<ellipse cx="547.334" cy="336.15" rx="5.80121" ry="5.80121" fill="#D9D9D9"/>
<ellipse cx="582.141" cy="319.906" rx="5.80121" ry="5.80121" fill="#D9D9D9"/>
<ellipse cx="564.737" cy="319.906" rx="5.80121" ry="5.80121" fill="#D9D9D9"/>
<rect x="554.295" y="362.835" width="20.8844" height="6.96145" rx="2" fill="#D9D9D9"/>
<rect x="135.447" y="270.016" width="41.7687" height="17.4036" rx="2" fill="#FFFCFC"/>
<path d="M156.264 282.016L155.652 280.12H152.556L151.944 282.016H150.924L153.636 273.856H154.62L157.344 282.016H156.264ZM153.312 277.768L152.856 279.172H155.34L154.884 277.768L154.104 275.248L153.312 277.768ZM157.825 274.984L159.769 273.856H160.717V282.016H159.697V274.96L158.281 275.776L157.825 274.984Z" fill="black"/>
<rect x="402.303" y="604.166" width="41.7687" height="17.4036" rx="2" fill="#FFFCFC"/>
<path d="M419.004 612.986C419.004 613.738 419.152 614.318 419.448 614.726C419.752 615.126 420.216 615.326 420.84 615.326C421.112 615.326 421.38 615.294 421.644 615.23C421.908 615.166 422.224 615.054 422.592 614.894L422.94 615.782C422.548 615.958 422.176 616.086 421.824 616.166C421.472 616.246 421.132 616.286 420.804 616.286C419.86 616.286 419.144 615.99 418.656 615.398C418.168 614.806 417.924 614.002 417.924 612.986V611.186C417.924 610.17 418.168 609.366 418.656 608.774C419.144 608.182 419.86 607.886 420.804 607.886C421.132 607.886 421.472 607.926 421.824 608.006C422.184 608.086 422.548 608.214 422.916 608.39L422.58 609.29C421.932 609.002 421.352 608.858 420.84 608.858C420.216 608.858 419.752 609.058 419.448 609.458C419.152 609.858 419.004 610.434 419.004 611.186V612.986ZM428.559 614.042C428.559 614.698 428.355 615.238 427.947 615.662C427.539 616.078 426.883 616.286 425.979 616.286C425.619 616.286 425.243 616.246 424.851 616.166C424.467 616.078 424.067 615.942 423.651 615.758L423.963 614.894C424.363 615.054 424.719 615.17 425.031 615.242C425.351 615.314 425.659 615.35 425.955 615.35C426.451 615.35 426.835 615.246 427.107 615.038C427.387 614.83 427.527 614.49 427.527 614.018V613.826C427.527 613.426 427.411 613.106 427.179 612.866C426.947 612.626 426.591 612.506 426.111 612.506H424.911V611.594H426.111C426.567 611.594 426.903 611.482 427.119 611.258C427.335 611.026 427.443 610.714 427.443 610.322V610.154C427.443 609.682 427.315 609.346 427.059 609.146C426.803 608.938 426.447 608.834 425.991 608.834C425.711 608.834 425.423 608.87 425.127 608.942C424.831 609.006 424.495 609.118 424.119 609.278L423.783 608.402C424.183 608.218 424.567 608.086 424.935 608.006C425.311 607.926 425.671 607.886 426.015 607.886C426.879 607.886 427.507 608.094 427.899 608.51C428.291 608.926 428.487 609.466 428.487 610.13V610.298C428.487 610.698 428.391 611.05 428.199 611.354C428.007 611.65 427.747 611.882 427.419 612.05C427.771 612.21 428.047 612.446 428.247 612.758C428.455 613.062 428.559 613.426 428.559 613.85V614.042Z" fill="black"/>
<rect x="271.196" y="604.166" width="41.7687" height="17.4036" rx="2" fill="#FFFCFC"/>
<path d="M287.925 612.986C287.925 613.738 288.073 614.318 288.369 614.726C288.673 615.126 289.137 615.326 289.761 615.326C290.033 615.326 290.301 615.294 290.565 615.23C290.829 615.166 291.145 615.054 291.513 614.894L291.861 615.782C291.469 615.958 291.097 616.086 290.745 616.166C290.393 616.246 290.053 616.286 289.725 616.286C288.781 616.286 288.065 615.99 287.577 615.398C287.089 614.806 286.845 614.002 286.845 612.986V611.186C286.845 610.17 287.089 609.366 287.577 608.774C288.065 608.182 288.781 607.886 289.725 607.886C290.053 607.886 290.393 607.926 290.745 608.006C291.105 608.086 291.469 608.214 291.837 608.39L291.501 609.29C290.853 609.002 290.273 608.858 289.761 608.858C289.137 608.858 288.673 609.058 288.369 609.458C288.073 609.858 287.925 610.434 287.925 611.186V612.986ZM297.517 616.166H292.861V615.374C292.861 614.774 292.933 614.27 293.077 613.862C293.229 613.454 293.429 613.118 293.677 612.854C293.933 612.582 294.217 612.366 294.529 612.206L295.309 611.81C295.677 611.618 295.969 611.418 296.185 611.21C296.409 611.002 296.521 610.702 296.521 610.31V610.106C296.521 609.658 296.393 609.334 296.137 609.134C295.889 608.934 295.521 608.834 295.033 608.834C294.761 608.834 294.473 608.87 294.169 608.942C293.865 609.006 293.529 609.118 293.161 609.278L292.825 608.402C293.225 608.218 293.609 608.086 293.977 608.006C294.353 607.926 294.713 607.886 295.057 607.886C295.945 607.886 296.581 608.094 296.965 608.51C297.349 608.918 297.541 609.45 297.541 610.106V610.31C297.541 610.742 297.457 611.102 297.289 611.39C297.129 611.678 296.913 611.922 296.641 612.122C296.377 612.314 296.093 612.486 295.789 612.638L295.009 613.046C294.633 613.246 294.353 613.522 294.169 613.874C293.993 614.226 293.897 614.674 293.881 615.218H297.517V616.166Z" fill="black"/>
<rect x="134.287" y="604.166" width="41.7687" height="17.4036" rx="2" fill="#FFFCFC"/>
<path d="M152.939 612.986C152.939 613.738 153.087 614.318 153.383 614.726C153.687 615.126 154.151 615.326 154.775 615.326C155.047 615.326 155.315 615.294 155.579 615.23C155.843 615.166 156.159 615.054 156.527 614.894L156.875 615.782C156.483 615.958 156.111 616.086 155.759 616.166C155.407 616.246 155.067 616.286 154.739 616.286C153.795 616.286 153.079 615.99 152.591 615.398C152.103 614.806 151.859 614.002 151.859 612.986V611.186C151.859 610.17 152.103 609.366 152.591 608.774C153.079 608.182 153.795 607.886 154.739 607.886C155.067 607.886 155.407 607.926 155.759 608.006C156.119 608.086 156.483 608.214 156.851 608.39L156.515 609.29C155.867 609.002 155.287 608.858 154.775 608.858C154.151 608.858 153.687 609.058 153.383 609.458C153.087 609.858 152.939 610.434 152.939 611.186V612.986ZM157.538 609.134L159.482 608.006H160.43V616.166H159.41V609.11L157.994 609.926L157.538 609.134Z" fill="black"/>
<rect x="402.303" y="433.61" width="41.7687" height="17.4036" rx="2" fill="#FFFCFC"/>
<path d="M417.962 445.61V437.45H420.362C421.146 437.45 421.722 437.642 422.09 438.026C422.466 438.402 422.654 438.91 422.654 439.55V439.814C422.654 440.166 422.574 440.478 422.414 440.75C422.254 441.022 422.022 441.238 421.718 441.398C422.142 441.534 422.462 441.758 422.678 442.07C422.902 442.374 423.014 442.742 423.014 443.174V443.438C423.014 444.094 422.822 444.622 422.438 445.022C422.062 445.414 421.47 445.61 420.662 445.61H417.962ZM420.362 438.41H419.006V440.99H420.362C420.762 440.99 421.062 440.89 421.262 440.69C421.47 440.482 421.574 440.198 421.574 439.838V439.55C421.574 439.198 421.47 438.922 421.262 438.722C421.062 438.514 420.762 438.41 420.362 438.41ZM420.662 441.95H419.006V444.662H420.662C421.086 444.662 421.402 444.554 421.61 444.338C421.826 444.122 421.934 443.822 421.934 443.438V443.15C421.934 442.782 421.826 442.49 421.61 442.274C421.402 442.058 421.086 441.95 420.662 441.95ZM428.893 443.486C428.893 444.142 428.689 444.682 428.281 445.106C427.873 445.522 427.217 445.73 426.313 445.73C425.953 445.73 425.577 445.69 425.185 445.61C424.801 445.522 424.401 445.386 423.985 445.202L424.297 444.338C424.697 444.498 425.053 444.614 425.365 444.686C425.685 444.758 425.993 444.794 426.289 444.794C426.785 444.794 427.169 444.69 427.441 444.482C427.721 444.274 427.861 443.934 427.861 443.462V443.27C427.861 442.87 427.745 442.55 427.513 442.31C427.281 442.07 426.925 441.95 426.445 441.95H425.245V441.038H426.445C426.901 441.038 427.237 440.926 427.453 440.702C427.669 440.47 427.777 440.158 427.777 439.766V439.598C427.777 439.126 427.649 438.79 427.393 438.59C427.137 438.382 426.781 438.278 426.325 438.278C426.045 438.278 425.757 438.314 425.461 438.386C425.165 438.45 424.829 438.562 424.453 438.722L424.117 437.846C424.517 437.662 424.901 437.53 425.269 437.45C425.645 437.37 426.005 437.33 426.349 437.33C427.213 437.33 427.841 437.538 428.233 437.954C428.625 438.37 428.821 438.91 428.821 439.574V439.742C428.821 440.142 428.725 440.494 428.533 440.798C428.341 441.094 428.081 441.326 427.753 441.494C428.105 441.654 428.381 441.89 428.581 442.202C428.789 442.506 428.893 442.87 428.893 443.294V443.486Z" fill="black"/>
<rect x="271.196" y="433.61" width="41.7687" height="17.4036" rx="2" fill="#FFFCFC"/>
<path d="M286.883 445.61V437.45H289.283C290.067 437.45 290.643 437.642 291.011 438.026C291.387 438.402 291.575 438.91 291.575 439.55V439.814C291.575 440.166 291.495 440.478 291.335 440.75C291.175 441.022 290.943 441.238 290.639 441.398C291.063 441.534 291.383 441.758 291.599 442.07C291.823 442.374 291.935 442.742 291.935 443.174V443.438C291.935 444.094 291.743 444.622 291.359 445.022C290.983 445.414 290.391 445.61 289.583 445.61H286.883ZM289.283 438.41H287.927V440.99H289.283C289.683 440.99 289.983 440.89 290.183 440.69C290.391 440.482 290.495 440.198 290.495 439.838V439.55C290.495 439.198 290.391 438.922 290.183 438.722C289.983 438.514 289.683 438.41 289.283 438.41ZM289.583 441.95H287.927V444.662H289.583C290.007 444.662 290.323 444.554 290.531 444.338C290.747 444.122 290.855 443.822 290.855 443.438V443.15C290.855 442.782 290.747 442.49 290.531 442.274C290.323 442.058 290.007 441.95 289.583 441.95ZM297.851 445.61H293.195V444.818C293.195 444.218 293.267 443.714 293.411 443.306C293.563 442.898 293.763 442.562 294.011 442.298C294.267 442.026 294.551 441.81 294.863 441.65L295.643 441.254C296.011 441.062 296.303 440.862 296.519 440.654C296.743 440.446 296.855 440.146 296.855 439.754V439.55C296.855 439.102 296.727 438.778 296.471 438.578C296.223 438.378 295.855 438.278 295.367 438.278C295.095 438.278 294.807 438.314 294.503 438.386C294.199 438.45 293.863 438.562 293.495 438.722L293.159 437.846C293.559 437.662 293.943 437.53 294.311 437.45C294.687 437.37 295.047 437.33 295.391 437.33C296.279 437.33 296.915 437.538 297.299 437.954C297.683 438.362 297.875 438.894 297.875 439.55V439.754C297.875 440.186 297.791 440.546 297.623 440.834C297.463 441.122 297.247 441.366 296.975 441.566C296.711 441.758 296.427 441.93 296.123 442.082L295.343 442.49C294.967 442.69 294.687 442.966 294.503 443.318C294.327 443.67 294.231 444.118 294.215 444.662H297.851V445.61Z" fill="black"/>
<rect x="135.447" y="433.61" width="41.7687" height="17.4036" rx="2" fill="#FFFCFC"/>
<path d="M151.897 445.61V437.45H154.297C155.081 437.45 155.657 437.642 156.025 438.026C156.401 438.402 156.589 438.91 156.589 439.55V439.814C156.589 440.166 156.509 440.478 156.349 440.75C156.189 441.022 155.957 441.238 155.653 441.398C156.077 441.534 156.397 441.758 156.613 442.07C156.837 442.374 156.949 442.742 156.949 443.174V443.438C156.949 444.094 156.757 444.622 156.373 445.022C155.997 445.414 155.405 445.61 154.597 445.61H151.897ZM154.297 438.41H152.941V440.99H154.297C154.697 440.99 154.997 440.89 155.197 440.69C155.405 440.482 155.509 440.198 155.509 439.838V439.55C155.509 439.198 155.405 438.922 155.197 438.722C154.997 438.514 154.697 438.41 154.297 438.41ZM154.597 441.95H152.941V444.662H154.597C155.021 444.662 155.337 444.554 155.545 444.338C155.761 444.122 155.869 443.822 155.869 443.438V443.15C155.869 442.782 155.761 442.49 155.545 442.274C155.337 442.058 155.021 441.95 154.597 441.95ZM157.872 438.578L159.816 437.45H160.764V445.61H159.744V438.554L158.328 439.37L157.872 438.578Z" fill="black"/>
<rect x="402.303" y="270.016" width="41.7687" height="17.4036" rx="2" fill="#FFFCFC"/>
<path d="M422.328 282.016L421.716 280.12H418.62L418.008 282.016H416.988L419.7 273.856H420.684L423.408 282.016H422.328ZM419.376 277.768L418.92 279.172H421.404L420.948 277.768L420.168 275.248L419.376 277.768ZM428.846 279.892C428.846 280.548 428.642 281.088 428.234 281.512C427.826 281.928 427.17 282.136 426.266 282.136C425.906 282.136 425.53 282.096 425.138 282.016C424.754 281.928 424.354 281.792 423.938 281.608L424.25 280.744C424.65 280.904 425.006 281.02 425.318 281.092C425.638 281.164 425.946 281.2 426.242 281.2C426.738 281.2 427.122 281.096 427.394 280.888C427.674 280.68 427.814 280.34 427.814 279.868V279.676C427.814 279.276 427.698 278.956 427.466 278.716C427.234 278.476 426.878 278.356 426.398 278.356H425.198V277.444H426.398C426.854 277.444 427.19 277.332 427.406 277.108C427.622 276.876 427.73 276.564 427.73 276.172V276.004C427.73 275.532 427.602 275.196 427.346 274.996C427.09 274.788 426.734 274.684 426.278 274.684C425.998 274.684 425.71 274.72 425.414 274.792C425.118 274.856 424.782 274.968 424.406 275.128L424.07 274.252C424.47 274.068 424.854 273.936 425.222 273.856C425.598 273.776 425.958 273.736 426.302 273.736C427.166 273.736 427.794 273.944 428.186 274.36C428.578 274.776 428.774 275.316 428.774 275.98V276.148C428.774 276.548 428.678 276.9 428.486 277.204C428.294 277.5 428.034 277.732 427.706 277.9C428.058 278.06 428.334 278.296 428.534 278.608C428.742 278.912 428.846 279.276 428.846 279.7V279.892Z" fill="black"/>
<rect x="271.196" y="270.016" width="41.7687" height="17.4036" rx="2" fill="#FFFCFC"/>
<path d="M291.25 282.016L290.638 280.12H287.542L286.93 282.016H285.91L288.622 273.856H289.606L292.33 282.016H291.25ZM288.298 277.768L287.842 279.172H290.326L289.87 277.768L289.09 275.248L288.298 277.768ZM297.804 282.016H293.148V281.224C293.148 280.624 293.22 280.12 293.364 279.712C293.516 279.304 293.716 278.968 293.964 278.704C294.22 278.432 294.504 278.216 294.816 278.056L295.596 277.66C295.964 277.468 296.256 277.268 296.472 277.06C296.696 276.852 296.808 276.552 296.808 276.16V275.956C296.808 275.508 296.68 275.184 296.424 274.984C296.176 274.784 295.808 274.684 295.32 274.684C295.048 274.684 294.76 274.72 294.456 274.792C294.152 274.856 293.816 274.968 293.448 275.128L293.112 274.252C293.512 274.068 293.896 273.936 294.264 273.856C294.64 273.776 295 273.736 295.344 273.736C296.232 273.736 296.868 273.944 297.252 274.36C297.636 274.768 297.828 275.3 297.828 275.956V276.16C297.828 276.592 297.744 276.952 297.576 277.24C297.416 277.528 297.2 277.772 296.928 277.972C296.664 278.164 296.38 278.336 296.076 278.488L295.296 278.896C294.92 279.096 294.64 279.372 294.456 279.724C294.28 280.076 294.184 280.524 294.168 281.068H297.804V282.016Z" fill="black"/>
<line x1="615.151" y1="60.9086" x2="650.151" y2="27.9086" stroke="#E6A5E0" stroke-width="3"/>
<line x1="600.151" y1="39.9086" x2="635.151" y2="6.90862" stroke="#E6A5E0" stroke-width="3"/>
<defs>
<filter id="filter0_d_15_352" x="37.468" y="3.16028" width="619.448" height="802.766" filterUnits="userSpaceOnUse" color-interpolation-filters="sRGB">
<feFlood flood-opacity="0" result="BackgroundImageFix"/>
<feColorMatrix in="SourceAlpha" type="matrix" values="0 0 0 0 0 0 0 0 0 0 0 0 0 0 0 0 0 0 127 0" result="hardAlpha"/>
<feOffset dy="4"/>
<feGaussianBlur stdDeviation="2"/>
<feComposite in2="hardAlpha" operator="out"/>
<feColorMatrix type="matrix" values="0 0 0 0 0 0 0 0 0 0 0 0 0 0 0 0 0 0 0.25 0"/>
<feBlend mode="normal" in2="BackgroundImageFix" result="effect1_dropShadow_15_352"/>
<feBlend mode="normal" in="SourceGraphic" in2="effect1_dropShadow_15_352" result="shape"/>
</filter>
<filter id="filter1_d_15_352" x="485.321" y="822.291" width="72.9735" height="70.6531" filterUnits="userSpaceOnUse" color-interpolation-filters="sRGB">
<feFlood flood-opacity="0" result="BackgroundImageFix"/>
<feColorMatrix in="SourceAlpha" type="matrix" values="0 0 0 0 0 0 0 0 0 0 0 0 0 0 0 0 0 0 127 0" result="hardAlpha"/>
<feOffset dy="4"/>
<feGaussianBlur stdDeviation="2"/>
<feComposite in2="hardAlpha" operator="out"/>
<feColorMatrix type="matrix" values="0 0 0 0 0 0 0 0 0 0 0 0 0 0 0 0 0 0 0.25 0"/>
<feBlend mode="normal" in2="BackgroundImageFix" result="effect1_dropShadow_15_352"/>
<feBlend mode="normal" in="SourceGraphic" in2="effect1_dropShadow_15_352" result="shape"/>
</filter>
<filter id="filter2_d_15_352" x="65.3138" y="822.291" width="72.9736" height="70.6531" filterUnits="userSpaceOnUse" color-interpolation-filters="sRGB">
<feFlood flood-opacity="0" result="BackgroundImageFix"/>
<feColorMatrix in="SourceAlpha" type="matrix" values="0 0 0 0 0 0 0 0 0 0 0 0 0 0 0 0 0 0 127 0" result="hardAlpha"/>
<feOffset dy="4"/>
<feGaussianBlur stdDeviation="2"/>
<feComposite in2="hardAlpha" operator="out"/>
<feColorMatrix type="matrix" values="0 0 0 0 0 0 0 0 0 0 0 0 0 0 0 0 0 0 0.25 0"/>
<feBlend mode="normal" in2="BackgroundImageFix" result="effect1_dropShadow_15_352"/>
<feBlend mode="normal" in="SourceGraphic" in2="effect1_dropShadow_15_352" result="shape"/>
</filter>
<filter id="filter3_d_15_352" x="0.340179" y="35.6471" width="619.448" height="802.766" filterUnits="userSpaceOnUse" color-interpolation-filters="sRGB">
<feFlood flood-opacity="0" result="BackgroundImageFix"/>
<feColorMatrix in="SourceAlpha" type="matrix" values="0 0 0 0 0 0 0 0 0 0 0 0 0 0 0 0 0 0 127 0" result="hardAlpha"/>
<feOffset dy="4"/>
<feGaussianBlur stdDeviation="2"/>
<feComposite in2="hardAlpha" operator="out"/>
<feColorMatrix type="matrix" values="0 0 0 0 0 0 0 0 0 0 0 0 0 0 0 0 0 0 0.25 0"/>
<feBlend mode="normal" in2="BackgroundImageFix" result="effect1_dropShadow_15_352"/>
<feBlend mode="normal" in="SourceGraphic" in2="effect1_dropShadow_15_352" result="shape"/>
</filter>
<linearGradient id="paint0_linear_15_352" x1="290.92" y1="102.941" x2="290.92" y2="692.344" gradientUnits="userSpaceOnUse">
<stop stop-color="#D9D9D9"/>
<stop offset="1" stop-color="#737373"/>
</linearGradient>
</defs>
</svg>
