<svg width="246" height="77" viewBox="0 0 246 77" fill="none" xmlns="http://www.w3.org/2000/svg">
<rect x="1.5" y="1.5" width="243" height="74" rx="22.5" fill="#D9D9D9" stroke="#BBD0CA" stroke-width="3"/>
<path d="M79.65 38.2L80.85 45.075L84.775 31H86.8L90.725 45L91.975 38.2L93.45 31H95.6L91.85 48H89.65L85.75 34.1L81.85 48H79.625L75.9 31H78.175L79.65 38.2ZM110.734 37.625V41.35C110.734 43.4667 110.2 45.15 109.134 46.4C108.084 47.6333 106.567 48.25 104.584 48.25C102.6 48.25 101.075 47.6333 100.009 46.4C98.9588 45.15 98.4338 43.4667 98.4338 41.35V37.625C98.4338 35.525 98.9588 33.8583 100.009 32.625C101.075 31.375 102.6 30.75 104.584 30.75C106.567 30.75 108.084 31.375 109.134 32.625C110.2 33.8583 110.734 35.525 110.734 37.625ZM108.484 37.625C108.484 36.075 108.15 34.8833 107.484 34.05C106.834 33.2 105.867 32.775 104.584 32.775C103.317 32.775 102.35 33.2 101.684 34.05C101.017 34.8833 100.684 36.075 100.684 37.625V41.35C100.684 42.9167 101.017 44.125 101.684 44.975C102.35 45.825 103.317 46.25 104.584 46.25C105.867 46.25 106.834 45.825 107.484 44.975C108.15 44.125 108.484 42.9167 108.484 41.35V37.625ZM117.52 41.35V48H115.345V31H120.67C122.27 31 123.504 31.425 124.37 32.275C125.254 33.1083 125.695 34.225 125.695 35.625V36.7C125.695 37.7 125.462 38.5667 124.995 39.3C124.545 40.0333 123.895 40.575 123.045 40.925C123.762 42.075 124.429 43.2417 125.045 44.425C125.662 45.6083 126.229 46.8 126.745 48H124.245C123.295 45.7333 122.187 43.5167 120.92 41.35H117.52ZM120.67 33H117.52V39.35H120.67C121.52 39.35 122.195 39.1167 122.695 38.65C123.195 38.1667 123.445 37.5167 123.445 36.7V35.625C123.445 34.7917 123.195 34.15 122.695 33.7C122.195 33.2333 121.52 33 120.67 33ZM139.635 48L134.785 39.975C134.435 40.3417 134.068 40.7167 133.685 41.1C133.318 41.4833 132.935 41.8667 132.535 42.25V48H130.36V31H132.535V39.825C134.102 38.2417 135.41 36.7417 136.46 35.325C137.51 33.9083 138.402 32.4667 139.135 31H141.485C140.735 32.4667 139.952 33.8 139.135 35C138.335 36.1833 137.418 37.3667 136.385 38.55L142.285 48H139.635ZM154.753 45.975V48H145.253V31H154.503V33.05H147.428V38.375H153.753V40.425H147.428V45.975H154.753ZM160.709 41.35V48H158.534V31H163.859C165.459 31 166.692 31.425 167.559 32.275C168.442 33.1083 168.884 34.225 168.884 35.625V36.7C168.884 37.7 168.65 38.5667 168.184 39.3C167.734 40.0333 167.084 40.575 166.234 40.925C166.95 42.075 167.617 43.2417 168.234 44.425C168.85 45.6083 169.417 46.8 169.934 48H167.434C166.484 45.7333 165.375 43.5167 164.109 41.35H160.709ZM163.859 33H160.709V39.35H163.859C164.709 39.35 165.384 39.1167 165.884 38.65C166.384 38.1667 166.634 37.5167 166.634 36.7V35.625C166.634 34.7917 166.384 34.15 165.884 33.7C165.384 33.2333 164.709 33 163.859 33Z" fill="#6A9C6F"/>
</svg>
